{"glyphs":{"0":{"ha":750,"x_min":53,"x_max":697,"o":"m 375 -14 q 203 44 276 -14 q 92 212 131 103 q 53 472 53 321 q 92 731 53 622 q 203 899 131 840 q 375 958 276 958 q 547 899 475 958 q 658 731 619 840 q 697 472 697 622 q 658 212 697 321 q 547 44 619 103 q 375 -14 475 -14 m 375 119 q 478 166 439 119 q 538 293 518 213 q 557 472 557 374 q 538 642 557 561 q 478 774 518 722 q 375 825 439 825 q 269 774 310 825 q 210 642 228 722 q 192 472 192 561 q 210 293 192 374 q 269 166 228 213 q 375 119 310 119 z "},"1":{"ha":482,"x_min":53,"x_max":364,"o":"m 225 800 l 276 779 q 240 728 267 753 q 168 686 214 703 q 53 669 122 669 l 53 803 q 156 820 113 803 q 227 870 199 838 q 269 946 256 903 l 364 946 l 364 0 l 225 0 l 225 800 z "},"2":{"ha":689,"x_min":47,"x_max":636,"o":"m 618 703 q 601 592 618 647 q 549 481 583 538 q 461 364 514 425 l 194 49 l 190 131 l 636 131 l 636 0 l 71 0 l 71 114 l 329 415 q 419 528 386 482 q 467 613 453 575 q 481 690 481 651 q 441 790 481 756 q 351 825 401 825 q 251 796 300 825 q 150 689 203 767 l 47 761 q 134 873 89 829 q 232 938 179 917 q 347 958 285 958 q 492 925 431 958 q 585 834 553 892 q 618 703 618 776 z "},"3":{"ha":690,"x_min":42,"x_max":649,"o":"m 347 -14 q 174 21 246 -14 q 42 128 103 56 l 131 219 q 227 144 179 168 q 333 119 275 119 q 465 163 421 119 q 508 274 508 207 q 477 377 508 340 q 394 429 446 414 q 282 444 343 444 q 247 444 265 444 q 215 442 228 443 l 215 564 q 248 563 239 563 q 272 563 257 563 q 419 600 367 563 q 471 703 471 638 q 435 792 471 760 q 333 825 399 825 q 234 802 278 825 q 147 729 190 779 l 58 814 q 194 926 128 893 q 347 958 260 958 q 485 928 426 958 q 576 842 544 897 q 608 711 608 786 q 524 528 608 597 q 300 460 440 460 l 300 544 q 476 514 397 544 q 602 422 556 483 q 649 268 649 361 q 613 128 649 193 q 510 25 578 64 q 347 -14 443 -14 z "},"4":{"ha":767,"x_min":53,"x_max":731,"o":"m 597 596 l 597 0 l 456 0 l 456 317 l 426 365 l 519 596 l 597 596 m 53 235 l 53 321 l 308 946 l 450 946 l 192 297 l 161 368 l 731 368 l 731 235 l 53 235 z "},"5":{"ha":721,"x_min":60,"x_max":679,"o":"m 189 389 l 92 414 l 92 946 l 615 946 l 615 813 l 169 813 l 224 857 l 224 439 l 150 492 q 247 586 190 554 q 389 618 304 618 q 533 579 467 618 q 639 469 599 540 q 679 303 679 399 q 636 128 679 199 q 523 22 593 57 q 369 -14 453 -14 q 183 28 258 -14 q 60 140 107 69 l 161 219 q 249 144 199 168 q 350 121 300 121 q 489 171 440 121 q 538 303 538 221 q 485 429 538 382 q 360 476 433 476 q 268 457 311 476 q 189 389 225 438 z "},"6":{"ha":744,"x_min":42,"x_max":715,"o":"m 42 446 q 89 719 42 604 q 223 897 136 835 q 428 958 310 958 q 563 935 500 958 q 682 868 626 913 l 607 764 q 522 812 568 796 q 429 828 476 828 q 307 785 363 828 q 219 655 251 743 q 186 428 186 567 l 160 428 q 263 551 190 506 q 426 596 335 596 q 588 556 524 596 q 683 449 651 515 q 715 301 715 382 q 678 138 715 208 q 569 26 640 67 q 396 -14 499 -14 q 203 33 282 -14 q 83 182 124 81 q 42 446 42 283 m 206 288 q 256 164 206 211 q 386 117 306 117 q 522 164 472 117 q 571 288 571 211 q 522 414 571 365 q 386 463 472 463 q 256 414 306 463 q 206 288 206 365 z "},"7":{"ha":663,"x_min":36,"x_max":644,"o":"m 93 0 l 535 904 l 613 813 l 36 813 l 36 946 l 644 946 l 644 828 l 253 0 l 93 0 z "},"8":{"ha":739,"x_min":65,"x_max":674,"o":"m 369 -14 q 203 22 271 -14 q 100 119 135 58 q 65 250 65 179 q 97 381 65 326 q 185 469 129 435 q 311 517 240 503 l 311 449 q 200 499 249 464 q 124 585 151 533 q 96 701 96 636 q 130 837 96 779 q 226 926 164 894 q 372 958 288 958 q 515 926 454 958 q 610 837 576 894 q 643 701 643 779 q 620 594 643 643 q 556 511 597 546 q 461 458 515 476 l 460 510 q 572 458 524 493 q 647 372 619 424 q 674 250 674 319 q 639 119 674 179 q 536 22 604 58 q 369 -14 468 -14 m 369 122 q 488 164 443 122 q 533 274 533 206 q 488 389 533 346 q 369 432 443 432 q 251 389 296 432 q 206 274 206 346 q 251 164 206 206 q 369 122 296 122 m 369 563 q 471 601 431 563 q 511 696 511 639 q 471 786 511 750 q 369 822 431 822 q 269 786 310 822 q 228 696 228 750 q 269 601 228 639 q 369 563 310 563 z "},"9":{"ha":743,"x_min":42,"x_max":715,"o":"m 715 499 q 668 226 715 340 q 534 49 621 111 q 329 -14 447 -14 q 194 9 257 -14 q 75 76 132 32 l 150 181 q 235 133 190 150 q 328 117 281 117 q 451 159 396 117 q 538 290 506 201 q 571 517 571 378 l 597 517 q 494 394 567 439 q 331 349 422 349 q 170 389 235 349 q 74 496 106 429 q 42 643 42 563 q 79 807 42 736 q 188 918 117 878 q 361 958 260 958 q 555 911 476 958 q 674 763 633 864 q 715 499 715 661 m 551 657 q 502 781 551 733 q 371 828 453 828 q 236 781 286 828 q 186 657 186 733 q 236 531 186 579 q 371 482 286 482 q 502 531 453 482 q 551 657 551 579 z "},"A":{"ha":919,"x_min":28,"x_max":892,"o":"m 206 351 l 715 351 l 715 221 l 206 221 l 206 351 m 28 0 l 365 946 l 554 946 l 892 0 l 750 0 l 447 849 l 472 849 l 169 0 l 28 0 z "},"Á":{"ha":919,"x_min":28,"x_max":892,"o":"m 206 351 l 715 351 l 715 221 l 206 221 l 206 351 m 28 0 l 365 946 l 554 946 l 892 0 l 750 0 l 447 849 l 472 849 l 169 0 l 28 0 m 446 1042 l 376 1114 l 588 1308 l 658 1238 l 446 1042 z "},"Ă":{"ha":919,"x_min":28,"x_max":892,"o":"m 206 351 l 715 351 l 715 221 l 206 221 l 206 351 m 28 0 l 365 946 l 554 946 l 892 0 l 750 0 l 447 849 l 472 849 l 169 0 l 28 0 m 460 1074 q 330 1121 379 1074 q 274 1251 281 1168 l 369 1251 q 392 1183 372 1213 q 460 1154 413 1154 q 528 1183 507 1154 q 551 1251 549 1213 l 647 1251 q 592 1121 642 1168 q 460 1074 542 1074 z "},"Ǎ":{"ha":919,"x_min":28,"x_max":892,"o":"m 206 351 l 715 351 l 715 221 l 206 221 l 206 351 m 28 0 l 365 946 l 554 946 l 892 0 l 750 0 l 447 849 l 472 849 l 169 0 l 28 0 m 460 1043 l 261 1238 l 332 1308 l 503 1135 l 414 1136 l 586 1308 l 657 1238 l 460 1043 z "},"Â":{"ha":919,"x_min":28,"x_max":892,"o":"m 206 351 l 715 351 l 715 221 l 206 221 l 206 351 m 28 0 l 365 946 l 554 946 l 892 0 l 750 0 l 447 849 l 472 849 l 169 0 l 28 0 m 331 1043 l 260 1114 l 457 1308 l 656 1114 l 585 1043 l 414 1217 l 503 1215 l 331 1043 z "},"Ä":{"ha":919,"x_min":28,"x_max":892,"o":"m 206 351 l 715 351 l 715 221 l 206 221 l 206 351 m 28 0 l 365 946 l 554 946 l 892 0 l 750 0 l 447 849 l 472 849 l 169 0 l 28 0 m 238 1144 q 262 1210 238 1185 q 328 1236 286 1236 q 393 1210 368 1236 q 418 1144 418 1185 q 393 1080 418 1106 q 328 1054 368 1054 q 262 1080 286 1054 q 238 1144 238 1106 m 501 1144 q 526 1210 501 1185 q 592 1236 550 1236 q 657 1210 632 1236 q 682 1144 682 1185 q 657 1080 682 1106 q 592 1054 632 1054 q 526 1080 550 1054 q 501 1144 501 1106 z "},"À":{"ha":919,"x_min":28,"x_max":892,"o":"m 206 351 l 715 351 l 715 221 l 206 221 l 206 351 m 28 0 l 365 946 l 554 946 l 892 0 l 750 0 l 447 849 l 472 849 l 169 0 l 28 0 m 465 1042 l 253 1238 l 324 1308 l 535 1114 l 465 1042 z "},"Ā":{"ha":919,"x_min":28,"x_max":892,"o":"m 206 351 l 715 351 l 715 221 l 206 221 l 206 351 m 28 0 l 365 946 l 554 946 l 892 0 l 750 0 l 447 849 l 472 849 l 169 0 l 28 0 m 649 1079 l 272 1079 l 272 1176 l 649 1176 l 649 1079 z "},"Ą":{"ha":919,"x_min":28,"x_max":903,"o":"m 206 351 l 715 351 l 715 221 l 206 221 l 206 351 m 28 0 l 365 946 l 554 946 l 892 0 l 750 0 l 447 849 l 472 849 l 169 0 l 28 0 m 815 -315 q 715 -287 756 -315 q 675 -190 675 -258 q 709 -83 675 -137 q 796 7 743 -28 l 892 0 q 806 -78 838 -35 q 774 -164 774 -122 q 835 -221 774 -221 q 865 -217 849 -221 q 890 -208 881 -212 l 903 -296 q 867 -309 890 -303 q 815 -315 843 -315 z "},"Å":{"ha":919,"x_min":28,"x_max":892,"o":"m 206 351 l 715 351 l 715 221 l 206 221 l 206 351 m 28 0 l 365 946 l 554 946 l 892 0 l 750 0 l 447 849 l 472 849 l 169 0 l 28 0 m 460 1044 q 385 1063 419 1044 q 331 1115 351 1082 q 311 1188 311 1147 q 331 1263 311 1229 q 385 1315 351 1296 q 460 1333 419 1333 q 535 1315 501 1333 q 588 1263 568 1296 q 608 1188 608 1229 q 588 1115 608 1147 q 535 1063 568 1082 q 460 1044 501 1044 m 458 1135 q 497 1150 482 1135 q 513 1188 513 1165 q 497 1226 513 1211 q 458 1242 482 1242 q 421 1226 436 1242 q 406 1188 406 1211 q 421 1150 406 1165 q 458 1135 436 1135 z "},"Ã":{"ha":919,"x_min":28,"x_max":892,"o":"m 206 351 l 715 351 l 715 221 l 206 221 l 206 351 m 28 0 l 365 946 l 554 946 l 892 0 l 750 0 l 447 849 l 472 849 l 169 0 l 28 0 m 550 1067 q 443 1106 499 1067 q 404 1130 419 1122 q 372 1138 389 1138 q 303 1075 331 1138 l 210 1121 q 275 1211 238 1179 q 367 1243 313 1243 q 430 1233 400 1243 q 492 1199 460 1222 q 523 1180 508 1188 q 551 1172 538 1172 q 588 1188 575 1172 q 617 1243 600 1203 l 710 1197 q 650 1102 688 1138 q 550 1067 613 1067 z "},"Æ":{"ha":1157,"x_min":28,"x_max":1081,"o":"m 586 0 l 500 946 l 1051 946 l 1051 815 l 607 815 l 649 860 l 717 108 l 686 131 l 1081 131 l 1081 0 l 586 0 m 182 240 l 182 371 l 636 371 l 636 240 l 182 240 m 28 0 l 404 946 l 553 946 l 165 0 l 28 0 m 642 401 l 642 532 l 994 532 l 994 401 l 642 401 z "},"B":{"ha":833,"x_min":118,"x_max":764,"o":"m 118 0 l 118 946 l 432 946 q 594 919 528 946 q 694 835 660 892 q 729 693 729 779 q 693 565 729 621 q 598 479 657 510 q 471 449 539 449 l 481 521 q 628 491 565 521 q 728 404 692 461 q 764 265 764 347 q 684 68 764 136 q 456 0 604 0 l 118 0 m 257 858 l 257 97 l 201 133 l 460 133 q 580 174 538 133 q 622 279 622 215 q 581 389 622 351 q 463 426 540 426 l 201 426 l 201 554 l 436 554 q 549 587 510 554 q 588 682 588 619 q 548 776 588 739 q 436 813 508 813 l 207 813 l 257 858 z "},"C":{"ha":986,"x_min":42,"x_max":951,"o":"m 519 -14 q 269 49 376 -14 q 101 223 161 113 q 42 472 42 333 q 78 667 42 578 q 178 821 114 756 q 330 922 243 886 q 519 958 417 958 q 783 892 681 958 q 951 715 886 826 l 815 675 q 678 794 751 763 q 519 825 606 825 q 348 779 424 825 q 228 654 272 733 q 183 472 183 575 q 228 291 183 371 q 348 165 272 211 q 519 119 424 119 q 678 151 606 119 q 815 269 751 182 l 951 229 q 783 52 886 118 q 519 -14 681 -14 z "},"Ć":{"ha":986,"x_min":42,"x_max":951,"o":"m 519 -14 q 269 49 376 -14 q 101 223 161 113 q 42 472 42 333 q 78 667 42 578 q 178 821 114 756 q 330 922 243 886 q 519 958 417 958 q 783 892 681 958 q 951 715 886 826 l 815 675 q 678 794 751 763 q 519 825 606 825 q 348 779 424 825 q 228 654 272 733 q 183 472 183 575 q 228 291 183 371 q 348 165 272 211 q 519 119 424 119 q 678 151 606 119 q 815 269 751 182 l 951 229 q 783 52 886 118 q 519 -14 681 -14 m 503 1042 l 433 1114 l 644 1308 l 715 1238 l 503 1042 z "},"Č":{"ha":986,"x_min":42,"x_max":951,"o":"m 519 -14 q 269 49 376 -14 q 101 223 161 113 q 42 472 42 333 q 78 667 42 578 q 178 821 114 756 q 330 922 243 886 q 519 958 417 958 q 783 892 681 958 q 951 715 886 826 l 815 675 q 678 794 751 763 q 519 825 606 825 q 348 779 424 825 q 228 654 272 733 q 183 472 183 575 q 228 291 183 371 q 348 165 272 211 q 519 119 424 119 q 678 151 606 119 q 815 269 751 182 l 951 229 q 783 52 886 118 q 519 -14 681 -14 m 517 1043 l 318 1238 l 389 1308 l 560 1135 l 471 1136 l 643 1308 l 714 1238 l 517 1043 z "},"Ç":{"ha":986,"x_min":42,"x_max":951,"o":"m 519 -14 q 269 49 376 -14 q 101 223 161 113 q 42 472 42 333 q 78 667 42 578 q 178 821 114 756 q 330 922 243 886 q 519 958 417 958 q 783 892 681 958 q 951 715 886 826 l 815 675 q 678 794 751 763 q 519 825 606 825 q 348 779 424 825 q 228 654 272 733 q 183 472 183 575 q 228 291 183 371 q 348 165 272 211 q 519 119 424 119 q 678 151 606 119 q 815 269 751 182 l 951 229 q 783 52 886 118 q 519 -14 681 -14 m 515 -282 q 433 -271 469 -282 q 369 -242 397 -260 l 407 -175 q 450 -195 425 -186 q 504 -204 475 -204 q 557 -192 540 -204 q 574 -160 574 -179 q 558 -133 574 -143 q 499 -122 542 -122 l 432 -122 l 458 0 l 544 0 l 526 -96 l 500 -53 q 622 -81 583 -53 q 660 -158 660 -108 q 622 -249 660 -217 q 515 -282 585 -282 z "},"Ċ":{"ha":986,"x_min":42,"x_max":951,"o":"m 519 -14 q 269 49 376 -14 q 101 223 161 113 q 42 472 42 333 q 78 667 42 578 q 178 821 114 756 q 330 922 243 886 q 519 958 417 958 q 783 892 681 958 q 951 715 886 826 l 815 675 q 678 794 751 763 q 519 825 606 825 q 348 779 424 825 q 228 654 272 733 q 183 472 183 575 q 228 291 183 371 q 348 165 272 211 q 519 119 424 119 q 678 151 606 119 q 815 269 751 182 l 951 229 q 783 52 886 118 q 519 -14 681 -14 m 426 1154 q 451 1220 426 1194 q 517 1246 475 1246 q 582 1220 557 1246 q 607 1154 607 1194 q 582 1090 607 1115 q 517 1064 557 1064 q 451 1090 475 1064 q 426 1154 426 1115 z "},"D":{"ha":943,"x_min":118,"x_max":901,"o":"m 118 0 l 118 946 l 429 946 q 672 889 565 946 q 840 726 779 832 q 901 471 901 619 q 840 215 901 319 q 671 55 778 110 q 428 0 564 0 l 118 0 m 257 100 l 215 131 l 421 131 q 590 167 514 131 q 711 279 665 204 q 757 471 757 354 q 712 660 757 583 q 591 776 667 738 q 422 815 515 815 l 206 815 l 257 865 l 257 100 z "},"Ð":{"ha":1001,"x_min":36,"x_max":931,"o":"m 147 0 l 147 946 l 458 946 q 701 889 594 946 q 869 726 808 832 q 931 471 931 619 q 869 215 931 319 q 700 55 807 110 q 457 0 593 0 l 147 0 m 36 408 l 36 536 l 501 536 l 501 408 l 36 408 m 286 100 l 244 131 l 450 131 q 619 167 543 131 q 740 279 694 204 q 786 471 786 354 q 741 660 786 583 q 620 776 696 738 q 451 815 544 815 l 235 815 l 286 865 l 286 100 z "},"Ď":{"ha":943,"x_min":118,"x_max":901,"o":"m 118 0 l 118 946 l 429 946 q 672 889 565 946 q 840 726 779 832 q 901 471 901 619 q 840 215 901 319 q 671 55 778 110 q 428 0 564 0 l 118 0 m 257 100 l 215 131 l 421 131 q 590 167 514 131 q 711 279 665 204 q 757 471 757 354 q 712 660 757 583 q 591 776 667 738 q 422 815 515 815 l 206 815 l 257 865 l 257 100 m 461 1043 l 263 1238 l 333 1308 l 504 1135 l 415 1136 l 588 1308 l 658 1238 l 461 1043 z "},"Đ":{"ha":1001,"x_min":36,"x_max":931,"o":"m 147 0 l 147 946 l 458 946 q 701 889 594 946 q 869 726 808 832 q 931 471 931 619 q 869 215 931 319 q 700 55 807 110 q 457 0 593 0 l 147 0 m 36 408 l 36 536 l 501 536 l 501 408 l 36 408 m 286 100 l 244 131 l 450 131 q 619 167 543 131 q 740 279 694 204 q 786 471 786 354 q 741 660 786 583 q 620 776 696 738 q 451 815 544 815 l 235 815 l 286 865 l 286 100 z "},"E":{"ha":769,"x_min":118,"x_max":693,"o":"m 229 410 l 229 540 l 611 540 l 611 410 l 229 410 m 225 815 l 257 860 l 257 110 l 218 132 l 693 132 l 693 0 l 118 0 l 118 946 l 693 946 l 693 815 l 225 815 z "},"É":{"ha":769,"x_min":118,"x_max":693,"o":"m 229 410 l 229 540 l 611 540 l 611 410 l 229 410 m 225 815 l 257 860 l 257 110 l 218 132 l 693 132 l 693 0 l 118 0 l 118 946 l 693 946 l 693 815 l 225 815 m 392 1042 l 322 1114 l 533 1308 l 604 1238 l 392 1042 z "},"Ě":{"ha":769,"x_min":118,"x_max":693,"o":"m 229 410 l 229 540 l 611 540 l 611 410 l 229 410 m 225 815 l 257 860 l 257 110 l 218 132 l 693 132 l 693 0 l 118 0 l 118 946 l 693 946 l 693 815 l 225 815 m 406 1043 l 207 1238 l 278 1308 l 449 1135 l 360 1136 l 532 1308 l 603 1238 l 406 1043 z "},"Ê":{"ha":769,"x_min":118,"x_max":693,"o":"m 229 410 l 229 540 l 611 540 l 611 410 l 229 410 m 225 815 l 257 860 l 257 110 l 218 132 l 693 132 l 693 0 l 118 0 l 118 946 l 693 946 l 693 815 l 225 815 m 276 1043 l 206 1114 l 403 1308 l 601 1114 l 531 1043 l 360 1217 l 449 1215 l 276 1043 z "},"Ë":{"ha":769,"x_min":118,"x_max":693,"o":"m 229 410 l 229 540 l 611 540 l 611 410 l 229 410 m 225 815 l 257 860 l 257 110 l 218 132 l 693 132 l 693 0 l 118 0 l 118 946 l 693 946 l 693 815 l 225 815 m 183 1144 q 208 1210 183 1185 q 274 1236 232 1236 q 339 1210 314 1236 q 364 1144 364 1185 q 339 1080 364 1106 q 274 1054 314 1054 q 208 1080 232 1054 q 183 1144 183 1106 m 447 1144 q 472 1210 447 1185 q 538 1236 496 1236 q 603 1210 578 1236 q 628 1144 628 1185 q 603 1080 628 1106 q 538 1054 578 1054 q 472 1080 496 1054 q 447 1144 447 1106 z "},"Ė":{"ha":769,"x_min":118,"x_max":693,"o":"m 229 410 l 229 540 l 611 540 l 611 410 l 229 410 m 225 815 l 257 860 l 257 110 l 218 132 l 693 132 l 693 0 l 118 0 l 118 946 l 693 946 l 693 815 l 225 815 m 315 1154 q 340 1220 315 1194 q 406 1246 364 1246 q 471 1220 446 1246 q 496 1154 496 1194 q 471 1090 496 1115 q 406 1064 446 1064 q 340 1090 364 1064 q 315 1154 315 1115 z "},"È":{"ha":769,"x_min":118,"x_max":693,"o":"m 229 410 l 229 540 l 611 540 l 611 410 l 229 410 m 225 815 l 257 860 l 257 110 l 218 132 l 693 132 l 693 0 l 118 0 l 118 946 l 693 946 l 693 815 l 225 815 m 411 1042 l 199 1238 l 269 1308 l 481 1114 l 411 1042 z "},"Ē":{"ha":769,"x_min":118,"x_max":693,"o":"m 229 410 l 229 540 l 611 540 l 611 410 l 229 410 m 225 815 l 257 860 l 257 110 l 218 132 l 693 132 l 693 0 l 118 0 l 118 946 l 693 946 l 693 815 l 225 815 m 594 1079 l 218 1079 l 218 1176 l 594 1176 l 594 1079 z "},"Ę":{"ha":769,"x_min":118,"x_max":704,"o":"m 229 410 l 229 540 l 611 540 l 611 410 l 229 410 m 225 815 l 257 860 l 257 110 l 218 132 l 693 132 l 693 0 l 118 0 l 118 946 l 693 946 l 693 815 l 225 815 m 617 -315 q 517 -287 557 -315 q 476 -190 476 -258 q 510 -83 476 -137 q 597 7 544 -28 l 693 0 q 607 -78 639 -35 q 575 -164 575 -122 q 636 -221 575 -221 q 666 -217 650 -221 q 692 -208 682 -212 l 704 -296 q 668 -309 692 -303 q 617 -315 644 -315 z "},"Ẽ":{"ha":769,"x_min":118,"x_max":693,"o":"m 229 410 l 229 540 l 611 540 l 611 410 l 229 410 m 225 815 l 257 860 l 257 110 l 218 132 l 693 132 l 693 0 l 118 0 l 118 946 l 693 946 l 693 815 l 225 815 m 496 1067 q 389 1106 444 1067 q 350 1130 365 1122 q 318 1138 335 1138 q 249 1075 276 1138 l 156 1121 q 221 1211 183 1179 q 313 1243 258 1243 q 376 1233 346 1243 q 438 1199 406 1222 q 469 1180 454 1188 q 497 1172 483 1172 q 533 1188 521 1172 q 563 1243 546 1203 l 656 1197 q 596 1102 633 1138 q 496 1067 558 1067 z "},"F":{"ha":721,"x_min":118,"x_max":679,"o":"m 229 410 l 229 540 l 597 540 l 597 410 l 229 410 m 257 0 l 118 0 l 118 946 l 679 946 l 679 815 l 225 815 l 257 860 l 257 0 z "},"G":{"ha":1011,"x_min":42,"x_max":983,"o":"m 519 -14 q 269 49 376 -14 q 101 223 161 113 q 42 472 42 333 q 78 667 42 578 q 178 821 114 756 q 330 922 243 886 q 519 958 417 958 q 783 892 681 958 q 951 715 886 826 l 815 675 q 678 794 751 763 q 519 825 606 825 q 348 779 424 825 q 228 654 272 733 q 183 472 183 575 q 228 291 183 371 q 348 165 272 211 q 519 119 424 119 q 687 160 611 119 q 807 272 763 201 q 851 433 851 343 l 872 353 l 511 353 l 511 483 l 975 483 q 981 451 979 469 q 983 417 983 433 q 949 250 983 328 q 851 113 914 172 q 703 19 788 53 q 519 -14 619 -14 z "},"Ğ":{"ha":1011,"x_min":42,"x_max":983,"o":"m 519 -14 q 269 49 376 -14 q 101 223 161 113 q 42 472 42 333 q 78 667 42 578 q 178 821 114 756 q 330 922 243 886 q 519 958 417 958 q 783 892 681 958 q 951 715 886 826 l 815 675 q 678 794 751 763 q 519 825 606 825 q 348 779 424 825 q 228 654 272 733 q 183 472 183 575 q 228 291 183 371 q 348 165 272 211 q 519 119 424 119 q 687 160 611 119 q 807 272 763 201 q 851 433 851 343 l 872 353 l 511 353 l 511 483 l 975 483 q 981 451 979 469 q 983 417 983 433 q 949 250 983 328 q 851 113 914 172 q 703 19 788 53 q 519 -14 619 -14 m 522 1074 q 392 1121 442 1074 q 336 1251 343 1168 l 432 1251 q 455 1183 435 1213 q 522 1154 475 1154 q 590 1183 569 1154 q 614 1251 611 1213 l 710 1251 q 654 1121 704 1168 q 522 1074 604 1074 z "},"Ģ":{"ha":1011,"x_min":42,"x_max":983,"o":"m 519 -14 q 269 49 376 -14 q 101 223 161 113 q 42 472 42 333 q 78 667 42 578 q 178 821 114 756 q 330 922 243 886 q 519 958 417 958 q 783 892 681 958 q 951 715 886 826 l 815 675 q 678 794 751 763 q 519 825 606 825 q 348 779 424 825 q 228 654 272 733 q 183 472 183 575 q 228 291 183 371 q 348 165 272 211 q 519 119 424 119 q 687 160 611 119 q 807 272 763 201 q 851 433 851 343 l 872 353 l 511 353 l 511 483 l 975 483 q 981 451 979 469 q 983 417 983 433 q 949 250 983 328 q 851 113 914 172 q 703 19 788 53 q 519 -14 619 -14 m 429 -406 l 421 -369 q 489 -324 469 -354 q 508 -257 508 -293 q 476 -169 508 -203 q 415 -119 444 -136 q 455 -79 435 -92 q 507 -67 475 -67 q 583 -100 547 -67 q 619 -196 619 -133 q 592 -297 619 -251 q 520 -370 564 -342 q 429 -406 476 -399 z "},"Ġ":{"ha":1011,"x_min":42,"x_max":983,"o":"m 519 -14 q 269 49 376 -14 q 101 223 161 113 q 42 472 42 333 q 78 667 42 578 q 178 821 114 756 q 330 922 243 886 q 519 958 417 958 q 783 892 681 958 q 951 715 886 826 l 815 675 q 678 794 751 763 q 519 825 606 825 q 348 779 424 825 q 228 654 272 733 q 183 472 183 575 q 228 291 183 371 q 348 165 272 211 q 519 119 424 119 q 687 160 611 119 q 807 272 763 201 q 851 433 851 343 l 872 353 l 511 353 l 511 483 l 975 483 q 981 451 979 469 q 983 417 983 433 q 949 250 983 328 q 851 113 914 172 q 703 19 788 53 q 519 -14 619 -14 m 432 1154 q 456 1220 432 1194 q 522 1246 481 1246 q 588 1220 563 1246 q 613 1154 613 1194 q 588 1090 613 1115 q 522 1064 563 1064 q 456 1090 481 1064 q 432 1154 432 1115 z "},"H":{"ha":969,"x_min":118,"x_max":851,"o":"m 713 0 l 713 946 l 851 946 l 851 0 l 713 0 m 118 0 l 118 946 l 257 946 l 257 0 l 118 0 m 210 397 l 210 528 l 754 528 l 754 397 l 210 397 z "},"Ħ":{"ha":969,"x_min":7,"x_max":963,"o":"m 713 0 l 713 946 l 851 946 l 851 0 l 713 0 m 118 0 l 118 946 l 257 946 l 257 0 l 118 0 m 210 397 l 210 528 l 754 528 l 754 397 l 210 397 m 963 699 l 7 699 l 7 807 l 963 807 l 963 699 z "},"I":{"ha":375,"x_min":118,"x_max":257,"o":"m 257 0 l 118 0 l 118 946 l 257 946 l 257 0 z "},"Ĳ":{"ha":1111,"x_min":118,"x_max":1000,"o":"m 257 0 l 118 0 l 118 946 l 257 946 l 257 0 m 719 110 q 823 151 788 110 q 858 263 858 192 l 858 946 l 1000 946 l 1000 263 q 965 114 1000 178 q 867 15 931 50 q 721 -21 804 -21 q 573 11 636 -21 q 475 106 510 43 q 440 258 440 168 l 440 315 l 582 315 l 582 267 q 618 147 582 185 q 719 110 654 110 z "},"Í":{"ha":375,"x_min":104,"x_max":386,"o":"m 257 0 l 118 0 l 118 946 l 257 946 l 257 0 m 174 1042 l 104 1114 l 315 1308 l 386 1238 l 174 1042 z "},"Î":{"ha":375,"x_min":7,"x_max":363,"o":"m 257 0 l 118 0 l 118 946 l 257 946 l 257 0 m 89 1043 l 7 1111 l 185 1310 l 363 1111 l 281 1043 l 143 1206 l 226 1206 l 89 1043 z "},"Ï":{"ha":375,"x_min":-3,"x_max":378,"o":"m 257 0 l 118 0 l 118 946 l 257 946 l 257 0 m 288 1054 q 222 1080 246 1054 q 197 1144 197 1106 q 222 1210 197 1185 q 288 1236 246 1236 q 353 1210 328 1236 q 378 1144 378 1185 q 353 1080 378 1106 q 288 1054 328 1054 m 88 1054 q 22 1080 46 1054 q -3 1144 -3 1106 q 22 1210 -3 1185 q 88 1236 46 1236 q 153 1210 128 1236 q 178 1144 178 1185 q 153 1080 178 1106 q 88 1054 128 1054 z "},"İ":{"ha":375,"x_min":97,"x_max":278,"o":"m 257 0 l 118 0 l 118 946 l 257 946 l 257 0 m 97 1154 q 122 1220 97 1194 q 188 1246 146 1246 q 253 1220 228 1246 q 278 1154 278 1194 q 253 1090 278 1115 q 188 1064 228 1064 q 122 1090 146 1064 q 97 1154 97 1115 z "},"Ì":{"ha":375,"x_min":-19,"x_max":263,"o":"m 257 0 l 118 0 l 118 946 l 257 946 l 257 0 m 193 1042 l -19 1238 l 51 1308 l 263 1114 l 193 1042 z "},"Ī":{"ha":375,"x_min":42,"x_max":335,"o":"m 257 0 l 118 0 l 118 946 l 257 946 l 257 0 m 335 1079 l 42 1079 l 42 1176 l 335 1176 l 335 1079 z "},"Į":{"ha":375,"x_min":40,"x_max":268,"o":"m 257 0 l 118 0 l 118 946 l 257 946 l 257 0 m 181 -315 q 81 -287 121 -315 q 40 -190 40 -258 q 74 -83 40 -137 q 161 7 108 -28 l 257 0 q 171 -78 203 -35 q 139 -164 139 -122 q 200 -221 139 -221 q 230 -217 214 -221 q 256 -208 246 -212 l 268 -296 q 232 -309 256 -303 q 181 -315 208 -315 z "},"J":{"ha":736,"x_min":65,"x_max":625,"o":"m 344 110 q 448 151 413 110 q 483 263 483 192 l 483 946 l 625 946 l 625 263 q 590 114 625 178 q 492 15 556 50 q 346 -21 429 -21 q 198 11 261 -21 q 100 106 135 43 q 65 258 65 168 l 65 315 l 207 315 l 207 267 q 243 147 207 185 q 344 110 279 110 z "},"K":{"ha":849,"x_min":118,"x_max":842,"o":"m 118 0 l 118 946 l 257 946 l 257 0 l 118 0 m 654 0 l 206 464 l 206 479 l 660 946 l 833 946 l 332 431 l 346 513 l 842 0 l 654 0 z "},"Ķ":{"ha":849,"x_min":118,"x_max":842,"o":"m 118 0 l 118 946 l 257 946 l 257 0 l 118 0 m 654 0 l 206 464 l 206 479 l 660 946 l 833 946 l 332 431 l 346 513 l 842 0 l 654 0 m 367 -406 l 358 -369 q 426 -324 407 -354 q 446 -257 446 -293 q 414 -169 446 -203 q 353 -119 382 -136 q 392 -79 372 -92 q 444 -67 413 -67 q 521 -100 485 -67 q 557 -196 557 -133 q 529 -297 557 -251 q 458 -370 501 -342 q 367 -406 414 -399 z "},"L":{"ha":700,"x_min":118,"x_max":665,"o":"m 665 0 l 118 0 l 118 946 l 257 946 l 257 111 l 240 131 l 665 131 l 665 0 z "},"Ĺ":{"ha":700,"x_min":104,"x_max":665,"o":"m 665 0 l 118 0 l 118 946 l 257 946 l 257 111 l 240 131 l 665 131 l 665 0 m 174 1042 l 104 1114 l 315 1308 l 386 1238 l 174 1042 z "},"Ľ":{"ha":700,"x_min":118,"x_max":665,"o":"m 665 0 l 118 0 l 118 946 l 257 946 l 257 111 l 240 131 l 665 131 l 665 0 m 503 946 l 503 868 l 472 671 l 389 671 l 389 946 l 503 946 z "},"Ļ":{"ha":700,"x_min":118,"x_max":665,"o":"m 665 0 l 118 0 l 118 946 l 257 946 l 257 111 l 240 131 l 665 131 l 665 0 m 313 -406 l 304 -369 q 372 -324 353 -354 q 392 -257 392 -293 q 360 -169 392 -203 q 299 -119 328 -136 q 338 -79 318 -92 q 390 -67 358 -67 q 467 -100 431 -67 q 503 -196 503 -133 q 475 -297 503 -251 q 403 -370 447 -342 q 313 -406 360 -399 z "},"Ł":{"ha":699,"x_min":6,"x_max":664,"o":"m 54 350 l 6 435 l 543 692 l 592 607 l 54 350 m 664 0 l 117 0 l 117 946 l 256 946 l 256 111 l 239 131 l 664 131 l 664 0 z "},"M":{"ha":1218,"x_min":50,"x_max":1168,"o":"m 50 0 l 224 946 l 347 946 l 607 256 l 611 256 l 871 946 l 994 946 l 1168 0 l 1022 0 l 946 450 q 918 642 929 547 q 904 833 907 738 l 939 833 q 887 631 914 718 q 825 450 860 543 l 663 15 l 556 15 l 393 450 q 331 631 358 544 q 279 833 304 718 l 314 833 q 300 642 311 738 q 272 450 289 547 l 196 0 l 50 0 z "},"N":{"ha":1026,"x_min":118,"x_max":908,"o":"m 790 0 l 179 793 l 257 815 l 257 0 l 118 0 l 118 946 l 236 946 l 826 181 l 769 181 l 769 946 l 908 946 l 908 0 l 790 0 z "},"Ń":{"ha":1026,"x_min":118,"x_max":908,"o":"m 790 0 l 179 793 l 257 815 l 257 0 l 118 0 l 118 946 l 236 946 l 826 181 l 769 181 l 769 946 l 908 946 l 908 0 l 790 0 m 503 1042 l 433 1114 l 644 1308 l 715 1238 l 503 1042 z "},"Ň":{"ha":1026,"x_min":118,"x_max":908,"o":"m 790 0 l 179 793 l 257 815 l 257 0 l 118 0 l 118 946 l 236 946 l 826 181 l 769 181 l 769 946 l 908 946 l 908 0 l 790 0 m 517 1043 l 318 1238 l 389 1308 l 560 1135 l 471 1136 l 643 1308 l 714 1238 l 517 1043 z "},"Ņ":{"ha":1026,"x_min":118,"x_max":908,"o":"m 790 0 l 179 793 l 257 815 l 257 0 l 118 0 l 118 946 l 236 946 l 826 181 l 769 181 l 769 946 l 908 946 l 908 0 l 790 0 m 426 -406 l 418 -369 q 486 -324 467 -354 q 506 -257 506 -293 q 474 -169 506 -203 q 413 -119 442 -136 q 452 -79 432 -92 q 504 -67 472 -67 q 581 -100 544 -67 q 617 -196 617 -133 q 589 -297 617 -251 q 517 -370 561 -342 q 426 -406 474 -399 z "},"Ñ":{"ha":1026,"x_min":118,"x_max":908,"o":"m 790 0 l 179 793 l 257 815 l 257 0 l 118 0 l 118 946 l 236 946 l 826 181 l 769 181 l 769 946 l 908 946 l 908 0 l 790 0 m 607 1067 q 500 1106 556 1067 q 461 1130 476 1122 q 429 1138 446 1138 q 360 1075 388 1138 l 267 1121 q 332 1211 294 1179 q 424 1243 369 1243 q 487 1233 457 1243 q 549 1199 517 1222 q 580 1180 565 1188 q 608 1172 594 1172 q 644 1188 632 1172 q 674 1243 657 1203 l 767 1197 q 707 1102 744 1138 q 607 1067 669 1067 z "},"Ŋ":{"ha":1026,"x_min":118,"x_max":908,"o":"m 118 0 l 118 946 l 236 946 l 769 254 l 769 946 l 908 946 l 908 -51 q 892 -149 908 -104 q 842 -221 876 -194 q 754 -247 808 -247 q 699 -241 719 -247 q 671 -232 678 -235 l 671 -115 q 689 -119 678 -117 q 714 -122 700 -122 q 756 -104 742 -122 q 769 -56 769 -86 l 769 26 l 257 692 l 257 0 l 118 0 z "},"O":{"ha":1063,"x_min":42,"x_max":1021,"o":"m 42 472 q 78 667 42 578 q 182 821 115 756 q 338 922 249 886 q 533 958 428 958 q 726 922 638 958 q 881 821 815 886 q 984 667 947 756 q 1021 472 1021 578 q 984 279 1021 368 q 881 124 947 190 q 726 22 815 58 q 533 -14 638 -14 q 338 22 428 -14 q 182 124 249 58 q 78 279 115 190 q 42 472 42 368 m 183 472 q 229 291 183 371 q 354 165 275 211 q 533 119 433 119 q 711 165 633 119 q 834 291 789 211 q 879 472 879 371 q 834 654 879 575 q 711 779 789 733 q 533 825 633 825 q 354 779 433 825 q 229 654 275 733 q 183 472 183 575 z "},"Ó":{"ha":1063,"x_min":42,"x_max":1021,"o":"m 42 472 q 78 667 42 578 q 182 821 115 756 q 338 922 249 886 q 533 958 428 958 q 726 922 638 958 q 881 821 815 886 q 984 667 947 756 q 1021 472 1021 578 q 984 279 1021 368 q 881 124 947 190 q 726 22 815 58 q 533 -14 638 -14 q 338 22 428 -14 q 182 124 249 58 q 78 279 115 190 q 42 472 42 368 m 183 472 q 229 291 183 371 q 354 165 275 211 q 533 119 433 119 q 711 165 633 119 q 834 291 789 211 q 879 472 879 371 q 834 654 879 575 q 711 779 789 733 q 533 825 633 825 q 354 779 433 825 q 229 654 275 733 q 183 472 183 575 m 517 1042 l 447 1114 l 658 1308 l 729 1238 l 517 1042 z "},"Ô":{"ha":1063,"x_min":42,"x_max":1021,"o":"m 42 472 q 78 667 42 578 q 182 821 115 756 q 338 922 249 886 q 533 958 428 958 q 726 922 638 958 q 881 821 815 886 q 984 667 947 756 q 1021 472 1021 578 q 984 279 1021 368 q 881 124 947 190 q 726 22 815 58 q 533 -14 638 -14 q 338 22 428 -14 q 182 124 249 58 q 78 279 115 190 q 42 472 42 368 m 183 472 q 229 291 183 371 q 354 165 275 211 q 533 119 433 119 q 711 165 633 119 q 834 291 789 211 q 879 472 879 371 q 834 654 879 575 q 711 779 789 733 q 533 825 633 825 q 354 779 433 825 q 229 654 275 733 q 183 472 183 575 m 401 1043 l 331 1114 l 528 1308 l 726 1114 l 656 1043 l 485 1217 l 574 1215 l 401 1043 z "},"Ö":{"ha":1063,"x_min":42,"x_max":1021,"o":"m 42 472 q 78 667 42 578 q 182 821 115 756 q 338 922 249 886 q 533 958 428 958 q 726 922 638 958 q 881 821 815 886 q 984 667 947 756 q 1021 472 1021 578 q 984 279 1021 368 q 881 124 947 190 q 726 22 815 58 q 533 -14 638 -14 q 338 22 428 -14 q 182 124 249 58 q 78 279 115 190 q 42 472 42 368 m 183 472 q 229 291 183 371 q 354 165 275 211 q 533 119 433 119 q 711 165 633 119 q 834 291 789 211 q 879 472 879 371 q 834 654 879 575 q 711 779 789 733 q 533 825 633 825 q 354 779 433 825 q 229 654 275 733 q 183 472 183 575 m 308 1144 q 333 1210 308 1185 q 399 1236 357 1236 q 464 1210 439 1236 q 489 1144 489 1185 q 464 1080 489 1106 q 399 1054 439 1054 q 333 1080 357 1054 q 308 1144 308 1106 m 572 1144 q 597 1210 572 1185 q 663 1236 621 1236 q 728 1210 703 1236 q 753 1144 753 1185 q 728 1080 753 1106 q 663 1054 703 1054 q 597 1080 621 1054 q 572 1144 572 1106 z "},"Ò":{"ha":1063,"x_min":42,"x_max":1021,"o":"m 42 472 q 78 667 42 578 q 182 821 115 756 q 338 922 249 886 q 533 958 428 958 q 726 922 638 958 q 881 821 815 886 q 984 667 947 756 q 1021 472 1021 578 q 984 279 1021 368 q 881 124 947 190 q 726 22 815 58 q 533 -14 638 -14 q 338 22 428 -14 q 182 124 249 58 q 78 279 115 190 q 42 472 42 368 m 183 472 q 229 291 183 371 q 354 165 275 211 q 533 119 433 119 q 711 165 633 119 q 834 291 789 211 q 879 472 879 371 q 834 654 879 575 q 711 779 789 733 q 533 825 633 825 q 354 779 433 825 q 229 654 275 733 q 183 472 183 575 m 536 1042 l 324 1238 l 394 1308 l 606 1114 l 536 1042 z "},"Ő":{"ha":1063,"x_min":42,"x_max":1021,"o":"m 42 472 q 78 667 42 578 q 182 821 115 756 q 338 922 249 886 q 533 958 428 958 q 726 922 638 958 q 881 821 815 886 q 984 667 947 756 q 1021 472 1021 578 q 984 279 1021 368 q 881 124 947 190 q 726 22 815 58 q 533 -14 638 -14 q 338 22 428 -14 q 182 124 249 58 q 78 279 115 190 q 42 472 42 368 m 183 472 q 229 291 183 371 q 354 165 275 211 q 533 119 433 119 q 711 165 633 119 q 834 291 789 211 q 879 472 879 371 q 834 654 879 575 q 711 779 789 733 q 533 825 633 825 q 354 779 433 825 q 229 654 275 733 q 183 472 183 575 m 458 1033 l 368 1072 l 481 1319 l 574 1283 l 458 1033 m 651 1033 l 561 1072 l 674 1319 l 767 1283 l 651 1033 z "},"Ō":{"ha":1063,"x_min":42,"x_max":1021,"o":"m 42 472 q 78 667 42 578 q 182 821 115 756 q 338 922 249 886 q 533 958 428 958 q 726 922 638 958 q 881 821 815 886 q 984 667 947 756 q 1021 472 1021 578 q 984 279 1021 368 q 881 124 947 190 q 726 22 815 58 q 533 -14 638 -14 q 338 22 428 -14 q 182 124 249 58 q 78 279 115 190 q 42 472 42 368 m 183 472 q 229 291 183 371 q 354 165 275 211 q 533 119 433 119 q 711 165 633 119 q 834 291 789 211 q 879 472 879 371 q 834 654 879 575 q 711 779 789 733 q 533 825 633 825 q 354 779 433 825 q 229 654 275 733 q 183 472 183 575 m 719 1079 l 343 1079 l 343 1176 l 719 1176 l 719 1079 z "},"Ø":{"ha":1063,"x_min":42,"x_max":1021,"o":"m 967 933 l 174 -60 l 76 11 l 872 1006 l 967 933 m 42 472 q 78 667 42 578 q 182 821 115 756 q 338 922 249 886 q 533 958 428 958 q 726 922 638 958 q 881 821 815 886 q 984 667 947 756 q 1021 472 1021 578 q 984 279 1021 368 q 881 124 947 190 q 726 22 815 58 q 533 -14 638 -14 q 338 22 428 -14 q 182 124 249 58 q 78 279 115 190 q 42 472 42 368 m 183 472 q 229 291 183 371 q 354 165 275 211 q 533 119 433 119 q 711 165 633 119 q 834 291 789 211 q 879 472 879 371 q 834 654 879 575 q 711 779 789 733 q 533 825 633 825 q 354 779 433 825 q 229 654 275 733 q 183 472 183 575 z "},"Õ":{"ha":1063,"x_min":42,"x_max":1021,"o":"m 42 472 q 78 667 42 578 q 182 821 115 756 q 338 922 249 886 q 533 958 428 958 q 726 922 638 958 q 881 821 815 886 q 984 667 947 756 q 1021 472 1021 578 q 984 279 1021 368 q 881 124 947 190 q 726 22 815 58 q 533 -14 638 -14 q 338 22 428 -14 q 182 124 249 58 q 78 279 115 190 q 42 472 42 368 m 183 472 q 229 291 183 371 q 354 165 275 211 q 533 119 433 119 q 711 165 633 119 q 834 291 789 211 q 879 472 879 371 q 834 654 879 575 q 711 779 789 733 q 533 825 633 825 q 354 779 433 825 q 229 654 275 733 q 183 472 183 575 m 621 1067 q 514 1106 569 1067 q 475 1130 490 1122 q 443 1138 460 1138 q 374 1075 401 1138 l 281 1121 q 346 1211 308 1179 q 438 1243 383 1243 q 501 1233 471 1243 q 563 1199 531 1222 q 594 1180 579 1188 q 622 1172 608 1172 q 658 1188 646 1172 q 688 1243 671 1203 l 781 1197 q 721 1102 758 1138 q 621 1067 683 1067 z "},"Œ":{"ha":1447,"x_min":42,"x_max":1371,"o":"m 478 -14 q 305 22 385 -14 q 166 124 225 58 q 74 279 107 190 q 42 472 42 368 q 74 667 42 578 q 166 822 107 756 q 305 924 225 888 q 478 960 385 960 q 649 924 571 960 q 786 822 728 888 q 877 667 844 756 q 910 472 910 578 q 877 279 910 368 q 786 124 844 190 q 649 22 728 58 q 478 -14 571 -14 m 492 119 q 655 165 583 119 q 768 291 726 211 q 810 472 810 371 q 768 655 810 575 q 655 781 726 735 q 492 826 583 826 q 334 781 404 826 q 224 655 264 735 q 183 472 183 575 q 224 291 183 371 q 334 165 264 211 q 492 119 404 119 m 815 0 l 815 946 l 1371 946 l 1371 815 l 917 815 l 949 860 l 949 108 l 910 131 l 1371 131 l 1371 0 l 815 0 m 921 410 l 921 540 l 1289 540 l 1289 410 l 921 410 z "},"P":{"ha":817,"x_min":118,"x_max":775,"o":"m 232 436 l 428 436 q 575 486 519 436 q 631 625 631 536 q 576 767 631 719 q 429 815 521 815 l 232 815 l 257 847 l 257 0 l 118 0 l 118 946 l 453 946 q 622 903 550 946 q 735 788 694 860 q 775 625 775 715 q 735 463 775 536 q 622 348 694 390 q 451 306 549 306 l 232 306 l 232 436 z "},"Þ":{"ha":817,"x_min":118,"x_max":775,"o":"m 118 0 l 118 946 l 257 946 l 257 0 l 118 0 m 232 153 l 232 283 l 428 283 q 575 333 519 283 q 631 472 631 383 q 575 614 631 567 q 428 661 519 661 l 231 661 l 231 792 l 451 792 q 622 749 549 792 q 735 633 694 706 q 775 472 775 561 q 735 310 775 383 q 622 195 694 238 q 451 153 549 153 l 232 153 z "},"Q":{"ha":1063,"x_min":42,"x_max":1021,"o":"m 832 -56 l 567 393 l 713 393 l 978 -56 l 832 -56 m 42 472 q 78 667 42 578 q 182 821 115 756 q 338 922 249 886 q 533 958 428 958 q 726 922 638 958 q 881 821 815 886 q 984 667 947 756 q 1021 472 1021 578 q 984 279 1021 368 q 881 124 947 190 q 726 22 815 58 q 533 -14 638 -14 q 338 22 428 -14 q 182 124 249 58 q 78 279 115 190 q 42 472 42 368 m 183 472 q 229 291 183 371 q 354 165 275 211 q 533 119 433 119 q 711 165 633 119 q 834 291 789 211 q 879 472 879 371 q 834 654 879 575 q 711 779 789 733 q 533 825 633 825 q 354 779 433 825 q 229 654 275 733 q 183 472 183 575 z "},"R":{"ha":861,"x_min":118,"x_max":799,"o":"m 118 0 l 118 946 l 465 946 q 635 905 563 946 q 749 794 708 864 q 789 639 789 725 q 749 483 789 553 q 635 374 708 414 q 465 333 563 333 l 232 333 l 232 464 l 442 464 q 589 510 533 464 q 644 639 644 557 q 589 771 644 726 q 442 815 533 815 l 231 815 l 257 847 l 257 0 l 118 0 m 646 0 l 425 393 l 578 393 l 799 0 l 646 0 z "},"Ŕ":{"ha":861,"x_min":118,"x_max":799,"o":"m 118 0 l 118 946 l 465 946 q 635 905 563 946 q 749 794 708 864 q 789 639 789 725 q 749 483 789 553 q 635 374 708 414 q 465 333 563 333 l 232 333 l 232 464 l 442 464 q 589 510 533 464 q 644 639 644 557 q 589 771 644 726 q 442 815 533 815 l 231 815 l 257 847 l 257 0 l 118 0 m 646 0 l 425 393 l 578 393 l 799 0 l 646 0 m 415 1042 l 346 1114 l 557 1308 l 628 1238 l 415 1042 z "},"Ř":{"ha":861,"x_min":118,"x_max":799,"o":"m 118 0 l 118 946 l 465 946 q 635 905 563 946 q 749 794 708 864 q 789 639 789 725 q 749 483 789 553 q 635 374 708 414 q 465 333 563 333 l 232 333 l 232 464 l 442 464 q 589 510 533 464 q 644 639 644 557 q 589 771 644 726 q 442 815 533 815 l 231 815 l 257 847 l 257 0 l 118 0 m 646 0 l 425 393 l 578 393 l 799 0 l 646 0 m 429 1043 l 231 1238 l 301 1308 l 472 1135 l 383 1136 l 556 1308 l 626 1238 l 429 1043 z "},"Ŗ":{"ha":861,"x_min":118,"x_max":799,"o":"m 118 0 l 118 946 l 465 946 q 635 905 563 946 q 749 794 708 864 q 789 639 789 725 q 749 483 789 553 q 635 374 708 414 q 465 333 563 333 l 232 333 l 232 464 l 442 464 q 589 510 533 464 q 644 639 644 557 q 589 771 644 726 q 442 815 533 815 l 231 815 l 257 847 l 257 0 l 118 0 m 646 0 l 425 393 l 578 393 l 799 0 l 646 0 m 356 -406 l 347 -369 q 415 -324 396 -354 q 435 -257 435 -293 q 403 -169 435 -203 q 342 -119 371 -136 q 381 -79 361 -92 q 433 -67 401 -67 q 510 -100 474 -67 q 546 -196 546 -133 q 518 -297 546 -251 q 447 -370 490 -342 q 356 -406 403 -399 z "},"S":{"ha":771,"x_min":46,"x_max":725,"o":"m 410 -21 q 267 1 336 -21 q 142 74 199 24 q 46 213 85 125 l 161 278 q 268 151 210 190 q 414 113 326 113 q 542 150 499 113 q 586 253 586 188 q 567 321 586 292 q 501 375 549 350 q 368 421 454 400 q 199 490 260 449 q 115 584 139 531 q 92 700 92 638 q 128 835 92 778 q 232 926 164 893 q 393 958 300 958 q 576 916 504 958 q 699 800 649 874 l 582 725 q 492 801 539 778 q 393 824 446 824 q 270 792 313 824 q 228 700 228 760 q 267 611 228 649 q 422 546 307 574 q 605 477 539 517 q 698 383 671 438 q 725 251 725 328 q 686 114 725 175 q 576 16 647 53 q 410 -21 506 -21 z "},"Ś":{"ha":771,"x_min":46,"x_max":725,"o":"m 410 -21 q 267 1 336 -21 q 142 74 199 24 q 46 213 85 125 l 161 278 q 268 151 210 190 q 414 113 326 113 q 542 150 499 113 q 586 253 586 188 q 567 321 586 292 q 501 375 549 350 q 368 421 454 400 q 199 490 260 449 q 115 584 139 531 q 92 700 92 638 q 128 835 92 778 q 232 926 164 893 q 393 958 300 958 q 576 916 504 958 q 699 800 649 874 l 582 725 q 492 801 539 778 q 393 824 446 824 q 270 792 313 824 q 228 700 228 760 q 267 611 228 649 q 422 546 307 574 q 605 477 539 517 q 698 383 671 438 q 725 251 725 328 q 686 114 725 175 q 576 16 647 53 q 410 -21 506 -21 m 383 1042 l 314 1114 l 525 1308 l 596 1238 l 383 1042 z "},"Š":{"ha":771,"x_min":46,"x_max":725,"o":"m 410 -21 q 267 1 336 -21 q 142 74 199 24 q 46 213 85 125 l 161 278 q 268 151 210 190 q 414 113 326 113 q 542 150 499 113 q 586 253 586 188 q 567 321 586 292 q 501 375 549 350 q 368 421 454 400 q 199 490 260 449 q 115 584 139 531 q 92 700 92 638 q 128 835 92 778 q 232 926 164 893 q 393 958 300 958 q 576 916 504 958 q 699 800 649 874 l 582 725 q 492 801 539 778 q 393 824 446 824 q 270 792 313 824 q 228 700 228 760 q 267 611 228 649 q 422 546 307 574 q 605 477 539 517 q 698 383 671 438 q 725 251 725 328 q 686 114 725 175 q 576 16 647 53 q 410 -21 506 -21 m 397 1043 l 199 1238 l 269 1308 l 440 1135 l 351 1136 l 524 1308 l 594 1238 l 397 1043 z "},"Ş":{"ha":771,"x_min":46,"x_max":725,"o":"m 410 -21 q 267 1 336 -21 q 142 74 199 24 q 46 213 85 125 l 161 278 q 268 151 210 190 q 414 113 326 113 q 542 150 499 113 q 586 253 586 188 q 567 321 586 292 q 501 375 549 350 q 368 421 454 400 q 199 490 260 449 q 115 584 139 531 q 92 700 92 638 q 128 835 92 778 q 232 926 164 893 q 393 958 300 958 q 576 916 504 958 q 699 800 649 874 l 582 725 q 492 801 539 778 q 393 824 446 824 q 270 792 313 824 q 228 700 228 760 q 267 611 228 649 q 422 546 307 574 q 605 477 539 517 q 698 383 671 438 q 725 251 725 328 q 686 114 725 175 q 576 16 647 53 q 410 -21 506 -21 m 407 -282 q 325 -271 361 -282 q 261 -242 289 -260 l 299 -175 q 342 -195 317 -186 q 396 -204 367 -204 q 449 -192 432 -204 q 465 -160 465 -179 q 449 -133 465 -143 q 390 -122 433 -122 l 324 -122 l 350 0 l 436 0 l 418 -96 l 392 -53 q 513 -81 475 -53 q 551 -158 551 -108 q 514 -249 551 -217 q 407 -282 476 -282 z "},"Ș":{"ha":771,"x_min":46,"x_max":725,"o":"m 410 -21 q 267 1 336 -21 q 142 74 199 24 q 46 213 85 125 l 161 278 q 268 151 210 190 q 414 113 326 113 q 542 150 499 113 q 586 253 586 188 q 567 321 586 292 q 501 375 549 350 q 368 421 454 400 q 199 490 260 449 q 115 584 139 531 q 92 700 92 638 q 128 835 92 778 q 232 926 164 893 q 393 958 300 958 q 576 916 504 958 q 699 800 649 874 l 582 725 q 492 801 539 778 q 393 824 446 824 q 270 792 313 824 q 228 700 228 760 q 267 611 228 649 q 422 546 307 574 q 605 477 539 517 q 698 383 671 438 q 725 251 725 328 q 686 114 725 175 q 576 16 647 53 q 410 -21 506 -21 m 318 -406 l 310 -369 q 378 -324 358 -354 q 397 -257 397 -293 q 365 -169 397 -203 q 304 -119 333 -136 q 344 -79 324 -92 q 396 -67 364 -67 q 472 -100 436 -67 q 508 -196 508 -133 q 481 -297 508 -251 q 409 -370 453 -342 q 318 -406 365 -399 z "},"ẞ":{"ha":968,"x_min":124,"x_max":908,"o":"m 421 197 q 508 134 461 156 q 606 113 556 113 q 718 150 678 113 q 758 240 758 188 q 704 351 758 306 q 533 442 650 397 l 460 469 l 726 822 l 732 700 q 637 788 703 749 q 493 826 571 826 q 376 803 429 826 q 293 726 324 781 q 263 579 263 672 l 263 0 l 124 0 l 124 610 q 218 864 124 769 q 493 958 313 958 q 696 911 601 958 q 865 774 790 864 l 625 458 l 621 551 q 843 417 778 496 q 908 240 908 338 q 872 103 908 163 q 768 12 836 44 q 606 -21 700 -21 q 443 17 521 -21 q 322 111 365 56 l 421 197 z "},"T":{"ha":772,"x_min":14,"x_max":758,"o":"m 310 0 l 310 842 l 449 842 l 449 0 l 310 0 m 14 815 l 14 946 l 758 946 l 758 815 l 14 815 z "},"Ť":{"ha":772,"x_min":14,"x_max":758,"o":"m 310 0 l 310 842 l 449 842 l 449 0 l 310 0 m 14 815 l 14 946 l 758 946 l 758 815 l 14 815 m 379 1043 l 181 1238 l 251 1308 l 422 1135 l 333 1136 l 506 1308 l 576 1238 l 379 1043 z "},"Ț":{"ha":772,"x_min":14,"x_max":758,"o":"m 310 0 l 310 842 l 449 842 l 449 0 l 310 0 m 14 815 l 14 946 l 758 946 l 758 815 l 14 815 m 289 -406 l 281 -369 q 349 -324 329 -354 q 368 -257 368 -293 q 336 -169 368 -203 q 275 -119 304 -136 q 315 -79 294 -92 q 367 -67 335 -67 q 443 -100 407 -67 q 479 -196 479 -133 q 451 -297 479 -251 q 380 -370 424 -342 q 289 -406 336 -399 z "},"U":{"ha":956,"x_min":111,"x_max":844,"o":"m 478 -14 q 288 28 371 -14 q 158 152 206 69 q 111 356 111 235 l 111 946 l 250 946 l 250 376 q 309 187 250 254 q 478 119 368 119 q 647 187 589 119 q 706 376 706 254 l 706 946 l 844 946 l 844 356 q 797 152 844 235 q 667 28 750 69 q 478 -14 585 -14 z "},"Ú":{"ha":956,"x_min":111,"x_max":844,"o":"m 478 -14 q 288 28 371 -14 q 158 152 206 69 q 111 356 111 235 l 111 946 l 250 946 l 250 376 q 309 187 250 254 q 478 119 368 119 q 647 187 589 119 q 706 376 706 254 l 706 946 l 844 946 l 844 356 q 797 152 844 235 q 667 28 750 69 q 478 -14 585 -14 m 464 1042 l 394 1114 l 606 1308 l 676 1238 l 464 1042 z "},"Ŭ":{"ha":956,"x_min":111,"x_max":844,"o":"m 478 -14 q 288 28 371 -14 q 158 152 206 69 q 111 356 111 235 l 111 946 l 250 946 l 250 376 q 309 187 250 254 q 478 119 368 119 q 647 187 589 119 q 706 376 706 254 l 706 946 l 844 946 l 844 356 q 797 152 844 235 q 667 28 750 69 q 478 -14 585 -14 m 478 1074 q 348 1121 397 1074 q 292 1251 299 1168 l 388 1251 q 410 1183 390 1213 q 478 1154 431 1154 q 546 1183 525 1154 q 569 1251 567 1213 l 665 1251 q 610 1121 660 1168 q 478 1074 560 1074 z "},"Û":{"ha":956,"x_min":111,"x_max":844,"o":"m 478 -14 q 288 28 371 -14 q 158 152 206 69 q 111 356 111 235 l 111 946 l 250 946 l 250 376 q 309 187 250 254 q 478 119 368 119 q 647 187 589 119 q 706 376 706 254 l 706 946 l 844 946 l 844 356 q 797 152 844 235 q 667 28 750 69 q 478 -14 585 -14 m 349 1043 l 278 1114 l 475 1308 l 674 1114 l 603 1043 l 432 1217 l 521 1215 l 349 1043 z "},"Ü":{"ha":956,"x_min":111,"x_max":844,"o":"m 478 -14 q 288 28 371 -14 q 158 152 206 69 q 111 356 111 235 l 111 946 l 250 946 l 250 376 q 309 187 250 254 q 478 119 368 119 q 647 187 589 119 q 706 376 706 254 l 706 946 l 844 946 l 844 356 q 797 152 844 235 q 667 28 750 69 q 478 -14 585 -14 m 256 1144 q 280 1210 256 1185 q 346 1236 304 1236 q 411 1210 386 1236 q 436 1144 436 1185 q 411 1080 436 1106 q 346 1054 386 1054 q 280 1080 304 1054 q 256 1144 256 1106 m 519 1144 q 544 1210 519 1185 q 610 1236 568 1236 q 675 1210 650 1236 q 700 1144 700 1185 q 675 1080 700 1106 q 610 1054 650 1054 q 544 1080 568 1054 q 519 1144 519 1106 z "},"Ù":{"ha":956,"x_min":111,"x_max":844,"o":"m 478 -14 q 288 28 371 -14 q 158 152 206 69 q 111 356 111 235 l 111 946 l 250 946 l 250 376 q 309 187 250 254 q 478 119 368 119 q 647 187 589 119 q 706 376 706 254 l 706 946 l 844 946 l 844 356 q 797 152 844 235 q 667 28 750 69 q 478 -14 585 -14 m 483 1042 l 271 1238 l 342 1308 l 553 1114 l 483 1042 z "},"Ű":{"ha":956,"x_min":111,"x_max":844,"o":"m 478 -14 q 288 28 371 -14 q 158 152 206 69 q 111 356 111 235 l 111 946 l 250 946 l 250 376 q 309 187 250 254 q 478 119 368 119 q 647 187 589 119 q 706 376 706 254 l 706 946 l 844 946 l 844 356 q 797 152 844 235 q 667 28 750 69 q 478 -14 585 -14 m 406 1033 l 315 1072 l 428 1319 l 521 1283 l 406 1033 m 599 1033 l 508 1072 l 621 1319 l 714 1283 l 599 1033 z "},"Ū":{"ha":956,"x_min":111,"x_max":844,"o":"m 478 -14 q 288 28 371 -14 q 158 152 206 69 q 111 356 111 235 l 111 946 l 250 946 l 250 376 q 309 187 250 254 q 478 119 368 119 q 647 187 589 119 q 706 376 706 254 l 706 946 l 844 946 l 844 356 q 797 152 844 235 q 667 28 750 69 q 478 -14 585 -14 m 667 1079 l 290 1079 l 290 1176 l 667 1176 l 667 1079 z "},"Ų":{"ha":956,"x_min":111,"x_max":844,"o":"m 464 -14 q 281 31 361 -11 q 156 156 201 74 q 111 356 111 238 l 111 946 l 250 946 l 250 376 q 309 187 250 254 q 478 119 368 119 q 647 187 589 119 q 706 376 706 254 l 706 946 l 844 946 l 844 356 q 773 115 844 206 q 583 -3 701 25 q 501 -81 532 -37 q 469 -164 469 -124 q 531 -221 469 -221 q 560 -217 544 -221 q 586 -208 576 -212 l 599 -296 q 563 -309 586 -303 q 511 -315 539 -315 q 411 -287 451 -315 q 371 -190 371 -258 q 397 -97 371 -144 q 464 -14 422 -49 z "},"Ů":{"ha":956,"x_min":111,"x_max":844,"o":"m 478 -14 q 288 28 371 -14 q 158 152 206 69 q 111 356 111 235 l 111 946 l 250 946 l 250 376 q 309 187 250 254 q 478 119 368 119 q 647 187 589 119 q 706 376 706 254 l 706 946 l 844 946 l 844 356 q 797 152 844 235 q 667 28 750 69 q 478 -14 585 -14 m 478 1044 q 403 1063 438 1044 q 349 1115 369 1082 q 329 1188 329 1147 q 349 1263 329 1229 q 403 1315 369 1296 q 478 1333 438 1333 q 553 1315 519 1333 q 606 1263 586 1296 q 626 1188 626 1229 q 606 1115 626 1147 q 553 1063 586 1082 q 478 1044 519 1044 m 476 1135 q 515 1150 500 1135 q 531 1188 531 1165 q 515 1226 531 1211 q 476 1242 500 1242 q 439 1226 454 1242 q 424 1188 424 1211 q 439 1150 424 1165 q 476 1135 454 1135 z "},"V":{"ha":892,"x_min":14,"x_max":878,"o":"m 351 0 l 14 946 l 156 946 l 458 97 l 433 97 l 736 946 l 878 946 l 540 0 l 351 0 z "},"W":{"ha":1342,"x_min":28,"x_max":1314,"o":"m 894 0 l 635 843 l 603 946 l 739 946 l 1004 69 l 943 83 l 1174 946 l 1314 946 l 1057 0 l 894 0 m 285 0 l 28 946 l 168 946 l 399 83 l 338 69 l 603 946 l 739 946 l 707 843 l 447 0 l 285 0 z "},"Ẃ":{"ha":1342,"x_min":28,"x_max":1314,"o":"m 894 0 l 635 843 l 603 946 l 739 946 l 1004 69 l 943 83 l 1174 946 l 1314 946 l 1057 0 l 894 0 m 285 0 l 28 946 l 168 946 l 399 83 l 338 69 l 603 946 l 739 946 l 707 843 l 447 0 l 285 0 m 657 1042 l 588 1114 l 799 1308 l 869 1238 l 657 1042 z "},"Ŵ":{"ha":1342,"x_min":28,"x_max":1314,"o":"m 894 0 l 635 843 l 603 946 l 739 946 l 1004 69 l 943 83 l 1174 946 l 1314 946 l 1057 0 l 894 0 m 285 0 l 28 946 l 168 946 l 399 83 l 338 69 l 603 946 l 739 946 l 707 843 l 447 0 l 285 0 m 542 1043 l 471 1114 l 668 1308 l 867 1114 l 796 1043 l 625 1217 l 714 1215 l 542 1043 z "},"Ẅ":{"ha":1342,"x_min":28,"x_max":1314,"o":"m 894 0 l 635 843 l 603 946 l 739 946 l 1004 69 l 943 83 l 1174 946 l 1314 946 l 1057 0 l 894 0 m 285 0 l 28 946 l 168 946 l 399 83 l 338 69 l 603 946 l 739 946 l 707 843 l 447 0 l 285 0 m 449 1144 q 473 1210 449 1185 q 539 1236 497 1236 q 604 1210 579 1236 q 629 1144 629 1185 q 604 1080 629 1106 q 539 1054 579 1054 q 473 1080 497 1054 q 449 1144 449 1106 m 713 1144 q 737 1210 713 1185 q 803 1236 761 1236 q 868 1210 843 1236 q 893 1144 893 1185 q 868 1080 893 1106 q 803 1054 843 1054 q 737 1080 761 1054 q 713 1144 713 1106 z "},"Ẁ":{"ha":1342,"x_min":28,"x_max":1314,"o":"m 894 0 l 635 843 l 603 946 l 739 946 l 1004 69 l 943 83 l 1174 946 l 1314 946 l 1057 0 l 894 0 m 285 0 l 28 946 l 168 946 l 399 83 l 338 69 l 603 946 l 739 946 l 707 843 l 447 0 l 285 0 m 676 1042 l 464 1238 l 535 1308 l 746 1114 l 676 1042 z "},"X":{"ha":890,"x_min":14,"x_max":876,"o":"m 193 946 l 467 549 l 436 549 l 711 946 l 876 946 l 522 453 l 496 519 l 876 0 l 711 0 l 410 424 l 474 424 l 179 0 l 14 0 l 388 519 l 381 453 l 28 946 l 193 946 z "},"Y":{"ha":768,"x_min":0,"x_max":768,"o":"m 426 400 l 338 400 l 613 946 l 768 946 l 432 310 l 453 429 l 453 0 l 314 0 l 314 429 l 333 310 l 0 946 l 154 946 l 426 400 z "},"Ý":{"ha":768,"x_min":0,"x_max":768,"o":"m 426 400 l 338 400 l 613 946 l 768 946 l 432 310 l 453 429 l 453 0 l 314 0 l 314 429 l 333 310 l 0 946 l 154 946 l 426 400 m 369 1042 l 300 1114 l 511 1308 l 582 1238 l 369 1042 z "},"Ŷ":{"ha":768,"x_min":0,"x_max":768,"o":"m 426 400 l 338 400 l 613 946 l 768 946 l 432 310 l 453 429 l 453 0 l 314 0 l 314 429 l 333 310 l 0 946 l 154 946 l 426 400 m 254 1043 l 183 1114 l 381 1308 l 579 1114 l 508 1043 l 338 1217 l 426 1215 l 254 1043 z "},"Ÿ":{"ha":768,"x_min":0,"x_max":768,"o":"m 426 400 l 338 400 l 613 946 l 768 946 l 432 310 l 453 429 l 453 0 l 314 0 l 314 429 l 333 310 l 0 946 l 154 946 l 426 400 m 161 1144 q 185 1210 161 1185 q 251 1236 210 1236 q 317 1210 292 1236 q 342 1144 342 1185 q 317 1080 342 1106 q 251 1054 292 1054 q 185 1080 210 1054 q 161 1144 161 1106 m 425 1144 q 449 1210 425 1185 q 515 1236 474 1236 q 581 1210 556 1236 q 606 1144 606 1185 q 581 1080 606 1106 q 515 1054 556 1054 q 449 1080 474 1054 q 425 1144 425 1106 z "},"Ỳ":{"ha":768,"x_min":0,"x_max":768,"o":"m 426 400 l 338 400 l 613 946 l 768 946 l 432 310 l 453 429 l 453 0 l 314 0 l 314 429 l 333 310 l 0 946 l 154 946 l 426 400 m 389 1042 l 176 1238 l 247 1308 l 458 1114 l 389 1042 z "},"Z":{"ha":774,"x_min":69,"x_max":718,"o":"m 576 854 l 576 815 l 81 815 l 81 946 l 711 946 l 711 826 l 207 89 l 203 131 l 718 131 l 718 0 l 69 0 l 69 121 l 576 854 z "},"Ź":{"ha":774,"x_min":69,"x_max":718,"o":"m 576 854 l 576 815 l 81 815 l 81 946 l 711 946 l 711 826 l 207 89 l 203 131 l 718 131 l 718 0 l 69 0 l 69 121 l 576 854 m 390 1042 l 321 1114 l 532 1308 l 603 1238 l 390 1042 z "},"Ž":{"ha":774,"x_min":69,"x_max":718,"o":"m 576 854 l 576 815 l 81 815 l 81 946 l 711 946 l 711 826 l 207 89 l 203 131 l 718 131 l 718 0 l 69 0 l 69 121 l 576 854 m 404 1043 l 206 1238 l 276 1308 l 447 1135 l 358 1136 l 531 1308 l 601 1238 l 404 1043 z "},"Ż":{"ha":774,"x_min":69,"x_max":718,"o":"m 576 854 l 576 815 l 81 815 l 81 946 l 711 946 l 711 826 l 207 89 l 203 131 l 718 131 l 718 0 l 69 0 l 69 121 l 576 854 m 314 1154 q 338 1220 314 1194 q 404 1246 363 1246 q 469 1220 444 1246 q 494 1154 494 1194 q 469 1090 494 1115 q 404 1064 444 1064 q 338 1090 363 1064 q 314 1154 314 1115 z "},"a":{"ha":683,"x_min":47,"x_max":600,"o":"m 300 -19 q 164 8 221 -19 q 77 88 107 36 q 47 213 47 140 q 78 331 47 279 q 165 414 108 383 q 300 444 222 444 q 456 401 397 444 q 539 281 515 357 l 461 281 l 461 454 q 432 533 461 497 q 329 569 403 569 q 244 560 290 569 q 147 529 197 551 l 106 636 q 224 678 163 664 q 343 692 285 692 q 488 660 431 692 q 572 574 544 628 q 600 454 600 521 l 600 0 l 500 0 l 465 124 l 539 144 q 450 22 514 63 q 300 -19 386 -19 m 325 104 q 424 133 386 104 q 461 213 461 161 q 424 293 461 265 q 325 321 386 321 q 226 293 264 321 q 189 213 189 265 q 226 133 189 161 q 325 104 264 104 z "},"á":{"ha":683,"x_min":47,"x_max":600,"o":"m 300 -19 q 164 8 221 -19 q 77 88 107 36 q 47 213 47 140 q 78 331 47 279 q 165 414 108 383 q 300 444 222 444 q 456 401 397 444 q 539 281 515 357 l 461 281 l 461 454 q 432 533 461 497 q 329 569 403 569 q 244 560 290 569 q 147 529 197 551 l 106 636 q 224 678 163 664 q 343 692 285 692 q 488 660 431 692 q 572 574 544 628 q 600 454 600 521 l 600 0 l 500 0 l 465 124 l 539 144 q 450 22 514 63 q 300 -19 386 -19 m 325 104 q 424 133 386 104 q 461 213 461 161 q 424 293 461 265 q 325 321 386 321 q 226 293 264 321 q 189 213 189 265 q 226 133 189 161 q 325 104 264 104 m 324 774 l 254 846 l 465 1040 l 536 969 l 324 774 z "},"ă":{"ha":683,"x_min":47,"x_max":600,"o":"m 300 -19 q 164 8 221 -19 q 77 88 107 36 q 47 213 47 140 q 78 331 47 279 q 165 414 108 383 q 300 444 222 444 q 456 401 397 444 q 539 281 515 357 l 461 281 l 461 454 q 432 533 461 497 q 329 569 403 569 q 244 560 290 569 q 147 529 197 551 l 106 636 q 224 678 163 664 q 343 692 285 692 q 488 660 431 692 q 572 574 544 628 q 600 454 600 521 l 600 0 l 500 0 l 465 124 l 539 144 q 450 22 514 63 q 300 -19 386 -19 m 325 104 q 424 133 386 104 q 461 213 461 161 q 424 293 461 265 q 325 321 386 321 q 226 293 264 321 q 189 213 189 265 q 226 133 189 161 q 325 104 264 104 m 338 806 q 208 853 257 806 q 151 983 158 900 l 247 983 q 270 915 250 944 q 338 886 290 886 q 406 915 385 886 q 429 983 426 944 l 525 983 q 469 853 519 900 q 338 806 419 806 z "},"ǎ":{"ha":683,"x_min":47,"x_max":600,"o":"m 300 -19 q 164 8 221 -19 q 77 88 107 36 q 47 213 47 140 q 78 331 47 279 q 165 414 108 383 q 300 444 222 444 q 456 401 397 444 q 539 281 515 357 l 461 281 l 461 454 q 432 533 461 497 q 329 569 403 569 q 244 560 290 569 q 147 529 197 551 l 106 636 q 224 678 163 664 q 343 692 285 692 q 488 660 431 692 q 572 574 544 628 q 600 454 600 521 l 600 0 l 500 0 l 465 124 l 539 144 q 450 22 514 63 q 300 -19 386 -19 m 325 104 q 424 133 386 104 q 461 213 461 161 q 424 293 461 265 q 325 321 386 321 q 226 293 264 321 q 189 213 189 265 q 226 133 189 161 q 325 104 264 104 m 338 775 l 139 969 l 210 1040 l 381 867 l 292 868 l 464 1040 l 535 969 l 338 775 z "},"â":{"ha":683,"x_min":47,"x_max":600,"o":"m 300 -19 q 164 8 221 -19 q 77 88 107 36 q 47 213 47 140 q 78 331 47 279 q 165 414 108 383 q 300 444 222 444 q 456 401 397 444 q 539 281 515 357 l 461 281 l 461 454 q 432 533 461 497 q 329 569 403 569 q 244 560 290 569 q 147 529 197 551 l 106 636 q 224 678 163 664 q 343 692 285 692 q 488 660 431 692 q 572 574 544 628 q 600 454 600 521 l 600 0 l 500 0 l 465 124 l 539 144 q 450 22 514 63 q 300 -19 386 -19 m 325 104 q 424 133 386 104 q 461 213 461 161 q 424 293 461 265 q 325 321 386 321 q 226 293 264 321 q 189 213 189 265 q 226 133 189 161 q 325 104 264 104 m 208 775 l 138 846 l 335 1040 l 533 846 l 463 775 l 292 949 l 381 947 l 208 775 z "},"ä":{"ha":683,"x_min":47,"x_max":600,"o":"m 300 -19 q 164 8 221 -19 q 77 88 107 36 q 47 213 47 140 q 78 331 47 279 q 165 414 108 383 q 300 444 222 444 q 456 401 397 444 q 539 281 515 357 l 461 281 l 461 454 q 432 533 461 497 q 329 569 403 569 q 244 560 290 569 q 147 529 197 551 l 106 636 q 224 678 163 664 q 343 692 285 692 q 488 660 431 692 q 572 574 544 628 q 600 454 600 521 l 600 0 l 500 0 l 465 124 l 539 144 q 450 22 514 63 q 300 -19 386 -19 m 325 104 q 424 133 386 104 q 461 213 461 161 q 424 293 461 265 q 325 321 386 321 q 226 293 264 321 q 189 213 189 265 q 226 133 189 161 q 325 104 264 104 m 115 876 q 140 942 115 917 q 206 968 164 968 q 271 942 246 968 q 296 876 296 917 q 271 812 296 838 q 206 786 246 786 q 140 812 164 786 q 115 876 115 838 m 379 876 q 403 942 379 917 q 469 968 428 968 q 535 942 510 968 q 560 876 560 917 q 535 812 560 838 q 469 786 510 786 q 403 812 428 786 q 379 876 379 838 z "},"à":{"ha":683,"x_min":47,"x_max":600,"o":"m 300 -19 q 164 8 221 -19 q 77 88 107 36 q 47 213 47 140 q 78 331 47 279 q 165 414 108 383 q 300 444 222 444 q 456 401 397 444 q 539 281 515 357 l 461 281 l 461 454 q 432 533 461 497 q 329 569 403 569 q 244 560 290 569 q 147 529 197 551 l 106 636 q 224 678 163 664 q 343 692 285 692 q 488 660 431 692 q 572 574 544 628 q 600 454 600 521 l 600 0 l 500 0 l 465 124 l 539 144 q 450 22 514 63 q 300 -19 386 -19 m 325 104 q 424 133 386 104 q 461 213 461 161 q 424 293 461 265 q 325 321 386 321 q 226 293 264 321 q 189 213 189 265 q 226 133 189 161 q 325 104 264 104 m 343 774 l 131 969 l 201 1040 l 413 846 l 343 774 z "},"ā":{"ha":683,"x_min":47,"x_max":600,"o":"m 300 -19 q 164 8 221 -19 q 77 88 107 36 q 47 213 47 140 q 78 331 47 279 q 165 414 108 383 q 300 444 222 444 q 456 401 397 444 q 539 281 515 357 l 461 281 l 461 454 q 432 533 461 497 q 329 569 403 569 q 244 560 290 569 q 147 529 197 551 l 106 636 q 224 678 163 664 q 343 692 285 692 q 488 660 431 692 q 572 574 544 628 q 600 454 600 521 l 600 0 l 500 0 l 465 124 l 539 144 q 450 22 514 63 q 300 -19 386 -19 m 325 104 q 424 133 386 104 q 461 213 461 161 q 424 293 461 265 q 325 321 386 321 q 226 293 264 321 q 189 213 189 265 q 226 133 189 161 q 325 104 264 104 m 526 811 l 150 811 l 150 908 l 526 908 l 526 811 z "},"ą":{"ha":683,"x_min":47,"x_max":611,"o":"m 300 -19 q 164 8 221 -19 q 77 88 107 36 q 47 213 47 140 q 78 331 47 279 q 165 414 108 383 q 300 444 222 444 q 456 401 397 444 q 539 281 515 357 l 461 281 l 461 454 q 432 533 461 497 q 329 569 403 569 q 244 560 290 569 q 147 529 197 551 l 106 636 q 224 678 163 664 q 343 692 285 692 q 488 660 431 692 q 572 574 544 628 q 600 454 600 521 l 600 0 q 514 -78 546 -35 q 482 -164 482 -122 q 543 -221 482 -221 q 573 -217 557 -221 q 599 -208 589 -212 l 611 -296 q 575 -309 599 -303 q 524 -315 551 -315 q 424 -287 464 -315 q 383 -190 383 -258 q 417 -83 383 -137 q 503 6 450 -29 l 510 0 l 500 0 l 465 124 l 539 144 q 450 22 514 63 q 300 -19 386 -19 m 325 104 q 424 133 386 104 q 461 213 461 161 q 424 293 461 265 q 325 321 386 321 q 226 293 264 321 q 189 213 189 265 q 226 133 189 161 q 325 104 264 104 z "},"å":{"ha":683,"x_min":47,"x_max":600,"o":"m 300 -19 q 164 8 221 -19 q 77 88 107 36 q 47 213 47 140 q 78 331 47 279 q 165 414 108 383 q 300 444 222 444 q 456 401 397 444 q 539 281 515 357 l 461 281 l 461 454 q 432 533 461 497 q 329 569 403 569 q 244 560 290 569 q 147 529 197 551 l 106 636 q 224 678 163 664 q 343 692 285 692 q 488 660 431 692 q 572 574 544 628 q 600 454 600 521 l 600 0 l 500 0 l 465 124 l 539 144 q 450 22 514 63 q 300 -19 386 -19 m 325 104 q 424 133 386 104 q 461 213 461 161 q 424 293 461 265 q 325 321 386 321 q 226 293 264 321 q 189 213 189 265 q 226 133 189 161 q 325 104 264 104 m 338 776 q 263 795 297 776 q 209 847 229 814 q 189 919 189 879 q 209 994 189 961 q 263 1047 229 1028 q 338 1065 297 1065 q 413 1047 379 1065 q 466 994 446 1028 q 486 919 486 961 q 466 847 486 879 q 413 795 446 814 q 338 776 379 776 m 336 867 q 375 882 360 867 q 390 919 390 897 q 375 958 390 943 q 336 974 360 974 q 299 958 314 974 q 283 919 283 943 q 299 882 283 897 q 336 867 314 867 z "},"ã":{"ha":683,"x_min":47,"x_max":600,"o":"m 300 -19 q 164 8 221 -19 q 77 88 107 36 q 47 213 47 140 q 78 331 47 279 q 165 414 108 383 q 300 444 222 444 q 456 401 397 444 q 539 281 515 357 l 461 281 l 461 454 q 432 533 461 497 q 329 569 403 569 q 244 560 290 569 q 147 529 197 551 l 106 636 q 224 678 163 664 q 343 692 285 692 q 488 660 431 692 q 572 574 544 628 q 600 454 600 521 l 600 0 l 500 0 l 465 124 l 539 144 q 450 22 514 63 q 300 -19 386 -19 m 325 104 q 424 133 386 104 q 461 213 461 161 q 424 293 461 265 q 325 321 386 321 q 226 293 264 321 q 189 213 189 265 q 226 133 189 161 q 325 104 264 104 m 428 799 q 321 838 376 799 q 282 862 297 854 q 250 869 267 869 q 181 807 208 869 l 88 853 q 153 943 115 911 q 244 975 190 975 q 308 965 278 975 q 369 931 338 954 q 401 912 386 919 q 429 904 415 904 q 465 919 453 904 q 494 975 478 935 l 588 929 q 528 834 565 869 q 428 799 490 799 z "},"æ":{"ha":1068,"x_min":47,"x_max":1026,"o":"m 300 -19 q 114 42 181 -19 q 47 213 47 103 q 78 331 47 279 q 165 414 108 383 q 300 444 222 444 q 442 401 389 444 q 518 281 496 357 l 454 281 l 454 454 q 425 533 454 497 q 322 569 396 569 q 237 560 283 569 q 140 529 190 551 l 99 636 q 217 678 156 664 q 336 692 278 692 q 476 660 421 692 q 559 574 532 628 q 586 454 586 521 l 586 124 l 458 124 l 546 144 q 456 22 521 63 q 300 -19 390 -19 m 325 104 q 424 133 386 104 q 461 213 461 161 q 424 293 461 265 q 325 321 386 321 q 226 293 264 321 q 189 213 189 265 q 226 133 189 161 q 325 104 264 104 m 758 -14 q 594 30 664 -14 q 488 153 525 74 q 451 338 451 232 q 488 524 451 444 q 592 647 525 603 q 746 692 658 692 q 900 653 838 692 q 994 542 963 615 q 1026 365 1026 469 q 1026 331 1026 347 q 1024 299 1025 314 l 576 299 l 576 404 l 924 404 l 885 379 q 853 527 890 475 q 746 579 815 579 q 631 529 674 579 q 588 381 588 479 l 588 308 q 631 160 588 215 q 758 106 675 106 q 858 135 819 106 q 918 226 896 165 l 1022 161 q 919 30 990 74 q 758 -14 849 -14 z "},"b":{"ha":792,"x_min":89,"x_max":744,"o":"m 432 -14 q 272 31 340 -14 q 166 155 204 75 q 128 340 128 235 q 166 525 128 446 q 272 648 204 604 q 432 692 340 692 q 597 648 526 692 q 706 525 667 604 q 744 340 744 446 q 706 155 744 235 q 597 31 667 75 q 432 -14 526 -14 m 89 0 l 89 946 l 228 946 l 228 522 l 214 522 l 214 136 l 228 136 l 194 0 l 89 0 m 411 106 q 550 170 497 106 q 603 340 603 235 q 550 508 603 444 q 411 572 497 572 q 274 508 326 572 q 221 339 221 444 q 274 169 221 233 q 411 106 326 106 z "},"c":{"ha":707,"x_min":47,"x_max":683,"o":"m 388 -14 q 207 31 283 -14 q 89 156 131 76 q 47 339 47 235 q 89 522 47 443 q 207 647 131 601 q 388 692 283 692 q 567 638 486 692 q 683 496 647 585 l 551 440 q 485 528 529 499 q 383 558 440 558 q 244 501 300 558 q 189 339 189 443 q 244 177 189 235 q 383 119 300 119 q 485 149 440 119 q 551 238 529 179 l 683 182 q 566 40 646 93 q 388 -14 486 -14 z "},"ć":{"ha":707,"x_min":47,"x_max":683,"o":"m 388 -14 q 207 31 283 -14 q 89 156 131 76 q 47 339 47 235 q 89 522 47 443 q 207 647 131 601 q 388 692 283 692 q 567 638 486 692 q 683 496 647 585 l 551 440 q 485 528 529 499 q 383 558 440 558 q 244 501 300 558 q 189 339 189 443 q 244 177 189 235 q 383 119 300 119 q 485 149 440 119 q 551 238 529 179 l 683 182 q 566 40 646 93 q 388 -14 486 -14 m 363 774 l 293 846 l 504 1040 l 575 969 l 363 774 z "},"č":{"ha":707,"x_min":47,"x_max":683,"o":"m 388 -14 q 207 31 283 -14 q 89 156 131 76 q 47 339 47 235 q 89 522 47 443 q 207 647 131 601 q 388 692 283 692 q 567 638 486 692 q 683 496 647 585 l 551 440 q 485 528 529 499 q 383 558 440 558 q 244 501 300 558 q 189 339 189 443 q 244 177 189 235 q 383 119 300 119 q 485 149 440 119 q 551 238 529 179 l 683 182 q 566 40 646 93 q 388 -14 486 -14 m 376 775 l 178 969 l 249 1040 l 419 867 l 331 868 l 503 1040 l 574 969 l 376 775 z "},"ç":{"ha":707,"x_min":47,"x_max":683,"o":"m 388 -14 q 207 31 283 -14 q 89 156 131 76 q 47 339 47 235 q 89 522 47 443 q 207 647 131 601 q 388 692 283 692 q 567 638 486 692 q 683 496 647 585 l 551 440 q 485 528 529 499 q 383 558 440 558 q 244 501 300 558 q 189 339 189 443 q 244 177 189 235 q 383 119 300 119 q 485 149 440 119 q 551 238 529 179 l 683 182 q 566 40 646 93 q 388 -14 486 -14 m 375 -282 q 293 -271 329 -282 q 229 -242 257 -260 l 267 -175 q 310 -195 285 -186 q 364 -204 335 -204 q 417 -192 400 -204 q 433 -160 433 -179 q 417 -133 433 -143 q 358 -122 401 -122 l 292 -122 l 318 0 l 404 0 l 386 -96 l 360 -53 q 481 -81 443 -53 q 519 -158 519 -108 q 482 -249 519 -217 q 375 -282 444 -282 z "},"ċ":{"ha":707,"x_min":47,"x_max":683,"o":"m 388 -14 q 207 31 283 -14 q 89 156 131 76 q 47 339 47 235 q 89 522 47 443 q 207 647 131 601 q 388 692 283 692 q 567 638 486 692 q 683 496 647 585 l 551 440 q 485 528 529 499 q 383 558 440 558 q 244 501 300 558 q 189 339 189 443 q 244 177 189 235 q 383 119 300 119 q 485 149 440 119 q 551 238 529 179 l 683 182 q 566 40 646 93 q 388 -14 486 -14 m 286 886 q 310 952 286 926 q 376 978 335 978 q 442 952 417 978 q 467 886 467 926 q 442 822 467 847 q 376 796 417 796 q 310 822 335 796 q 286 886 286 847 z "},"d":{"ha":792,"x_min":47,"x_max":703,"o":"m 360 -14 q 196 31 267 -14 q 86 155 125 75 q 47 340 47 235 q 86 525 47 446 q 196 648 125 604 q 360 692 267 692 q 519 648 451 692 q 626 525 588 604 q 664 340 664 446 q 626 155 664 235 q 519 31 588 75 q 360 -14 451 -14 m 381 106 q 519 169 467 106 q 571 339 571 233 q 519 508 571 444 q 381 572 467 572 q 242 508 294 572 q 189 340 189 444 q 242 170 189 235 q 381 106 294 106 m 597 0 l 564 136 l 578 136 l 578 522 l 564 522 l 564 946 l 703 946 l 703 0 l 597 0 z "},"ð":{"ha":768,"x_min":60,"x_max":714,"o":"m 381 -14 q 213 28 286 -14 q 100 144 140 71 q 60 308 60 217 q 100 479 60 407 q 208 591 140 551 q 360 631 276 631 q 501 591 443 631 q 586 488 560 551 l 588 488 q 522 646 574 569 q 379 783 471 722 q 154 874 288 843 l 203 986 l 238 976 q 408 908 332 950 q 541 810 483 867 q 637 686 599 754 q 694 540 675 618 q 714 375 714 461 q 673 165 714 253 q 557 32 632 78 q 381 -14 482 -14 m 388 117 q 521 171 468 117 q 574 308 574 225 q 521 446 574 392 q 388 500 468 500 q 254 446 307 500 q 201 308 201 392 q 254 171 201 225 q 388 117 307 117 m 303 665 l 240 744 l 368 844 l 411 889 l 540 990 l 600 910 l 490 824 l 432 768 l 303 665 z "},"ď":{"ha":890,"x_min":47,"x_max":890,"o":"m 360 -14 q 196 31 267 -14 q 86 155 125 75 q 47 340 47 235 q 86 525 47 446 q 196 648 125 604 q 360 692 267 692 q 519 648 451 692 q 626 525 588 604 q 664 340 664 446 q 626 155 664 235 q 519 31 588 75 q 360 -14 451 -14 m 381 106 q 519 169 467 106 q 571 339 571 233 q 519 508 571 444 q 381 572 467 572 q 242 508 294 572 q 189 340 189 444 q 242 170 189 235 q 381 106 294 106 m 597 0 l 564 136 l 578 136 l 578 522 l 564 522 l 564 946 l 703 946 l 703 0 l 597 0 m 890 946 l 890 868 l 860 671 l 776 671 l 776 946 l 890 946 z "},"đ":{"ha":792,"x_min":47,"x_max":814,"o":"m 360 -14 q 196 31 267 -14 q 86 155 125 75 q 47 340 47 235 q 86 525 47 446 q 196 648 125 604 q 360 692 267 692 q 473 671 421 692 q 564 613 525 650 l 564 750 l 408 750 l 408 858 l 564 858 l 564 946 l 703 946 l 703 858 l 814 858 l 814 750 l 703 750 l 703 0 l 597 0 l 578 81 q 483 11 539 36 q 360 -14 426 -14 m 189 340 q 242 170 189 235 q 381 106 294 106 q 519 169 467 106 q 571 339 571 233 q 519 508 571 444 q 381 572 467 572 q 242 508 294 572 q 189 340 189 444 z "},"e":{"ha":754,"x_min":47,"x_max":713,"o":"m 379 -14 q 206 30 281 -14 q 89 153 131 74 q 47 338 47 232 q 89 524 47 444 q 206 647 131 603 q 379 692 281 692 q 554 647 479 692 q 671 524 629 603 q 713 338 713 444 q 712 317 713 328 q 710 299 711 307 l 179 299 l 179 418 l 610 418 l 571 338 q 524 511 571 443 q 379 579 476 579 q 242 524 293 579 q 190 381 190 469 l 190 308 q 240 160 190 215 q 379 106 290 106 q 506 140 461 106 q 583 226 550 175 l 688 161 q 566 30 640 74 q 379 -14 492 -14 z "},"é":{"ha":754,"x_min":47,"x_max":713,"o":"m 379 -14 q 206 30 281 -14 q 89 153 131 74 q 47 338 47 232 q 89 524 47 444 q 206 647 131 603 q 379 692 281 692 q 554 647 479 692 q 671 524 629 603 q 713 338 713 444 q 712 317 713 328 q 710 299 711 307 l 179 299 l 179 418 l 610 418 l 571 338 q 524 511 571 443 q 379 579 476 579 q 242 524 293 579 q 190 381 190 469 l 190 308 q 240 160 190 215 q 379 106 290 106 q 506 140 461 106 q 583 226 550 175 l 688 161 q 566 30 640 74 q 379 -14 492 -14 m 367 774 l 297 846 l 508 1040 l 579 969 l 367 774 z "},"ě":{"ha":754,"x_min":47,"x_max":713,"o":"m 379 -14 q 206 30 281 -14 q 89 153 131 74 q 47 338 47 232 q 89 524 47 444 q 206 647 131 603 q 379 692 281 692 q 554 647 479 692 q 671 524 629 603 q 713 338 713 444 q 712 317 713 328 q 710 299 711 307 l 179 299 l 179 418 l 610 418 l 571 338 q 524 511 571 443 q 379 579 476 579 q 242 524 293 579 q 190 381 190 469 l 190 308 q 240 160 190 215 q 379 106 290 106 q 506 140 461 106 q 583 226 550 175 l 688 161 q 566 30 640 74 q 379 -14 492 -14 m 381 775 l 182 969 l 253 1040 l 424 867 l 335 868 l 507 1040 l 578 969 l 381 775 z "},"ê":{"ha":754,"x_min":47,"x_max":713,"o":"m 379 -14 q 206 30 281 -14 q 89 153 131 74 q 47 338 47 232 q 89 524 47 444 q 206 647 131 603 q 379 692 281 692 q 554 647 479 692 q 671 524 629 603 q 713 338 713 444 q 712 317 713 328 q 710 299 711 307 l 179 299 l 179 418 l 610 418 l 571 338 q 524 511 571 443 q 379 579 476 579 q 242 524 293 579 q 190 381 190 469 l 190 308 q 240 160 190 215 q 379 106 290 106 q 506 140 461 106 q 583 226 550 175 l 688 161 q 566 30 640 74 q 379 -14 492 -14 m 251 775 l 181 846 l 378 1040 l 576 846 l 506 775 l 335 949 l 424 947 l 251 775 z "},"ë":{"ha":754,"x_min":47,"x_max":713,"o":"m 379 -14 q 206 30 281 -14 q 89 153 131 74 q 47 338 47 232 q 89 524 47 444 q 206 647 131 603 q 379 692 281 692 q 554 647 479 692 q 671 524 629 603 q 713 338 713 444 q 712 317 713 328 q 710 299 711 307 l 179 299 l 179 418 l 610 418 l 571 338 q 524 511 571 443 q 379 579 476 579 q 242 524 293 579 q 190 381 190 469 l 190 308 q 240 160 190 215 q 379 106 290 106 q 506 140 461 106 q 583 226 550 175 l 688 161 q 566 30 640 74 q 379 -14 492 -14 m 158 876 q 183 942 158 917 q 249 968 207 968 q 314 942 289 968 q 339 876 339 917 q 314 812 339 838 q 249 786 289 786 q 183 812 207 786 q 158 876 158 838 m 422 876 q 447 942 422 917 q 513 968 471 968 q 578 942 553 968 q 603 876 603 917 q 578 812 603 838 q 513 786 553 786 q 447 812 471 786 q 422 876 422 838 z "},"ė":{"ha":754,"x_min":47,"x_max":713,"o":"m 379 -14 q 206 30 281 -14 q 89 153 131 74 q 47 338 47 232 q 89 524 47 444 q 206 647 131 603 q 379 692 281 692 q 554 647 479 692 q 671 524 629 603 q 713 338 713 444 q 712 317 713 328 q 710 299 711 307 l 179 299 l 179 418 l 610 418 l 571 338 q 524 511 571 443 q 379 579 476 579 q 242 524 293 579 q 190 381 190 469 l 190 308 q 240 160 190 215 q 379 106 290 106 q 506 140 461 106 q 583 226 550 175 l 688 161 q 566 30 640 74 q 379 -14 492 -14 m 290 886 q 315 952 290 926 q 381 978 339 978 q 446 952 421 978 q 471 886 471 926 q 446 822 471 847 q 381 796 421 796 q 315 822 339 796 q 290 886 290 847 z "},"è":{"ha":754,"x_min":47,"x_max":713,"o":"m 379 -14 q 206 30 281 -14 q 89 153 131 74 q 47 338 47 232 q 89 524 47 444 q 206 647 131 603 q 379 692 281 692 q 554 647 479 692 q 671 524 629 603 q 713 338 713 444 q 712 317 713 328 q 710 299 711 307 l 179 299 l 179 418 l 610 418 l 571 338 q 524 511 571 443 q 379 579 476 579 q 242 524 293 579 q 190 381 190 469 l 190 308 q 240 160 190 215 q 379 106 290 106 q 506 140 461 106 q 583 226 550 175 l 688 161 q 566 30 640 74 q 379 -14 492 -14 m 386 774 l 174 969 l 244 1040 l 456 846 l 386 774 z "},"ē":{"ha":754,"x_min":47,"x_max":713,"o":"m 379 -14 q 206 30 281 -14 q 89 153 131 74 q 47 338 47 232 q 89 524 47 444 q 206 647 131 603 q 379 692 281 692 q 554 647 479 692 q 671 524 629 603 q 713 338 713 444 q 712 317 713 328 q 710 299 711 307 l 179 299 l 179 418 l 610 418 l 571 338 q 524 511 571 443 q 379 579 476 579 q 242 524 293 579 q 190 381 190 469 l 190 308 q 240 160 190 215 q 379 106 290 106 q 506 140 461 106 q 583 226 550 175 l 688 161 q 566 30 640 74 q 379 -14 492 -14 m 569 811 l 193 811 l 193 908 l 569 908 l 569 811 z "},"ę":{"ha":754,"x_min":47,"x_max":713,"o":"m 361 -14 q 196 35 267 -10 q 86 157 125 79 q 47 338 47 235 q 89 524 47 444 q 206 647 131 603 q 379 692 281 692 q 554 647 479 692 q 671 524 629 603 q 713 338 713 444 q 712 317 713 328 q 710 299 711 307 l 190 299 q 243 158 193 210 q 379 106 293 106 q 506 140 461 106 q 583 226 550 175 l 688 161 q 479 -4 617 28 q 397 -81 428 -37 q 367 -164 367 -124 q 428 -221 367 -221 q 458 -217 442 -221 q 483 -208 474 -212 l 496 -296 q 460 -309 483 -303 q 408 -315 436 -315 q 308 -287 349 -315 q 268 -190 268 -258 q 294 -97 268 -144 q 361 -14 319 -49 m 193 418 l 563 418 q 503 535 549 492 q 379 579 457 579 q 253 535 303 579 q 193 418 204 492 z "},"ẽ":{"ha":754,"x_min":47,"x_max":713,"o":"m 379 -14 q 206 30 281 -14 q 89 153 131 74 q 47 338 47 232 q 89 524 47 444 q 206 647 131 603 q 379 692 281 692 q 554 647 479 692 q 671 524 629 603 q 713 338 713 444 q 712 317 713 328 q 710 299 711 307 l 179 299 l 179 418 l 610 418 l 571 338 q 524 511 571 443 q 379 579 476 579 q 242 524 293 579 q 190 381 190 469 l 190 308 q 240 160 190 215 q 379 106 290 106 q 506 140 461 106 q 583 226 550 175 l 688 161 q 566 30 640 74 q 379 -14 492 -14 m 471 799 q 364 838 419 799 q 325 862 340 854 q 293 869 310 869 q 224 807 251 869 l 131 853 q 196 943 158 911 q 288 975 233 975 q 351 965 321 975 q 413 931 381 954 q 444 912 429 919 q 472 904 458 904 q 508 919 496 904 q 538 975 521 935 l 631 929 q 571 834 608 869 q 471 799 533 799 z "},"f":{"ha":436,"x_min":36,"x_max":424,"o":"m 140 0 l 140 744 q 164 865 140 818 q 231 935 188 913 q 333 958 274 958 q 383 954 361 958 q 424 944 406 950 l 424 815 q 394 820 408 818 q 360 822 379 822 q 304 802 329 822 q 279 733 279 782 l 279 0 l 140 0 m 410 550 l 36 550 l 36 678 l 410 678 l 410 550 z "},"g":{"ha":799,"x_min":54,"x_max":710,"o":"m 388 -275 q 277 -259 329 -275 q 183 -207 225 -243 q 107 -111 140 -171 l 97 -93 l 207 -33 q 284 -123 243 -93 q 388 -153 325 -153 q 522 -100 472 -153 q 571 63 571 -47 l 571 207 l 585 207 l 585 542 l 571 542 l 604 678 l 710 678 l 710 85 q 667 -115 710 -35 q 553 -235 625 -196 q 388 -275 481 -275 m 371 42 q 205 82 276 42 q 94 195 133 122 q 54 365 54 268 q 94 537 54 464 q 205 651 133 610 q 371 692 276 692 q 528 651 461 692 q 633 537 596 610 q 671 365 671 464 q 633 195 671 268 q 528 82 596 122 q 371 42 461 42 m 388 161 q 526 217 474 161 q 578 367 578 274 q 526 516 578 460 q 388 572 474 572 q 249 515 301 572 q 196 365 196 458 q 249 217 196 274 q 388 161 301 161 z "},"ğ":{"ha":799,"x_min":54,"x_max":710,"o":"m 388 -275 q 277 -259 329 -275 q 183 -207 225 -243 q 107 -111 140 -171 l 97 -93 l 207 -33 q 284 -123 243 -93 q 388 -153 325 -153 q 522 -100 472 -153 q 571 63 571 -47 l 571 207 l 585 207 l 585 542 l 571 542 l 604 678 l 710 678 l 710 85 q 667 -115 710 -35 q 553 -235 625 -196 q 388 -275 481 -275 m 371 42 q 205 82 276 42 q 94 195 133 122 q 54 365 54 268 q 94 537 54 464 q 205 651 133 610 q 371 692 276 692 q 528 651 461 692 q 633 537 596 610 q 671 365 671 464 q 633 195 671 268 q 528 82 596 122 q 371 42 461 42 m 388 161 q 526 217 474 161 q 578 367 578 274 q 526 516 578 460 q 388 572 474 572 q 249 515 301 572 q 196 365 196 458 q 249 217 196 274 q 388 161 301 161 m 393 806 q 263 853 313 806 q 207 983 214 900 l 303 983 q 326 915 306 944 q 393 886 346 886 q 461 915 440 886 q 485 983 482 944 l 581 983 q 525 853 575 900 q 393 806 475 806 z "},"ģ":{"ha":799,"x_min":54,"x_max":710,"o":"m 388 -275 q 277 -259 329 -275 q 183 -207 225 -243 q 107 -111 140 -171 l 97 -93 l 207 -33 q 284 -123 243 -93 q 388 -153 325 -153 q 522 -100 472 -153 q 571 63 571 -47 l 571 207 l 585 207 l 585 542 l 571 542 l 604 678 l 710 678 l 710 85 q 667 -115 710 -35 q 553 -235 625 -196 q 388 -275 481 -275 m 371 42 q 205 82 276 42 q 94 195 133 122 q 54 365 54 268 q 94 537 54 464 q 205 651 133 610 q 371 692 276 692 q 528 651 461 692 q 633 537 596 610 q 671 365 671 464 q 633 195 671 268 q 528 82 596 122 q 371 42 461 42 m 388 161 q 526 217 474 161 q 578 367 578 274 q 526 516 578 460 q 388 572 474 572 q 249 515 301 572 q 196 365 196 458 q 249 217 196 274 q 388 161 301 161 m 403 760 q 326 793 363 760 q 290 889 290 826 q 318 990 290 944 q 390 1063 346 1035 q 481 1099 433 1092 l 489 1063 q 421 1017 440 1047 q 401 950 401 986 q 433 863 401 896 q 494 813 465 829 q 456 772 476 785 q 403 760 435 760 z "},"ġ":{"ha":799,"x_min":54,"x_max":710,"o":"m 388 -275 q 277 -259 329 -275 q 183 -207 225 -243 q 107 -111 140 -171 l 97 -93 l 207 -33 q 284 -123 243 -93 q 388 -153 325 -153 q 522 -100 472 -153 q 571 63 571 -47 l 571 207 l 585 207 l 585 542 l 571 542 l 604 678 l 710 678 l 710 85 q 667 -115 710 -35 q 553 -235 625 -196 q 388 -275 481 -275 m 371 42 q 205 82 276 42 q 94 195 133 122 q 54 365 54 268 q 94 537 54 464 q 205 651 133 610 q 371 692 276 692 q 528 651 461 692 q 633 537 596 610 q 671 365 671 464 q 633 195 671 268 q 528 82 596 122 q 371 42 461 42 m 388 161 q 526 217 474 161 q 578 367 578 274 q 526 516 578 460 q 388 572 474 572 q 249 515 301 572 q 196 365 196 458 q 249 217 196 274 q 388 161 301 161 m 303 886 q 327 952 303 926 q 393 978 351 978 q 458 952 433 978 q 483 886 483 926 q 458 822 483 847 q 393 796 433 796 q 327 822 351 796 q 303 886 303 847 z "},"h":{"ha":765,"x_min":89,"x_max":682,"o":"m 89 0 l 89 946 l 228 946 l 228 0 l 89 0 m 543 0 l 543 433 q 510 531 543 506 q 433 556 478 556 q 343 538 389 556 q 261 489 297 519 q 206 421 225 458 l 189 554 q 274 629 228 599 q 371 676 319 660 q 476 692 422 692 q 590 667 549 692 q 651 602 632 643 q 676 510 671 561 q 682 404 682 458 l 682 0 l 543 0 z "},"ħ":{"ha":765,"x_min":-22,"x_max":682,"o":"m 89 0 l 89 750 l -22 750 l -22 858 l 89 858 l 89 946 l 228 946 l 228 858 l 383 858 l 383 750 l 228 750 l 228 593 q 344 667 281 642 q 476 692 408 692 q 590 667 549 692 q 651 602 632 643 q 676 510 671 561 q 682 404 682 458 l 682 0 l 543 0 l 543 433 q 510 531 543 506 q 433 556 478 556 q 320 527 376 556 q 228 454 264 499 l 228 0 l 89 0 z "},"i":{"ha":322,"x_min":71,"x_max":251,"o":"m 231 0 l 92 0 l 92 678 l 231 678 l 231 0 m 71 886 q 95 952 71 926 q 161 978 119 978 q 226 952 201 978 q 251 886 251 926 q 226 822 251 847 q 161 796 201 796 q 95 822 119 796 q 71 886 71 847 z "},"ı":{"ha":322,"x_min":92,"x_max":231,"o":"m 231 0 l 92 0 l 92 678 l 231 678 l 231 0 z "},"í":{"ha":322,"x_min":78,"x_max":360,"o":"m 231 0 l 92 0 l 92 678 l 231 678 l 231 0 m 147 774 l 78 846 l 289 1040 l 360 969 l 147 774 z "},"î":{"ha":322,"x_min":-19,"x_max":336,"o":"m 231 0 l 92 0 l 92 678 l 231 678 l 231 0 m 63 775 l -19 843 l 158 1042 l 336 843 l 254 775 l 117 938 l 200 938 l 63 775 z "},"ï":{"ha":322,"x_min":-29,"x_max":351,"o":"m 231 0 l 92 0 l 92 678 l 231 678 l 231 0 m 261 786 q 195 812 219 786 q 171 876 171 838 q 195 942 171 917 q 261 968 219 968 q 326 942 301 968 q 351 876 351 917 q 326 812 351 838 q 261 786 301 786 m 61 786 q -5 812 19 786 q -29 876 -29 838 q -5 942 -29 917 q 61 968 19 968 q 126 942 101 968 q 151 876 151 917 q 126 812 151 838 q 61 786 101 786 z "},"ì":{"ha":322,"x_min":-46,"x_max":236,"o":"m 231 0 l 92 0 l 92 678 l 231 678 l 231 0 m 167 774 l -46 969 l 25 1040 l 236 846 l 167 774 z "},"ĳ":{"ha":650,"x_min":71,"x_max":581,"o":"m 231 0 l 92 0 l 92 678 l 231 678 l 231 0 m 71 886 q 95 952 71 926 q 161 978 119 978 q 226 952 201 978 q 251 886 251 926 q 226 822 251 847 q 161 796 201 796 q 95 822 119 796 q 71 886 71 847 m 406 -269 q 350 -263 371 -269 q 322 -254 329 -257 l 322 -137 q 340 -142 329 -139 q 365 -144 351 -144 q 407 -126 393 -144 q 421 -78 421 -108 l 421 678 l 560 678 l 560 -74 q 544 -172 560 -126 q 494 -243 528 -217 q 406 -269 460 -269 m 400 886 q 424 952 400 926 q 490 978 449 978 q 556 952 531 978 q 581 886 581 926 q 556 822 581 847 q 490 796 531 796 q 424 822 449 796 q 400 886 400 847 z "},"ī":{"ha":322,"x_min":15,"x_max":308,"o":"m 231 0 l 92 0 l 92 678 l 231 678 l 231 0 m 308 811 l 15 811 l 15 908 l 308 908 l 308 811 z "},"į":{"ha":322,"x_min":14,"x_max":251,"o":"m 231 0 l 92 0 l 92 678 l 231 678 l 231 0 m 71 886 q 95 952 71 926 q 161 978 119 978 q 226 952 201 978 q 251 886 251 926 q 226 822 251 847 q 161 796 201 796 q 95 822 119 796 q 71 886 71 847 m 154 -315 q 54 -287 94 -315 q 14 -190 14 -258 q 48 -83 14 -137 q 135 7 82 -28 l 231 0 q 144 -78 176 -35 q 113 -164 113 -122 q 174 -221 113 -221 q 203 -217 188 -221 q 229 -208 219 -212 l 242 -296 q 206 -309 229 -303 q 154 -315 182 -315 z "},"j":{"ha":328,"x_min":0,"x_max":258,"o":"m 83 -269 q 28 -263 49 -269 q 0 -254 7 -257 l 0 -137 q 18 -142 7 -139 q 43 -144 29 -144 q 85 -126 71 -144 q 99 -78 99 -108 l 99 678 l 238 678 l 238 -74 q 222 -172 238 -126 q 172 -243 206 -217 q 83 -269 138 -269 m 78 886 q 102 952 78 926 q 168 978 126 978 q 233 952 208 978 q 258 886 258 926 q 233 822 258 847 q 168 796 208 796 q 102 822 126 796 q 78 886 78 847 z "},"ȷ":{"ha":328,"x_min":0,"x_max":238,"o":"m 83 -269 q 28 -263 49 -269 q 0 -254 7 -257 l 0 -137 q 18 -142 7 -139 q 43 -144 29 -144 q 85 -126 71 -144 q 99 -78 99 -108 l 99 678 l 238 678 l 238 -74 q 222 -172 238 -126 q 172 -243 206 -217 q 83 -269 138 -269 z "},"k":{"ha":639,"x_min":89,"x_max":653,"o":"m 192 342 l 192 361 l 486 678 l 650 678 l 319 315 l 307 407 l 653 0 l 486 0 l 192 342 m 89 946 l 225 946 l 225 0 l 89 0 l 89 946 z "},"ķ":{"ha":639,"x_min":89,"x_max":653,"o":"m 192 342 l 192 361 l 486 678 l 650 678 l 319 315 l 307 407 l 653 0 l 486 0 l 192 342 m 89 946 l 225 946 l 225 0 l 89 0 l 89 946 m 274 -406 l 265 -369 q 333 -324 314 -354 q 353 -257 353 -293 q 321 -169 353 -203 q 260 -119 289 -136 q 299 -79 279 -92 q 351 -67 319 -67 q 428 -100 392 -67 q 464 -196 464 -133 q 436 -297 464 -251 q 365 -370 408 -342 q 274 -406 321 -399 z "},"l":{"ha":343,"x_min":89,"x_max":296,"o":"m 213 -7 q 149 10 176 -7 q 105 61 121 28 q 89 143 89 94 l 89 946 l 225 946 l 225 192 q 247 133 225 149 q 296 118 268 118 l 296 7 q 257 -3 278 0 q 213 -7 236 -7 z "},"ĺ":{"ha":343,"x_min":74,"x_max":356,"o":"m 213 -7 q 149 10 176 -7 q 105 61 121 28 q 89 143 89 94 l 89 946 l 225 946 l 225 192 q 247 133 225 149 q 296 118 268 118 l 296 7 q 257 -3 278 0 q 213 -7 236 -7 m 143 1042 l 74 1114 l 285 1308 l 356 1238 l 143 1042 z "},"ľ":{"ha":413,"x_min":89,"x_max":413,"o":"m 213 -7 q 149 10 176 -7 q 105 61 121 28 q 89 143 89 94 l 89 946 l 225 946 l 225 192 q 247 133 225 149 q 296 118 268 118 l 296 7 q 257 -3 278 0 q 213 -7 236 -7 m 413 946 l 413 868 l 382 671 l 299 671 l 299 946 l 413 946 z "},"ļ":{"ha":343,"x_min":89,"x_max":296,"o":"m 213 -7 q 149 10 176 -7 q 105 61 121 28 q 89 143 89 94 l 89 946 l 225 946 l 225 192 q 247 133 225 149 q 296 118 268 118 l 296 7 q 257 -3 278 0 q 213 -7 236 -7 m 104 -406 l 96 -369 q 164 -324 144 -354 q 183 -257 183 -293 q 151 -169 183 -203 q 90 -119 119 -136 q 130 -79 110 -92 q 182 -67 150 -67 q 258 -100 222 -67 q 294 -196 294 -133 q 267 -297 294 -251 q 195 -370 239 -342 q 104 -406 151 -399 z "},"ł":{"ha":365,"x_min":7,"x_max":361,"o":"m 213 -7 q 149 10 176 -7 q 105 61 121 28 q 89 143 89 94 l 89 383 l 56 364 l 7 449 l 89 497 l 89 946 l 225 946 l 225 579 l 313 632 l 361 547 l 225 465 l 225 192 q 247 133 225 149 q 296 118 268 118 l 296 7 q 257 -3 278 0 q 213 -7 236 -7 z "},"m":{"ha":1178,"x_min":89,"x_max":1094,"o":"m 89 0 l 89 678 l 194 678 l 224 558 l 189 554 q 268 629 226 599 q 357 676 310 660 q 456 692 404 692 q 569 667 528 692 q 631 602 611 643 q 656 510 650 561 q 661 404 661 458 l 661 0 l 522 0 l 522 433 q 490 531 522 506 q 413 556 457 556 q 290 516 349 556 q 206 421 232 476 l 206 499 l 228 499 l 228 0 l 89 0 m 956 0 l 956 433 q 923 531 956 506 q 846 556 890 556 q 724 516 782 556 q 639 421 665 476 l 622 554 q 701 629 660 599 q 790 676 743 660 q 889 692 838 692 q 1003 667 961 692 q 1064 602 1044 643 q 1089 510 1083 561 q 1094 404 1094 458 l 1094 0 l 956 0 z "},"n":{"ha":765,"x_min":89,"x_max":682,"o":"m 476 692 q 590 667 549 692 q 651 602 632 643 q 676 510 671 561 q 682 404 682 458 l 682 0 l 543 0 l 543 433 q 510 531 543 506 q 433 556 478 556 q 343 538 389 556 q 261 489 297 519 q 206 421 225 458 l 206 499 l 228 499 l 228 0 l 89 0 l 89 678 l 194 678 l 224 558 l 189 554 q 274 629 228 599 q 371 676 319 660 q 476 692 422 692 z "},"ń":{"ha":765,"x_min":89,"x_max":682,"o":"m 476 692 q 590 667 549 692 q 651 602 632 643 q 676 510 671 561 q 682 404 682 458 l 682 0 l 543 0 l 543 433 q 510 531 543 506 q 433 556 478 556 q 343 538 389 556 q 261 489 297 519 q 206 421 225 458 l 206 499 l 228 499 l 228 0 l 89 0 l 89 678 l 194 678 l 224 558 l 189 554 q 274 629 228 599 q 371 676 319 660 q 476 692 422 692 m 371 774 l 301 846 l 513 1040 l 583 969 l 371 774 z "},"ň":{"ha":765,"x_min":89,"x_max":682,"o":"m 476 692 q 590 667 549 692 q 651 602 632 643 q 676 510 671 561 q 682 404 682 458 l 682 0 l 543 0 l 543 433 q 510 531 543 506 q 433 556 478 556 q 343 538 389 556 q 261 489 297 519 q 206 421 225 458 l 206 499 l 228 499 l 228 0 l 89 0 l 89 678 l 194 678 l 224 558 l 189 554 q 274 629 228 599 q 371 676 319 660 q 476 692 422 692 m 385 775 l 186 969 l 257 1040 l 428 867 l 339 868 l 511 1040 l 582 969 l 385 775 z "},"ņ":{"ha":765,"x_min":89,"x_max":682,"o":"m 476 692 q 590 667 549 692 q 651 602 632 643 q 676 510 671 561 q 682 404 682 458 l 682 0 l 543 0 l 543 433 q 510 531 543 506 q 433 556 478 556 q 343 538 389 556 q 261 489 297 519 q 206 421 225 458 l 206 499 l 228 499 l 228 0 l 89 0 l 89 678 l 194 678 l 224 558 l 189 554 q 274 629 228 599 q 371 676 319 660 q 476 692 422 692 m 296 -406 l 288 -369 q 356 -324 336 -354 q 375 -257 375 -293 q 343 -169 375 -203 q 282 -119 311 -136 q 322 -79 301 -92 q 374 -67 342 -67 q 450 -100 414 -67 q 486 -196 486 -133 q 458 -297 486 -251 q 387 -370 431 -342 q 296 -406 343 -399 z "},"ñ":{"ha":765,"x_min":89,"x_max":682,"o":"m 476 692 q 590 667 549 692 q 651 602 632 643 q 676 510 671 561 q 682 404 682 458 l 682 0 l 543 0 l 543 433 q 510 531 543 506 q 433 556 478 556 q 343 538 389 556 q 261 489 297 519 q 206 421 225 458 l 206 499 l 228 499 l 228 0 l 89 0 l 89 678 l 194 678 l 224 558 l 189 554 q 274 629 228 599 q 371 676 319 660 q 476 692 422 692 m 475 799 q 368 838 424 799 q 329 862 344 854 q 297 869 314 869 q 228 807 256 869 l 135 853 q 200 943 163 911 q 292 975 238 975 q 355 965 325 975 q 417 931 385 954 q 448 912 433 919 q 476 904 463 904 q 513 919 500 904 q 542 975 525 935 l 635 929 q 575 834 613 869 q 475 799 538 799 z "},"ŋ":{"ha":765,"x_min":89,"x_max":682,"o":"m 528 -269 q 472 -263 493 -269 q 444 -254 451 -257 l 444 -137 q 463 -142 451 -139 q 488 -144 474 -144 q 529 -126 515 -144 q 543 -78 543 -108 l 543 433 q 510 531 543 506 q 433 556 478 556 q 343 538 389 556 q 261 489 297 519 q 206 421 225 458 l 206 499 l 228 499 l 228 0 l 89 0 l 89 678 l 194 678 l 224 558 l 189 554 q 274 629 228 599 q 371 676 319 660 q 476 692 422 692 q 590 667 549 692 q 651 602 632 643 q 676 510 671 561 q 682 404 682 458 l 682 -74 q 666 -172 682 -126 q 616 -243 650 -217 q 528 -269 582 -269 z "},"o":{"ha":790,"x_min":49,"x_max":742,"o":"m 394 -14 q 213 30 292 -14 q 92 153 135 74 q 49 338 49 232 q 92 524 49 444 q 213 647 135 603 q 394 692 292 692 q 576 647 499 692 q 698 524 654 603 q 742 338 742 444 q 698 153 742 232 q 576 30 654 74 q 394 -14 499 -14 m 394 119 q 544 180 488 119 q 600 338 600 240 q 544 497 600 436 q 394 558 488 558 q 247 498 303 558 q 190 339 190 438 q 247 180 190 240 q 394 119 303 119 z "},"ó":{"ha":790,"x_min":49,"x_max":742,"o":"m 394 -14 q 213 30 292 -14 q 92 153 135 74 q 49 338 49 232 q 92 524 49 444 q 213 647 135 603 q 394 692 292 692 q 576 647 499 692 q 698 524 654 603 q 742 338 742 444 q 698 153 742 232 q 576 30 654 74 q 394 -14 499 -14 m 394 119 q 544 180 488 119 q 600 338 600 240 q 544 497 600 436 q 394 558 488 558 q 247 498 303 558 q 190 339 190 438 q 247 180 190 240 q 394 119 303 119 m 381 774 l 311 846 l 522 1040 l 593 969 l 381 774 z "},"ô":{"ha":790,"x_min":49,"x_max":742,"o":"m 394 -14 q 213 30 292 -14 q 92 153 135 74 q 49 338 49 232 q 92 524 49 444 q 213 647 135 603 q 394 692 292 692 q 576 647 499 692 q 698 524 654 603 q 742 338 742 444 q 698 153 742 232 q 576 30 654 74 q 394 -14 499 -14 m 394 119 q 544 180 488 119 q 600 338 600 240 q 544 497 600 436 q 394 558 488 558 q 247 498 303 558 q 190 339 190 438 q 247 180 190 240 q 394 119 303 119 m 265 775 l 194 846 l 392 1040 l 590 846 l 519 775 l 349 949 l 438 947 l 265 775 z "},"ö":{"ha":790,"x_min":49,"x_max":742,"o":"m 394 -14 q 213 30 292 -14 q 92 153 135 74 q 49 338 49 232 q 92 524 49 444 q 213 647 135 603 q 394 692 292 692 q 576 647 499 692 q 698 524 654 603 q 742 338 742 444 q 698 153 742 232 q 576 30 654 74 q 394 -14 499 -14 m 394 119 q 544 180 488 119 q 600 338 600 240 q 544 497 600 436 q 394 558 488 558 q 247 498 303 558 q 190 339 190 438 q 247 180 190 240 q 394 119 303 119 m 172 876 q 197 942 172 917 q 263 968 221 968 q 328 942 303 968 q 353 876 353 917 q 328 812 353 838 q 263 786 303 786 q 197 812 221 786 q 172 876 172 838 m 436 876 q 460 942 436 917 q 526 968 485 968 q 592 942 567 968 q 617 876 617 917 q 592 812 617 838 q 526 786 567 786 q 460 812 485 786 q 436 876 436 838 z "},"ò":{"ha":790,"x_min":49,"x_max":742,"o":"m 394 -14 q 213 30 292 -14 q 92 153 135 74 q 49 338 49 232 q 92 524 49 444 q 213 647 135 603 q 394 692 292 692 q 576 647 499 692 q 698 524 654 603 q 742 338 742 444 q 698 153 742 232 q 576 30 654 74 q 394 -14 499 -14 m 394 119 q 544 180 488 119 q 600 338 600 240 q 544 497 600 436 q 394 558 488 558 q 247 498 303 558 q 190 339 190 438 q 247 180 190 240 q 394 119 303 119 m 400 774 l 188 969 l 258 1040 l 469 846 l 400 774 z "},"ő":{"ha":790,"x_min":49,"x_max":742,"o":"m 394 -14 q 213 30 292 -14 q 92 153 135 74 q 49 338 49 232 q 92 524 49 444 q 213 647 135 603 q 394 692 292 692 q 576 647 499 692 q 698 524 654 603 q 742 338 742 444 q 698 153 742 232 q 576 30 654 74 q 394 -14 499 -14 m 394 119 q 544 180 488 119 q 600 338 600 240 q 544 497 600 436 q 394 558 488 558 q 247 498 303 558 q 190 339 190 438 q 247 180 190 240 q 394 119 303 119 m 322 765 l 232 804 l 344 1051 l 438 1015 l 322 765 m 515 765 l 425 804 l 538 1051 l 631 1015 l 515 765 z "},"ō":{"ha":790,"x_min":49,"x_max":742,"o":"m 394 -14 q 213 30 292 -14 q 92 153 135 74 q 49 338 49 232 q 92 524 49 444 q 213 647 135 603 q 394 692 292 692 q 576 647 499 692 q 698 524 654 603 q 742 338 742 444 q 698 153 742 232 q 576 30 654 74 q 394 -14 499 -14 m 394 119 q 544 180 488 119 q 600 338 600 240 q 544 497 600 436 q 394 558 488 558 q 247 498 303 558 q 190 339 190 438 q 247 180 190 240 q 394 119 303 119 m 583 811 l 207 811 l 207 908 l 583 908 l 583 811 z "},"ø":{"ha":824,"x_min":65,"x_max":758,"o":"m 411 -14 q 230 30 308 -14 q 108 153 151 74 q 65 338 65 232 q 108 524 65 444 q 230 647 151 603 q 411 692 308 692 q 593 647 515 692 q 715 524 671 603 q 758 338 758 444 q 715 153 758 232 q 593 30 671 74 q 411 -14 515 -14 m 411 113 q 565 174 507 113 q 624 338 624 236 q 565 503 624 440 q 411 565 507 565 q 258 503 317 565 q 200 339 200 442 q 258 175 200 238 q 411 113 317 113 m 182 -39 l 93 25 l 643 735 l 729 669 l 182 -39 z "},"õ":{"ha":790,"x_min":49,"x_max":742,"o":"m 394 -14 q 213 30 292 -14 q 92 153 135 74 q 49 338 49 232 q 92 524 49 444 q 213 647 135 603 q 394 692 292 692 q 576 647 499 692 q 698 524 654 603 q 742 338 742 444 q 698 153 742 232 q 576 30 654 74 q 394 -14 499 -14 m 394 119 q 544 180 488 119 q 600 338 600 240 q 544 497 600 436 q 394 558 488 558 q 247 498 303 558 q 190 339 190 438 q 247 180 190 240 q 394 119 303 119 m 485 799 q 378 838 433 799 q 339 862 354 854 q 307 869 324 869 q 238 807 265 869 l 144 853 q 210 943 172 911 q 301 975 247 975 q 365 965 335 975 q 426 931 394 954 q 458 912 443 919 q 486 904 472 904 q 522 919 510 904 q 551 975 535 935 l 644 929 q 585 834 622 869 q 485 799 547 799 z "},"œ":{"ha":1254,"x_min":65,"x_max":1213,"o":"m 390 -14 q 220 30 293 -14 q 106 153 147 74 q 65 338 65 232 q 106 524 65 444 q 220 647 147 603 q 390 692 293 692 q 562 647 489 692 q 676 524 635 603 q 717 338 717 444 q 676 153 717 232 q 562 30 635 74 q 390 -14 489 -14 m 397 119 q 536 180 483 119 q 589 338 589 240 q 536 497 589 436 q 397 558 483 558 q 260 498 313 558 q 207 339 207 438 q 260 180 207 240 q 397 119 313 119 m 900 -14 q 739 30 810 -14 q 628 153 668 74 q 589 338 589 232 q 628 524 589 444 q 739 647 668 603 q 900 692 810 692 q 1066 647 996 692 q 1174 524 1136 603 q 1213 338 1213 444 q 1212 317 1213 328 q 1210 299 1211 306 l 707 299 l 707 418 l 1110 418 l 1071 338 q 1031 511 1071 443 q 900 579 990 579 q 797 546 838 579 q 736 458 756 513 q 717 339 717 403 q 737 226 717 279 q 801 139 757 172 q 914 106 844 106 q 1026 140 985 106 q 1097 226 1068 175 l 1201 161 q 1082 30 1157 74 q 900 -14 1007 -14 z "},"p":{"ha":792,"x_min":89,"x_max":744,"o":"m 432 -14 q 272 30 340 -14 q 166 153 204 74 q 128 338 128 232 q 166 524 128 444 q 272 647 204 603 q 432 692 340 692 q 597 647 526 692 q 706 524 667 603 q 744 338 744 444 q 706 153 744 232 q 597 30 667 74 q 432 -14 526 -14 m 89 -264 l 89 678 l 194 678 l 228 542 l 214 542 l 214 156 l 228 156 l 228 -264 l 89 -264 m 411 106 q 550 169 497 106 q 603 338 603 233 q 550 508 603 443 q 411 572 497 572 q 274 508 326 572 q 221 339 221 444 q 274 169 221 233 q 411 106 326 106 z "},"þ":{"ha":792,"x_min":89,"x_max":744,"o":"m 432 -14 q 272 30 340 -14 q 166 153 204 74 q 128 338 128 232 q 166 524 128 444 q 272 647 204 603 q 432 692 340 692 q 597 647 526 692 q 706 524 667 603 q 744 338 744 444 q 706 153 744 232 q 597 30 667 74 q 432 -14 526 -14 m 89 -264 l 89 946 l 228 946 l 228 542 l 214 542 l 214 156 l 228 156 l 228 -264 l 89 -264 m 411 106 q 550 169 497 106 q 603 338 603 233 q 550 508 603 443 q 411 572 497 572 q 274 508 326 572 q 221 339 221 444 q 274 169 221 233 q 411 106 326 106 z "},"q":{"ha":792,"x_min":47,"x_max":703,"o":"m 360 -14 q 196 30 267 -14 q 86 153 125 74 q 47 338 47 232 q 86 524 47 444 q 196 647 125 603 q 360 692 267 692 q 519 647 451 692 q 626 524 588 603 q 664 338 664 444 q 626 153 664 232 q 519 30 588 74 q 360 -14 451 -14 m 381 106 q 519 169 467 106 q 571 339 571 233 q 519 508 571 444 q 381 572 467 572 q 242 508 294 572 q 189 338 189 443 q 242 169 189 233 q 381 106 294 106 m 564 -264 l 564 156 l 578 156 l 578 542 l 564 542 l 597 678 l 703 678 l 703 -264 l 564 -264 z "},"r":{"ha":479,"x_min":89,"x_max":450,"o":"m 194 678 l 228 494 l 228 0 l 89 0 l 89 678 l 194 678 m 207 438 l 174 453 l 174 554 l 186 569 q 230 623 200 594 q 300 672 260 651 q 382 692 340 692 q 422 689 403 692 q 450 679 440 686 l 450 554 l 407 554 q 269 526 313 554 q 207 438 226 497 z "},"ŕ":{"ha":479,"x_min":89,"x_max":474,"o":"m 194 678 l 228 494 l 228 0 l 89 0 l 89 678 l 194 678 m 207 438 l 174 453 l 174 554 l 186 569 q 230 623 200 594 q 300 672 260 651 q 382 692 340 692 q 422 689 403 692 q 450 679 440 686 l 450 554 l 407 554 q 269 526 313 554 q 207 438 226 497 m 261 774 l 192 846 l 403 1040 l 474 969 l 261 774 z "},"ř":{"ha":479,"x_min":76,"x_max":472,"o":"m 194 678 l 228 494 l 228 0 l 89 0 l 89 678 l 194 678 m 207 438 l 174 453 l 174 554 l 186 569 q 230 623 200 594 q 300 672 260 651 q 382 692 340 692 q 422 689 403 692 q 450 679 440 686 l 450 554 l 407 554 q 269 526 313 554 q 207 438 226 497 m 275 775 l 76 969 l 147 1040 l 318 867 l 229 868 l 401 1040 l 472 969 l 275 775 z "},"ŗ":{"ha":479,"x_min":54,"x_max":450,"o":"m 194 678 l 228 494 l 228 0 l 89 0 l 89 678 l 194 678 m 207 438 l 174 453 l 174 554 l 186 569 q 230 623 200 594 q 300 672 260 651 q 382 692 340 692 q 422 689 403 692 q 450 679 440 686 l 450 554 l 407 554 q 269 526 313 554 q 207 438 226 497 m 68 -406 l 60 -369 q 128 -324 108 -354 q 147 -257 147 -293 q 115 -169 147 -203 q 54 -119 83 -136 q 94 -79 74 -92 q 146 -67 114 -67 q 222 -100 186 -67 q 258 -196 258 -133 q 231 -297 258 -251 q 159 -370 203 -342 q 68 -406 115 -399 z "},"s":{"ha":600,"x_min":53,"x_max":547,"o":"m 306 -14 q 166 19 235 -14 q 53 133 97 53 l 158 203 q 232 128 197 151 q 322 106 267 106 q 391 128 367 106 q 415 185 415 151 q 403 224 415 207 q 363 255 392 240 q 279 283 333 269 q 125 353 179 310 q 71 489 71 396 q 99 590 71 544 q 179 664 126 636 q 304 692 232 692 q 451 656 390 692 q 547 572 513 621 l 440 493 q 383 542 421 518 q 289 567 346 567 q 225 547 254 567 q 196 493 196 528 q 223 437 196 458 q 322 399 250 415 q 496 323 444 369 q 547 200 547 276 q 513 85 547 133 q 424 12 479 38 q 306 -14 369 -14 z "},"ś":{"ha":600,"x_min":53,"x_max":547,"o":"m 306 -14 q 166 19 235 -14 q 53 133 97 53 l 158 203 q 232 128 197 151 q 322 106 267 106 q 391 128 367 106 q 415 185 415 151 q 403 224 415 207 q 363 255 392 240 q 279 283 333 269 q 125 353 179 310 q 71 489 71 396 q 99 590 71 544 q 179 664 126 636 q 304 692 232 692 q 451 656 390 692 q 547 572 513 621 l 440 493 q 383 542 421 518 q 289 567 346 567 q 225 547 254 567 q 196 493 196 528 q 223 437 196 458 q 322 399 250 415 q 496 323 444 369 q 547 200 547 276 q 513 85 547 133 q 424 12 479 38 q 306 -14 369 -14 m 292 774 l 222 846 l 433 1040 l 504 969 l 292 774 z "},"š":{"ha":600,"x_min":53,"x_max":547,"o":"m 306 -14 q 166 19 235 -14 q 53 133 97 53 l 158 203 q 232 128 197 151 q 322 106 267 106 q 391 128 367 106 q 415 185 415 151 q 403 224 415 207 q 363 255 392 240 q 279 283 333 269 q 125 353 179 310 q 71 489 71 396 q 99 590 71 544 q 179 664 126 636 q 304 692 232 692 q 451 656 390 692 q 547 572 513 621 l 440 493 q 383 542 421 518 q 289 567 346 567 q 225 547 254 567 q 196 493 196 528 q 223 437 196 458 q 322 399 250 415 q 496 323 444 369 q 547 200 547 276 q 513 85 547 133 q 424 12 479 38 q 306 -14 369 -14 m 306 775 l 107 969 l 178 1040 l 349 867 l 260 868 l 432 1040 l 503 969 l 306 775 z "},"ş":{"ha":600,"x_min":53,"x_max":547,"o":"m 306 -14 q 166 19 235 -14 q 53 133 97 53 l 158 203 q 232 128 197 151 q 322 106 267 106 q 391 128 367 106 q 415 185 415 151 q 403 224 415 207 q 363 255 392 240 q 279 283 333 269 q 125 353 179 310 q 71 489 71 396 q 99 590 71 544 q 179 664 126 636 q 304 692 232 692 q 451 656 390 692 q 547 572 513 621 l 440 493 q 383 542 421 518 q 289 567 346 567 q 225 547 254 567 q 196 493 196 528 q 223 437 196 458 q 322 399 250 415 q 496 323 444 369 q 547 200 547 276 q 513 85 547 133 q 424 12 479 38 q 306 -14 369 -14 m 315 -282 q 233 -271 269 -282 q 169 -242 197 -260 l 207 -175 q 250 -195 225 -186 q 304 -204 275 -204 q 357 -192 340 -204 q 374 -160 374 -179 q 358 -133 374 -143 q 299 -122 342 -122 l 232 -122 l 258 0 l 344 0 l 326 -96 l 300 -53 q 422 -81 383 -53 q 460 -158 460 -108 q 422 -249 460 -217 q 315 -282 385 -282 z "},"ș":{"ha":600,"x_min":53,"x_max":547,"o":"m 306 -14 q 166 19 235 -14 q 53 133 97 53 l 158 203 q 232 128 197 151 q 322 106 267 106 q 391 128 367 106 q 415 185 415 151 q 403 224 415 207 q 363 255 392 240 q 279 283 333 269 q 125 353 179 310 q 71 489 71 396 q 99 590 71 544 q 179 664 126 636 q 304 692 232 692 q 451 656 390 692 q 547 572 513 621 l 440 493 q 383 542 421 518 q 289 567 346 567 q 225 547 254 567 q 196 493 196 528 q 223 437 196 458 q 322 399 250 415 q 496 323 444 369 q 547 200 547 276 q 513 85 547 133 q 424 12 479 38 q 306 -14 369 -14 m 226 -406 l 218 -369 q 286 -324 267 -354 q 306 -257 306 -293 q 274 -169 306 -203 q 213 -119 242 -136 q 252 -79 232 -92 q 304 -67 272 -67 q 381 -100 344 -67 q 417 -196 417 -133 q 389 -297 417 -251 q 317 -370 361 -342 q 226 -406 274 -399 z "},"ß":{"ha":765,"x_min":89,"x_max":724,"o":"m 510 -21 q 378 11 443 -21 q 271 118 314 43 l 371 196 q 431 122 399 144 q 510 99 463 99 q 572 119 549 99 q 596 172 596 139 q 572 231 596 200 q 475 314 549 263 q 388 395 419 354 q 357 483 357 436 q 381 571 357 538 q 442 636 406 604 q 486 681 467 658 q 506 733 506 703 q 474 799 506 772 q 381 825 442 825 q 270 780 313 825 q 228 650 228 735 l 228 0 l 89 0 l 89 650 q 124 810 89 740 q 224 919 158 879 q 382 958 289 958 q 524 927 464 958 q 617 845 585 896 q 650 735 650 794 q 619 630 650 668 q 554 564 588 592 q 514 525 531 544 q 497 481 497 506 q 515 439 497 458 q 581 385 533 419 q 688 283 653 335 q 724 169 724 231 q 663 32 724 85 q 510 -21 603 -21 z "},"t":{"ha":499,"x_min":42,"x_max":429,"o":"m 339 -12 q 198 40 250 -12 q 146 201 146 92 l 146 669 l 146 678 l 172 831 l 285 831 l 285 199 q 305 140 285 160 q 356 121 325 121 q 397 124 379 121 q 429 131 415 126 l 429 1 q 390 -8 411 -4 q 339 -12 368 -12 m 42 550 l 42 678 l 429 678 l 429 550 l 42 550 z "},"ť":{"ha":499,"x_min":42,"x_max":472,"o":"m 339 -12 q 198 40 250 -12 q 146 201 146 92 l 146 669 l 146 678 l 172 831 l 285 831 l 285 199 q 305 140 285 160 q 356 121 325 121 q 397 124 379 121 q 429 131 415 126 l 429 1 q 390 -8 411 -4 q 339 -12 368 -12 m 42 550 l 42 678 l 429 678 l 429 550 l 42 550 m 472 1026 l 472 949 l 442 751 l 358 751 l 358 1026 l 472 1026 z "},"ț":{"ha":499,"x_min":42,"x_max":429,"o":"m 339 -12 q 198 40 250 -12 q 146 201 146 92 l 146 669 l 146 678 l 172 831 l 285 831 l 285 199 q 305 140 285 160 q 356 121 325 121 q 397 124 379 121 q 429 131 415 126 l 429 1 q 390 -8 411 -4 q 339 -12 368 -12 m 42 550 l 42 678 l 429 678 l 429 550 l 42 550 m 203 -406 l 194 -369 q 263 -324 243 -354 q 282 -257 282 -293 q 250 -169 282 -203 q 189 -119 218 -136 q 228 -79 208 -92 q 281 -67 249 -67 q 357 -100 321 -67 q 393 -196 393 -133 q 365 -297 393 -251 q 294 -370 338 -342 q 203 -406 250 -399 z "},"u":{"ha":765,"x_min":83,"x_max":676,"o":"m 303 -14 q 182 10 226 -14 q 117 76 138 35 q 90 168 96 117 q 83 274 83 219 l 83 678 l 222 678 l 222 244 q 255 147 222 172 q 332 122 288 122 q 423 140 378 122 q 505 190 468 158 q 560 257 542 221 l 560 179 l 538 179 l 538 678 l 676 678 l 676 0 l 571 0 l 542 119 l 576 124 q 496 49 540 81 q 403 2 451 18 q 303 -14 354 -14 z "},"ú":{"ha":765,"x_min":83,"x_max":676,"o":"m 303 -14 q 182 10 226 -14 q 117 76 138 35 q 90 168 96 117 q 83 274 83 219 l 83 678 l 222 678 l 222 244 q 255 147 222 172 q 332 122 288 122 q 423 140 378 122 q 505 190 468 158 q 560 257 542 221 l 560 179 l 538 179 l 538 678 l 676 678 l 676 0 l 571 0 l 542 119 l 576 124 q 496 49 540 81 q 403 2 451 18 q 303 -14 354 -14 m 367 774 l 297 846 l 508 1040 l 579 969 l 367 774 z "},"ŭ":{"ha":765,"x_min":83,"x_max":676,"o":"m 303 -14 q 182 10 226 -14 q 117 76 138 35 q 90 168 96 117 q 83 274 83 219 l 83 678 l 222 678 l 222 244 q 255 147 222 172 q 332 122 288 122 q 423 140 378 122 q 505 190 468 158 q 560 257 542 221 l 560 179 l 538 179 l 538 678 l 676 678 l 676 0 l 571 0 l 542 119 l 576 124 q 496 49 540 81 q 403 2 451 18 q 303 -14 354 -14 m 381 806 q 251 853 300 806 q 194 983 201 900 l 290 983 q 313 915 293 944 q 381 886 333 886 q 449 915 428 886 q 472 983 469 944 l 568 983 q 513 853 563 900 q 381 806 463 806 z "},"û":{"ha":765,"x_min":83,"x_max":676,"o":"m 303 -14 q 182 10 226 -14 q 117 76 138 35 q 90 168 96 117 q 83 274 83 219 l 83 678 l 222 678 l 222 244 q 255 147 222 172 q 332 122 288 122 q 423 140 378 122 q 505 190 468 158 q 560 257 542 221 l 560 179 l 538 179 l 538 678 l 676 678 l 676 0 l 571 0 l 542 119 l 576 124 q 496 49 540 81 q 403 2 451 18 q 303 -14 354 -14 m 251 775 l 181 846 l 378 1040 l 576 846 l 506 775 l 335 949 l 424 947 l 251 775 z "},"ü":{"ha":765,"x_min":83,"x_max":676,"o":"m 303 -14 q 182 10 226 -14 q 117 76 138 35 q 90 168 96 117 q 83 274 83 219 l 83 678 l 222 678 l 222 244 q 255 147 222 172 q 332 122 288 122 q 423 140 378 122 q 505 190 468 158 q 560 257 542 221 l 560 179 l 538 179 l 538 678 l 676 678 l 676 0 l 571 0 l 542 119 l 576 124 q 496 49 540 81 q 403 2 451 18 q 303 -14 354 -14 m 158 876 q 183 942 158 917 q 249 968 207 968 q 314 942 289 968 q 339 876 339 917 q 314 812 339 838 q 249 786 289 786 q 183 812 207 786 q 158 876 158 838 m 422 876 q 447 942 422 917 q 513 968 471 968 q 578 942 553 968 q 603 876 603 917 q 578 812 603 838 q 513 786 553 786 q 447 812 471 786 q 422 876 422 838 z "},"ù":{"ha":765,"x_min":83,"x_max":676,"o":"m 303 -14 q 182 10 226 -14 q 117 76 138 35 q 90 168 96 117 q 83 274 83 219 l 83 678 l 222 678 l 222 244 q 255 147 222 172 q 332 122 288 122 q 423 140 378 122 q 505 190 468 158 q 560 257 542 221 l 560 179 l 538 179 l 538 678 l 676 678 l 676 0 l 571 0 l 542 119 l 576 124 q 496 49 540 81 q 403 2 451 18 q 303 -14 354 -14 m 386 774 l 174 969 l 244 1040 l 456 846 l 386 774 z "},"ű":{"ha":765,"x_min":83,"x_max":676,"o":"m 303 -14 q 182 10 226 -14 q 117 76 138 35 q 90 168 96 117 q 83 274 83 219 l 83 678 l 222 678 l 222 244 q 255 147 222 172 q 332 122 288 122 q 423 140 378 122 q 505 190 468 158 q 560 257 542 221 l 560 179 l 538 179 l 538 678 l 676 678 l 676 0 l 571 0 l 542 119 l 576 124 q 496 49 540 81 q 403 2 451 18 q 303 -14 354 -14 m 308 765 l 218 804 l 331 1051 l 424 1015 l 308 765 m 501 765 l 411 804 l 524 1051 l 617 1015 l 501 765 z "},"ū":{"ha":765,"x_min":83,"x_max":676,"o":"m 303 -14 q 182 10 226 -14 q 117 76 138 35 q 90 168 96 117 q 83 274 83 219 l 83 678 l 222 678 l 222 244 q 255 147 222 172 q 332 122 288 122 q 423 140 378 122 q 505 190 468 158 q 560 257 542 221 l 560 179 l 538 179 l 538 678 l 676 678 l 676 0 l 571 0 l 542 119 l 576 124 q 496 49 540 81 q 403 2 451 18 q 303 -14 354 -14 m 569 811 l 193 811 l 193 908 l 569 908 l 569 811 z "},"ų":{"ha":765,"x_min":83,"x_max":688,"o":"m 303 -14 q 182 10 226 -14 q 117 76 138 35 q 90 168 96 117 q 83 274 83 219 l 83 678 l 222 678 l 222 244 q 255 147 222 172 q 332 122 288 122 q 446 151 389 122 q 538 224 503 181 l 538 678 l 676 678 l 676 0 q 590 -78 622 -35 q 558 -164 558 -122 q 619 -221 558 -221 q 649 -217 633 -221 q 675 -208 665 -212 l 688 -296 q 651 -309 675 -303 q 600 -315 628 -315 q 500 -287 540 -315 q 460 -190 460 -258 q 491 -87 460 -139 q 571 0 522 -35 l 549 93 q 434 14 497 42 q 303 -14 371 -14 z "},"ů":{"ha":765,"x_min":83,"x_max":676,"o":"m 303 -14 q 182 10 226 -14 q 117 76 138 35 q 90 168 96 117 q 83 274 83 219 l 83 678 l 222 678 l 222 244 q 255 147 222 172 q 332 122 288 122 q 423 140 378 122 q 505 190 468 158 q 560 257 542 221 l 560 179 l 538 179 l 538 678 l 676 678 l 676 0 l 571 0 l 542 119 l 576 124 q 496 49 540 81 q 403 2 451 18 q 303 -14 354 -14 m 381 776 q 306 795 340 776 q 252 847 272 814 q 232 919 232 879 q 252 994 232 961 q 306 1047 272 1028 q 381 1065 340 1065 q 456 1047 422 1065 q 509 994 489 1028 q 529 919 529 961 q 509 847 529 879 q 456 795 489 814 q 381 776 422 776 m 379 867 q 418 882 403 867 q 433 919 433 897 q 418 958 433 943 q 379 974 403 974 q 342 958 357 974 q 326 919 326 943 q 342 882 326 897 q 379 867 357 867 z "},"v":{"ha":704,"x_min":24,"x_max":681,"o":"m 681 678 l 425 0 l 293 0 l 24 678 l 178 678 l 367 151 l 349 151 l 529 678 l 681 678 z "},"w":{"ha":1013,"x_min":18,"x_max":994,"o":"m 232 0 l 18 678 l 157 678 l 297 179 l 285 179 l 443 678 l 569 678 l 728 179 l 715 179 l 856 678 l 994 678 l 781 0 l 663 0 l 494 529 l 518 529 l 350 0 l 232 0 z "},"ẃ":{"ha":1013,"x_min":18,"x_max":994,"o":"m 232 0 l 18 678 l 157 678 l 297 179 l 285 179 l 443 678 l 569 678 l 728 179 l 715 179 l 856 678 l 994 678 l 781 0 l 663 0 l 494 529 l 518 529 l 350 0 l 232 0 m 493 774 l 424 846 l 635 1040 l 706 969 l 493 774 z "},"ŵ":{"ha":1013,"x_min":18,"x_max":994,"o":"m 232 0 l 18 678 l 157 678 l 297 179 l 285 179 l 443 678 l 569 678 l 728 179 l 715 179 l 856 678 l 994 678 l 781 0 l 663 0 l 494 529 l 518 529 l 350 0 l 232 0 m 378 775 l 307 846 l 504 1040 l 703 846 l 632 775 l 461 949 l 550 947 l 378 775 z "},"ẅ":{"ha":1013,"x_min":18,"x_max":994,"o":"m 232 0 l 18 678 l 157 678 l 297 179 l 285 179 l 443 678 l 569 678 l 728 179 l 715 179 l 856 678 l 994 678 l 781 0 l 663 0 l 494 529 l 518 529 l 350 0 l 232 0 m 285 876 q 309 942 285 917 q 375 968 333 968 q 440 942 415 968 q 465 876 465 917 q 440 812 465 838 q 375 786 415 786 q 309 812 333 786 q 285 876 285 838 m 549 876 q 573 942 549 917 q 639 968 597 968 q 704 942 679 968 q 729 876 729 917 q 704 812 729 838 q 639 786 679 786 q 573 812 597 786 q 549 876 549 838 z "},"ẁ":{"ha":1013,"x_min":18,"x_max":994,"o":"m 232 0 l 18 678 l 157 678 l 297 179 l 285 179 l 443 678 l 569 678 l 728 179 l 715 179 l 856 678 l 994 678 l 781 0 l 663 0 l 494 529 l 518 529 l 350 0 l 232 0 m 513 774 l 300 969 l 371 1040 l 582 846 l 513 774 z "},"x":{"ha":679,"x_min":24,"x_max":656,"o":"m 488 0 l 314 268 l 364 268 l 192 0 l 24 0 l 279 374 l 279 304 l 24 678 l 192 678 l 364 410 l 315 410 l 488 678 l 656 678 l 400 304 l 400 374 l 656 0 l 488 0 z "},"y":{"ha":697,"x_min":21,"x_max":685,"o":"m 289 86 l 21 678 l 167 678 l 404 154 l 289 86 m 111 -264 l 539 678 l 685 678 l 257 -264 l 111 -264 z "},"ý":{"ha":697,"x_min":21,"x_max":685,"o":"m 289 86 l 21 678 l 167 678 l 404 154 l 289 86 m 111 -264 l 539 678 l 685 678 l 257 -264 l 111 -264 m 339 774 l 269 846 l 481 1040 l 551 969 l 339 774 z "},"ŷ":{"ha":697,"x_min":21,"x_max":685,"o":"m 289 86 l 21 678 l 167 678 l 404 154 l 289 86 m 111 -264 l 539 678 l 685 678 l 257 -264 l 111 -264 m 224 775 l 153 846 l 350 1040 l 549 846 l 478 775 l 307 949 l 396 947 l 224 775 z "},"ÿ":{"ha":697,"x_min":21,"x_max":685,"o":"m 289 86 l 21 678 l 167 678 l 404 154 l 289 86 m 111 -264 l 539 678 l 685 678 l 257 -264 l 111 -264 m 131 876 q 155 942 131 917 q 221 968 179 968 q 286 942 261 968 q 311 876 311 917 q 286 812 311 838 q 221 786 261 786 q 155 812 179 786 q 131 876 131 838 m 394 876 q 419 942 394 917 q 485 968 443 968 q 550 942 525 968 q 575 876 575 917 q 550 812 575 838 q 485 786 525 786 q 419 812 443 786 q 394 876 394 838 z "},"ỳ":{"ha":697,"x_min":21,"x_max":685,"o":"m 289 86 l 21 678 l 167 678 l 404 154 l 289 86 m 111 -264 l 539 678 l 685 678 l 257 -264 l 111 -264 m 358 774 l 146 969 l 217 1040 l 428 846 l 358 774 z "},"z":{"ha":629,"x_min":53,"x_max":576,"o":"m 576 128 l 576 0 l 53 0 l 53 108 l 444 610 l 490 550 l 61 550 l 61 678 l 571 678 l 571 569 l 178 68 l 93 128 l 576 128 z "},"ź":{"ha":629,"x_min":53,"x_max":576,"o":"m 576 128 l 576 0 l 53 0 l 53 108 l 444 610 l 490 550 l 61 550 l 61 678 l 571 678 l 571 569 l 178 68 l 93 128 l 576 128 m 303 774 l 233 846 l 444 1040 l 515 969 l 303 774 z "},"ž":{"ha":629,"x_min":53,"x_max":576,"o":"m 576 128 l 576 0 l 53 0 l 53 108 l 444 610 l 490 550 l 61 550 l 61 678 l 571 678 l 571 569 l 178 68 l 93 128 l 576 128 m 317 775 l 118 969 l 189 1040 l 360 867 l 271 868 l 443 1040 l 514 969 l 317 775 z "},"ż":{"ha":629,"x_min":53,"x_max":576,"o":"m 576 128 l 576 0 l 53 0 l 53 108 l 444 610 l 490 550 l 61 550 l 61 678 l 571 678 l 571 569 l 178 68 l 93 128 l 576 128 m 226 886 q 251 952 226 926 q 317 978 275 978 q 382 952 357 978 q 407 886 407 926 q 382 822 407 847 q 317 796 357 796 q 251 822 275 796 q 226 886 226 847 z "},"ﬁ":{"ha":758,"x_min":36,"x_max":688,"o":"m 140 0 l 140 744 q 164 865 140 818 q 231 935 188 913 q 333 958 274 958 q 383 954 361 958 q 424 944 406 950 l 424 815 q 394 820 408 818 q 360 822 379 822 q 304 802 329 822 q 279 733 279 782 l 279 0 l 140 0 m 410 550 l 36 550 l 36 678 l 410 678 l 410 550 m 667 0 l 528 0 l 528 678 l 667 678 l 667 0 m 507 886 q 531 952 507 926 q 597 978 556 978 q 663 952 638 978 q 688 886 688 926 q 663 822 688 847 q 597 796 638 796 q 531 822 556 796 q 507 886 507 847 z "},"ﬂ":{"ha":793,"x_min":36,"x_max":746,"o":"m 140 0 l 140 744 q 164 865 140 818 q 231 935 188 913 q 333 958 274 958 q 383 954 361 958 q 424 944 406 950 l 424 815 q 394 820 408 818 q 360 822 379 822 q 304 802 329 822 q 279 733 279 782 l 279 0 l 140 0 m 410 550 l 36 550 l 36 678 l 410 678 l 410 550 m 663 -7 q 599 10 626 -7 q 555 61 571 28 q 539 143 539 94 l 539 946 l 675 946 l 675 192 q 697 133 675 149 q 746 118 718 118 l 746 7 q 707 -3 728 0 q 663 -7 686 -7 z "},"ª":{"ha":528,"x_min":47,"x_max":475,"o":"m 239 419 q 142 443 186 419 q 73 506 99 467 q 47 596 47 546 q 74 689 47 650 q 146 749 101 728 q 243 771 190 771 q 338 751 303 771 q 390 704 372 731 q 412 658 407 678 q 417 638 417 638 l 361 650 l 361 779 q 338 836 361 811 q 263 861 314 861 q 198 854 233 861 q 124 829 163 847 l 90 915 q 182 949 140 938 q 283 960 224 960 q 426 904 378 960 q 475 750 475 849 l 475 435 l 390 435 l 368 538 l 432 604 q 406 516 432 558 q 335 447 379 474 q 239 419 292 419 m 261 518 q 333 540 304 518 q 361 596 361 563 q 333 651 361 628 q 261 674 306 674 q 190 651 218 674 q 163 596 163 628 q 190 540 163 563 q 261 518 218 518 z "},"º":{"ha":626,"x_min":47,"x_max":579,"o":"m 313 418 q 174 452 233 418 q 81 547 114 486 q 47 688 47 608 q 81 827 47 767 q 174 922 114 888 q 313 957 233 957 q 452 922 392 957 q 546 827 513 888 q 579 688 579 767 q 546 547 579 608 q 452 452 513 486 q 313 418 392 418 m 313 533 q 412 576 375 533 q 449 688 449 619 q 412 799 449 757 q 313 842 375 842 q 214 799 250 842 q 178 688 178 757 q 214 576 178 619 q 313 533 250 533 z "},"Ⅰ":{"ha":622,"x_min":47,"x_max":575,"o":"m 575 0 l 47 0 l 47 133 l 575 133 l 575 0 m 242 903 l 381 903 l 381 0 l 242 0 l 242 903 m 575 903 l 575 769 l 47 769 l 47 903 l 575 903 z "},"Ⅱ":{"ha":1039,"x_min":47,"x_max":992,"o":"m 47 769 l 47 903 l 992 903 l 992 769 l 47 769 m 47 0 l 47 133 l 992 133 l 992 0 l 47 0 m 242 903 l 381 903 l 381 0 l 242 0 l 242 903 m 658 903 l 797 903 l 797 0 l 658 0 l 658 903 z "},"Ⅲ":{"ha":1442,"x_min":47,"x_max":1394,"o":"m 47 769 l 47 903 l 1394 903 l 1394 769 l 47 769 m 47 0 l 47 133 l 1394 133 l 1394 0 l 47 0 m 242 903 l 381 903 l 381 0 l 242 0 l 242 903 m 658 903 l 797 903 l 797 0 l 658 0 l 658 903 m 1061 903 l 1200 903 l 1200 0 l 1061 0 l 1061 903 z "},"Ⅳ":{"ha":1347,"x_min":47,"x_max":1324,"o":"m 47 769 l 47 903 l 1324 903 l 1324 769 l 47 769 m 47 0 l 47 133 l 1324 133 l 1324 0 l 47 0 m 242 903 l 381 903 l 381 0 l 242 0 l 242 903 m 492 889 l 631 889 l 908 14 l 769 14 l 492 889 m 1088 889 l 1226 889 l 949 14 l 810 14 l 1088 889 z "},"Ⅴ":{"ha":976,"x_min":24,"x_max":953,"o":"m 24 769 l 24 903 l 953 903 l 953 769 l 24 769 m 24 0 l 24 133 l 953 133 l 953 0 l 24 0 m 121 889 l 260 889 l 538 14 l 399 14 l 121 889 m 717 889 l 856 889 l 578 14 l 439 14 l 717 889 z "},"Ⅵ":{"ha":1347,"x_min":24,"x_max":1300,"o":"m 1300 769 l 24 769 l 24 903 l 1300 903 l 1300 769 m 1300 0 l 24 0 l 24 133 l 1300 133 l 1300 0 m 1106 903 l 1106 0 l 967 0 l 967 903 l 1106 903 m 856 889 l 578 14 l 439 14 l 717 889 l 856 889 m 260 889 l 538 14 l 399 14 l 121 889 l 260 889 z "},"Ⅶ":{"ha":1764,"x_min":24,"x_max":1717,"o":"m 24 769 l 24 903 l 1717 903 l 1717 769 l 24 769 m 24 0 l 24 133 l 1717 133 l 1717 0 l 24 0 m 856 889 l 578 14 l 439 14 l 717 889 l 856 889 m 260 889 l 538 14 l 399 14 l 121 889 l 260 889 m 967 903 l 1106 903 l 1106 0 l 967 0 l 967 903 m 1383 903 l 1522 903 l 1522 0 l 1383 0 l 1383 903 z "},"Ⅷ":{"ha":2167,"x_min":24,"x_max":2119,"o":"m 24 769 l 24 903 l 2119 903 l 2119 769 l 24 769 m 24 0 l 24 133 l 2119 133 l 2119 0 l 24 0 m 856 889 l 578 14 l 439 14 l 717 889 l 856 889 m 260 889 l 538 14 l 399 14 l 121 889 l 260 889 m 967 903 l 1106 903 l 1106 0 l 967 0 l 967 903 m 1383 903 l 1522 903 l 1522 0 l 1383 0 l 1383 903 m 1786 903 l 1925 903 l 1925 0 l 1786 0 l 1786 903 z "},"Ⅸ":{"ha":1335,"x_min":47,"x_max":1293,"o":"m 47 769 l 47 903 l 1293 903 l 1293 769 l 47 769 m 47 0 l 47 133 l 1293 133 l 1293 0 l 47 0 m 242 903 l 381 903 l 381 0 l 242 0 l 242 903 m 1065 14 l 821 379 l 868 379 l 622 14 l 469 14 l 768 451 l 469 889 l 622 889 l 868 524 l 821 524 l 1065 889 l 1218 889 l 921 451 l 1218 14 l 1065 14 z "},"Ⅹ":{"ha":982,"x_min":42,"x_max":940,"o":"m 42 769 l 42 903 l 940 903 l 940 769 l 42 769 m 42 0 l 42 133 l 940 133 l 940 0 l 42 0 m 725 14 l 467 383 l 514 383 l 254 14 l 101 14 l 414 451 l 101 889 l 254 889 l 514 519 l 467 519 l 725 889 l 878 889 l 567 451 l 878 14 l 725 14 z "},"Ⅼ":{"ha":840,"x_min":47,"x_max":811,"o":"m 761 0 l 47 0 l 47 133 l 761 133 l 761 0 m 200 903 l 339 903 l 339 0 l 200 0 l 200 903 m 533 903 l 533 769 l 47 769 l 47 903 l 533 903 m 672 347 l 811 347 l 811 0 l 672 0 l 672 347 z "},"Ⅽ":{"ha":1036,"x_min":65,"x_max":942,"o":"m 496 -14 q 319 20 399 -14 q 183 116 240 54 q 96 262 126 178 q 65 444 65 346 q 119 688 65 581 q 270 856 174 794 q 496 917 367 917 q 668 878 588 917 q 805 770 749 839 q 879 611 861 701 l 803 569 q 695 724 772 665 q 515 783 618 783 q 358 740 428 783 q 247 619 288 696 q 207 444 207 543 q 247 278 207 351 q 358 162 288 204 q 515 119 428 119 q 695 178 618 119 q 803 333 772 238 l 879 292 q 805 133 861 201 q 668 25 749 64 q 496 -14 588 -14 m 803 0 l 803 221 l 803 333 l 942 333 l 942 0 l 803 0 m 803 569 l 803 658 l 803 903 l 942 903 l 942 569 l 803 569 z "},"Ⅾ":{"ha":1021,"x_min":47,"x_max":956,"o":"m 47 903 l 511 903 q 740 847 639 903 q 898 689 840 792 q 956 443 956 586 q 898 202 956 301 q 740 51 840 103 q 510 0 639 0 l 47 0 l 47 132 l 503 132 q 658 165 588 132 q 769 267 728 199 q 811 443 811 336 q 769 623 811 550 q 658 733 728 696 q 504 771 589 771 l 47 771 l 47 903 m 214 903 l 353 903 l 353 0 l 214 0 l 214 903 z "},"Ⅿ":{"ha":1340,"x_min":13,"x_max":1328,"o":"m 13 0 l 13 133 l 129 133 l 256 769 l 89 769 l 89 903 l 438 903 l 671 286 l 903 903 l 1238 903 l 1238 769 l 1085 769 l 1211 133 l 1328 133 l 1328 0 l 967 0 l 967 133 l 1065 133 l 997 531 l 961 707 q 922 582 942 644 q 881 457 901 519 l 728 15 l 613 15 l 460 457 q 419 582 439 519 q 379 707 399 644 l 343 531 l 275 133 l 374 133 l 374 0 l 13 0 z "},"➀":{"ha":1082,"x_min":53,"x_max":1029,"o":"m 542 -29 q 350 9 439 -29 q 194 116 261 47 q 90 276 128 185 q 53 474 53 368 q 90 671 53 579 q 194 831 128 763 q 350 939 261 900 q 542 978 439 978 q 733 939 644 978 q 888 831 821 900 q 992 671 954 763 q 1029 474 1029 579 q 992 276 1029 368 q 888 116 954 185 q 733 9 821 47 q 542 -29 644 -29 m 490 196 l 490 575 q 434 553 468 561 q 358 546 400 546 l 358 665 q 444 676 408 665 q 503 705 481 686 q 535 749 526 724 l 615 749 l 615 196 l 490 196 m 542 74 q 738 127 651 74 q 876 272 825 181 q 926 474 926 363 q 897 630 926 557 q 816 758 868 703 q 694 844 764 813 q 542 875 624 875 q 344 821 432 875 q 206 676 257 767 q 156 474 156 585 q 206 272 156 363 q 344 127 257 181 q 542 74 432 74 z "},"➁":{"ha":1082,"x_min":53,"x_max":1029,"o":"m 542 -29 q 350 9 439 -29 q 194 116 261 47 q 90 276 128 185 q 53 474 53 368 q 90 671 53 579 q 194 831 128 763 q 350 939 261 900 q 542 978 439 978 q 733 939 644 978 q 888 831 821 900 q 992 671 954 763 q 1029 474 1029 579 q 992 276 1029 368 q 888 116 954 185 q 733 9 821 47 q 542 -29 644 -29 m 542 74 q 738 127 651 74 q 876 272 825 181 q 926 474 926 363 q 897 630 926 557 q 816 758 868 703 q 694 844 764 813 q 542 875 624 875 q 344 821 432 875 q 206 676 257 767 q 156 474 156 585 q 206 272 156 363 q 344 127 257 181 q 542 74 432 74 m 340 206 l 340 279 l 501 443 q 576 528 549 492 q 604 596 604 565 q 583 642 604 626 q 538 657 563 657 q 485 644 511 657 q 431 592 460 631 l 336 656 q 419 739 372 708 q 538 769 465 769 q 631 748 589 769 q 699 689 674 726 q 725 600 725 651 q 699 516 725 560 q 621 415 674 472 l 535 324 l 732 324 l 732 206 l 340 206 z "},"➂":{"ha":1082,"x_min":53,"x_max":1029,"o":"m 542 -29 q 350 9 439 -29 q 194 116 261 47 q 90 276 128 185 q 53 474 53 368 q 90 671 53 579 q 194 831 128 763 q 350 939 261 900 q 542 978 439 978 q 733 939 644 978 q 888 831 821 900 q 992 671 954 763 q 1029 474 1029 579 q 992 276 1029 368 q 888 116 954 185 q 733 9 821 47 q 542 -29 644 -29 m 542 74 q 738 127 651 74 q 876 272 825 181 q 926 474 926 363 q 897 630 926 557 q 816 758 868 703 q 694 844 764 813 q 542 875 624 875 q 344 821 432 875 q 206 676 257 767 q 156 474 156 585 q 206 272 156 363 q 344 127 257 181 q 542 74 432 74 m 532 185 q 421 210 471 185 q 342 283 371 236 l 418 361 q 473 310 450 324 q 535 296 496 296 q 591 312 567 296 q 615 357 615 328 q 594 404 615 381 q 508 428 574 428 q 477 427 494 428 q 449 425 460 426 l 449 519 q 480 517 472 518 q 503 517 488 517 q 567 538 543 517 q 592 593 592 558 q 571 635 592 619 q 517 651 550 651 q 460 634 489 651 q 408 585 432 617 l 333 663 q 423 738 378 715 q 529 761 468 761 q 659 720 608 761 q 710 615 710 679 q 649 492 710 532 q 717 442 692 474 q 743 369 743 410 q 715 274 743 317 q 640 208 688 232 q 532 185 592 185 z "},"➃":{"ha":1082,"x_min":53,"x_max":1029,"o":"m 542 -29 q 350 9 439 -29 q 194 116 261 47 q 90 276 128 185 q 53 474 53 368 q 90 671 53 579 q 194 831 128 763 q 350 939 261 900 q 542 978 439 978 q 733 939 644 978 q 888 831 821 900 q 992 671 954 763 q 1029 474 1029 579 q 992 276 1029 368 q 888 116 954 185 q 733 9 821 47 q 542 -29 644 -29 m 542 74 q 738 127 651 74 q 876 272 825 181 q 926 474 926 363 q 897 630 926 557 q 816 758 868 703 q 694 844 764 813 q 542 875 624 875 q 344 821 432 875 q 206 676 257 767 q 156 474 156 585 q 206 272 156 363 q 344 127 257 181 q 542 74 432 74 m 564 201 l 564 321 l 299 321 l 299 372 l 406 754 l 528 754 l 439 439 l 564 439 l 597 582 l 688 582 l 688 439 l 761 439 l 761 321 l 688 321 l 688 201 l 564 201 z "},"➄":{"ha":1082,"x_min":53,"x_max":1029,"o":"m 542 -29 q 350 9 439 -29 q 194 116 261 47 q 90 276 128 185 q 53 474 53 368 q 90 671 53 579 q 194 831 128 763 q 350 939 261 900 q 542 978 439 978 q 733 939 644 978 q 888 831 821 900 q 992 671 954 763 q 1029 474 1029 579 q 992 276 1029 368 q 888 116 954 185 q 733 9 821 47 q 542 -29 644 -29 m 533 183 q 461 194 494 183 q 402 226 428 206 q 360 274 376 246 l 436 343 q 477 305 451 321 q 538 289 503 289 q 597 310 571 289 q 624 369 624 332 q 601 424 624 401 q 542 446 578 446 q 484 431 510 446 q 442 394 458 417 l 358 415 l 358 747 l 710 747 l 710 629 l 468 629 l 468 522 q 508 542 486 535 q 557 550 531 550 q 689 501 639 550 q 739 374 739 453 q 712 275 739 318 q 638 208 685 232 q 533 183 592 183 m 542 74 q 738 127 651 74 q 876 272 825 181 q 926 474 926 363 q 897 630 926 557 q 816 758 868 703 q 694 844 764 813 q 542 875 624 875 q 344 821 432 875 q 206 676 257 767 q 156 474 156 585 q 206 272 156 363 q 344 127 257 181 q 542 74 432 74 z "},"➅":{"ha":1082,"x_min":53,"x_max":1029,"o":"m 542 -29 q 350 9 439 -29 q 194 116 261 47 q 90 276 128 185 q 53 474 53 368 q 90 671 53 579 q 194 831 128 763 q 350 939 261 900 q 542 978 439 978 q 733 939 644 978 q 888 831 821 900 q 992 671 954 763 q 1029 474 1029 579 q 992 276 1029 368 q 888 116 954 185 q 733 9 821 47 q 542 -29 644 -29 m 542 74 q 738 127 651 74 q 876 272 825 181 q 926 474 926 363 q 897 630 926 557 q 816 758 868 703 q 694 844 764 813 q 542 875 624 875 q 344 821 432 875 q 206 676 257 767 q 156 474 156 585 q 206 272 156 363 q 344 127 257 181 q 542 74 432 74 m 536 189 q 425 222 474 189 q 348 311 376 254 q 319 442 319 368 q 386 679 319 594 q 572 764 453 764 q 673 744 625 764 q 754 686 721 724 l 686 606 q 631 644 660 633 q 565 656 601 656 q 478 617 518 656 q 431 494 439 578 q 492 532 458 518 q 563 546 525 546 q 659 524 617 546 q 725 465 701 503 q 749 379 749 428 q 692 242 749 294 q 536 189 635 189 m 544 289 q 611 312 586 289 q 636 371 636 335 q 611 429 636 407 q 544 451 586 451 q 478 429 504 451 q 453 371 453 407 q 478 312 453 335 q 544 289 504 289 z "},"➆":{"ha":1082,"x_min":53,"x_max":1029,"o":"m 542 -29 q 350 9 439 -29 q 194 116 261 47 q 90 276 128 185 q 53 474 53 368 q 90 671 53 579 q 194 831 128 763 q 350 939 261 900 q 542 978 439 978 q 733 939 644 978 q 888 831 821 900 q 992 671 954 763 q 1029 474 1029 579 q 992 276 1029 368 q 888 116 954 185 q 733 9 821 47 q 542 -29 644 -29 m 542 74 q 738 127 651 74 q 876 272 825 181 q 926 474 926 363 q 897 630 926 557 q 816 758 868 703 q 694 844 764 813 q 542 875 624 875 q 344 821 432 875 q 206 676 257 767 q 156 474 156 585 q 206 272 156 363 q 344 127 257 181 q 542 74 432 74 m 390 194 l 579 629 l 350 629 l 350 747 l 735 747 l 735 678 l 522 194 l 390 194 z "},"➇":{"ha":1082,"x_min":53,"x_max":1029,"o":"m 542 -29 q 350 9 439 -29 q 194 116 261 47 q 90 276 128 185 q 53 474 53 368 q 90 671 53 579 q 194 831 128 763 q 350 939 261 900 q 542 978 439 978 q 733 939 644 978 q 888 831 821 900 q 992 671 954 763 q 1029 474 1029 579 q 992 276 1029 368 q 888 116 954 185 q 733 9 821 47 q 542 -29 644 -29 m 542 285 q 601 308 579 285 q 622 360 622 332 q 601 412 622 386 q 542 438 579 438 q 479 413 501 438 q 457 360 457 388 q 480 308 457 331 q 542 285 503 285 m 542 74 q 738 127 651 74 q 876 272 825 181 q 926 474 926 363 q 897 630 926 557 q 816 758 868 703 q 694 844 764 813 q 542 875 624 875 q 344 821 432 875 q 206 676 257 767 q 156 474 156 585 q 206 272 156 363 q 344 127 257 181 q 542 74 432 74 m 542 185 q 428 208 475 185 q 356 269 381 231 q 332 356 332 308 q 353 428 332 392 q 424 483 375 465 q 360 537 378 506 q 342 599 342 568 q 365 678 342 642 q 433 738 389 715 q 542 760 478 760 q 648 737 604 760 q 715 678 692 714 q 739 599 739 642 q 721 537 739 568 q 657 485 703 506 q 728 427 706 464 q 750 353 750 390 q 726 269 750 308 q 655 208 701 231 q 542 185 608 185 m 542 517 q 593 541 574 517 q 613 590 613 565 q 593 638 613 615 q 542 661 574 661 q 488 639 507 661 q 468 590 468 617 q 488 541 468 565 q 542 517 507 517 z "},"➈":{"ha":1082,"x_min":53,"x_max":1029,"o":"m 542 -29 q 350 9 439 -29 q 194 116 261 47 q 90 276 128 185 q 53 474 53 368 q 90 671 53 579 q 194 831 128 763 q 350 939 261 900 q 542 978 439 978 q 733 939 644 978 q 888 831 821 900 q 992 671 954 763 q 1029 474 1029 579 q 992 276 1029 368 q 888 116 954 185 q 733 9 821 47 q 542 -29 644 -29 m 542 74 q 738 127 651 74 q 876 272 825 181 q 926 474 926 363 q 897 630 926 557 q 816 758 868 703 q 694 844 764 813 q 542 875 624 875 q 344 821 432 875 q 206 676 257 767 q 156 474 156 585 q 206 272 156 363 q 344 127 257 181 q 542 74 432 74 m 510 185 q 410 205 458 185 q 328 263 361 225 l 396 343 q 451 305 424 317 q 518 293 479 293 q 603 332 563 293 q 651 454 643 371 q 590 417 624 431 q 519 403 557 403 q 423 424 465 403 q 357 483 381 446 q 333 569 333 521 q 391 707 333 654 q 546 760 449 760 q 658 727 608 760 q 735 638 707 694 q 763 507 763 581 q 696 269 763 354 q 510 185 629 185 m 538 497 q 603 520 578 497 q 629 578 629 543 q 603 637 629 614 q 538 660 578 660 q 471 637 496 660 q 446 578 446 614 q 471 520 446 543 q 538 497 496 497 z "},"➊":{"ha":996,"x_min":71,"x_max":925,"o":"m 499 32 q 331 66 408 32 q 194 160 253 100 q 103 301 136 221 q 71 474 71 381 q 103 647 71 567 q 194 788 136 728 q 331 883 253 849 q 499 917 408 917 q 667 883 589 917 q 802 788 744 849 q 892 647 860 728 q 925 474 925 567 q 892 301 925 381 q 802 160 860 221 q 667 66 744 100 q 499 32 589 32 m 447 196 l 572 196 l 572 749 l 492 749 q 460 705 483 724 q 401 676 438 686 q 315 665 365 665 l 315 546 q 391 553 357 546 q 447 575 425 561 l 447 196 z "},"➋":{"ha":996,"x_min":71,"x_max":925,"o":"m 71 474 q 103 647 71 567 q 194 788 136 728 q 331 883 253 849 q 499 917 408 917 q 667 883 589 917 q 802 788 744 849 q 892 647 860 728 q 925 474 925 567 q 892 301 925 381 q 802 160 860 221 q 667 66 744 100 q 499 32 589 32 q 331 66 408 32 q 194 160 253 100 q 103 301 136 221 q 71 474 71 381 m 689 324 l 492 324 l 578 415 q 656 516 631 472 q 682 600 682 560 q 656 689 682 651 q 588 748 631 726 q 494 769 546 769 q 376 739 422 769 q 293 656 329 708 l 388 592 q 442 644 417 631 q 494 657 468 657 q 540 642 519 657 q 561 596 561 626 q 533 528 561 565 q 458 443 506 492 l 297 279 l 297 206 l 689 206 l 689 324 z "},"➌":{"ha":996,"x_min":71,"x_max":925,"o":"m 71 474 q 103 647 71 567 q 194 788 136 728 q 331 883 253 849 q 499 917 408 917 q 667 883 589 917 q 802 788 744 849 q 892 647 860 728 q 925 474 925 567 q 892 301 925 381 q 802 160 860 221 q 667 66 744 100 q 499 32 589 32 q 331 66 408 32 q 194 160 253 100 q 103 301 136 221 q 71 474 71 381 m 700 369 q 674 442 700 410 q 606 492 649 474 q 667 615 667 532 q 616 720 667 679 q 486 761 565 761 q 380 738 425 761 q 290 663 335 715 l 365 585 q 417 634 389 617 q 474 651 446 651 q 528 635 507 651 q 549 593 549 619 q 524 538 549 558 q 460 517 500 517 q 437 517 444 517 q 406 519 429 518 l 406 425 q 434 427 417 426 q 465 428 451 428 q 551 404 531 428 q 572 357 572 381 q 548 312 572 328 q 492 296 524 296 q 430 310 453 296 q 375 361 407 324 l 299 283 q 378 210 328 236 q 489 185 428 185 q 597 208 549 185 q 672 274 644 232 q 700 369 700 317 z "},"➍":{"ha":996,"x_min":71,"x_max":925,"o":"m 71 474 q 103 647 71 567 q 194 788 136 728 q 331 883 253 849 q 499 917 408 917 q 667 883 589 917 q 802 788 744 849 q 892 647 860 728 q 925 474 925 567 q 892 301 925 381 q 802 160 860 221 q 667 66 744 100 q 499 32 589 32 q 331 66 408 32 q 194 160 253 100 q 103 301 136 221 q 71 474 71 381 m 718 321 l 718 439 l 644 439 l 644 582 l 554 582 l 521 439 l 396 439 l 485 754 l 363 754 l 256 372 l 256 321 l 521 321 l 521 201 l 644 201 l 644 321 l 718 321 z "},"➎":{"ha":996,"x_min":71,"x_max":925,"o":"m 499 32 q 331 66 408 32 q 194 160 253 100 q 103 301 136 221 q 71 474 71 381 q 103 647 71 567 q 194 788 136 728 q 331 883 253 849 q 499 917 408 917 q 667 883 589 917 q 802 788 744 849 q 892 647 860 728 q 925 474 925 567 q 892 301 925 381 q 802 160 860 221 q 667 66 744 100 q 499 32 589 32 m 490 183 q 595 208 549 183 q 669 275 642 232 q 696 374 696 318 q 646 501 696 453 q 514 550 596 550 q 465 542 488 550 q 425 522 443 535 l 425 629 l 667 629 l 667 747 l 315 747 l 315 415 l 399 394 q 441 431 415 417 q 499 446 467 446 q 558 424 535 446 q 581 369 581 401 q 554 310 581 332 q 494 289 528 289 q 434 305 460 289 q 393 343 408 321 l 317 274 q 359 226 333 246 q 418 194 385 206 q 490 183 451 183 z "},"➏":{"ha":996,"x_min":71,"x_max":925,"o":"m 925 475 q 892 301 925 382 q 801 160 860 221 q 665 66 743 100 q 497 32 588 32 q 329 66 407 32 q 194 160 251 100 q 103 301 136 221 q 71 475 71 382 q 103 648 71 568 q 194 788 136 728 q 329 883 251 849 q 497 917 407 917 q 665 883 588 917 q 801 788 743 849 q 892 648 860 728 q 925 475 925 568 m 276 442 q 304 311 276 368 q 381 222 332 254 q 493 189 431 189 q 649 242 592 189 q 706 379 706 294 q 682 465 706 428 q 616 524 658 503 q 519 546 574 546 q 449 532 482 546 q 388 494 415 518 q 436 617 396 578 q 521 656 476 656 q 588 644 558 656 q 643 606 617 633 l 711 686 q 630 744 678 724 q 529 764 582 764 q 343 679 410 764 q 276 442 276 594 m 410 371 q 435 429 410 407 q 501 451 461 451 q 568 429 543 451 q 593 371 593 407 q 568 312 593 335 q 501 289 543 289 q 435 312 461 289 q 410 371 410 335 z "},"➐":{"ha":996,"x_min":71,"x_max":925,"o":"m 71 474 q 103 647 71 567 q 194 788 136 728 q 331 883 253 849 q 499 917 408 917 q 667 883 589 917 q 802 788 744 849 q 892 647 860 728 q 925 474 925 567 q 892 301 925 381 q 802 160 860 221 q 667 66 744 100 q 499 32 589 32 q 331 66 408 32 q 194 160 253 100 q 103 301 136 221 q 71 474 71 381 m 692 678 l 692 747 l 307 747 l 307 629 l 536 629 l 347 194 l 479 194 l 692 678 z "},"➑":{"ha":996,"x_min":71,"x_max":925,"o":"m 499 32 q 331 66 408 32 q 194 160 253 100 q 103 301 136 221 q 71 474 71 381 q 103 647 71 567 q 194 788 136 728 q 331 883 253 849 q 499 917 408 917 q 667 883 589 917 q 802 788 744 849 q 892 647 860 728 q 925 474 925 567 q 892 301 925 381 q 802 160 860 221 q 667 66 744 100 q 499 32 589 32 m 499 285 q 437 308 460 285 q 414 360 414 331 q 436 413 414 388 q 499 438 458 438 q 558 412 536 438 q 579 360 579 386 q 558 308 579 332 q 499 285 536 285 m 499 185 q 612 208 565 185 q 683 269 658 231 q 707 353 707 308 q 685 427 707 390 q 614 485 663 464 q 678 537 660 506 q 696 599 696 568 q 673 678 696 642 q 606 737 650 714 q 499 760 561 760 q 390 738 435 760 q 322 678 346 715 q 299 599 299 642 q 317 537 299 568 q 381 483 335 506 q 310 428 332 465 q 289 356 289 392 q 313 269 289 308 q 385 208 338 231 q 499 185 432 185 m 499 517 q 444 541 464 517 q 425 590 425 565 q 444 639 425 617 q 499 661 464 661 q 550 638 531 661 q 569 590 569 615 q 550 541 569 565 q 499 517 531 517 z "},"➒":{"ha":996,"x_min":71,"x_max":925,"o":"m 71 474 q 103 647 71 567 q 194 788 136 728 q 331 883 253 849 q 499 917 408 917 q 667 883 589 917 q 802 788 744 849 q 892 647 860 728 q 925 474 925 567 q 892 301 925 381 q 802 160 860 221 q 667 66 744 100 q 499 32 589 32 q 331 66 408 32 q 194 160 253 100 q 103 301 136 221 q 71 474 71 381 m 719 507 q 692 638 719 581 q 615 727 664 694 q 503 760 565 760 q 348 707 406 760 q 290 569 290 654 q 314 483 290 521 q 380 424 338 446 q 476 403 422 403 q 547 417 514 403 q 608 454 581 431 q 560 332 600 371 q 476 293 521 293 q 408 305 436 293 q 353 343 381 317 l 285 263 q 367 205 318 225 q 467 185 415 185 q 653 269 586 185 q 719 507 719 354 m 586 578 q 560 520 586 543 q 494 497 535 497 q 428 520 453 497 q 403 578 403 543 q 428 637 403 614 q 494 660 453 660 q 560 637 535 660 q 586 578 586 614 z "},"⁄":{"ha":332,"x_min":-221,"x_max":553,"o":"m -137 -58 l -221 0 l 465 972 l 553 919 l -137 -58 z "},"½":{"ha":1128,"x_min":13,"x_max":1086,"o":"m 144 835 l 188 822 q 129 765 175 786 q 13 743 83 743 l 13 863 q 99 873 63 863 q 158 902 136 883 q 189 946 181 921 l 269 946 l 269 393 l 144 393 l 144 835 m 185 -58 l 101 0 l 788 972 l 875 919 l 185 -58 m 1079 394 q 1053 310 1079 354 q 975 210 1028 267 l 864 92 l 849 118 l 1086 118 l 1086 0 l 694 0 l 694 74 l 856 238 q 931 323 903 286 q 958 390 958 360 q 938 436 958 421 q 892 451 917 451 q 840 438 865 451 q 785 386 814 425 l 690 450 q 773 533 726 503 q 892 564 819 564 q 985 542 943 564 q 1053 483 1028 521 q 1079 394 1079 446 z "},"¼":{"ha":1136,"x_min":13,"x_max":1113,"o":"m 144 835 l 188 822 q 129 765 175 786 q 13 743 83 743 l 13 863 q 99 873 63 863 q 158 902 136 883 q 189 946 181 921 l 269 946 l 269 393 l 144 393 l 144 835 m 185 -58 l 101 0 l 788 972 l 875 919 l 185 -58 m 1039 381 l 1039 0 l 915 0 l 915 192 l 917 229 l 949 381 l 1039 381 m 653 119 l 653 171 l 781 553 l 903 553 l 771 157 l 757 238 l 1113 238 l 1113 119 l 653 119 z "},"¾":{"ha":1265,"x_min":18,"x_max":1242,"o":"m 217 381 q 106 406 156 381 q 26 479 56 432 l 103 557 q 140 518 124 532 q 175 498 157 504 q 219 492 193 492 q 276 508 251 492 q 300 553 300 524 q 279 600 300 576 q 193 624 258 624 q 162 623 179 624 q 133 621 144 622 l 133 715 q 165 713 157 714 q 188 713 172 713 q 252 733 228 713 q 276 789 276 754 q 256 831 276 815 q 201 847 235 847 q 145 830 174 847 q 93 781 117 813 l 18 858 q 108 934 63 911 q 214 957 153 957 q 344 916 293 957 q 394 811 394 875 q 346 697 394 738 q 203 657 297 657 l 232 708 q 331 690 286 708 q 401 638 375 671 q 428 565 428 606 q 400 470 428 513 q 324 404 372 428 q 217 381 276 381 m 314 -58 l 231 0 l 917 972 l 1004 919 l 314 -58 m 1168 381 l 1168 0 l 1044 0 l 1044 192 l 1046 229 l 1078 381 l 1168 381 m 782 119 l 782 171 l 910 553 l 1032 553 l 900 157 l 886 238 l 1242 238 l 1242 119 l 782 119 z "},"₀":{"ha":513,"x_min":36,"x_max":476,"o":"m 257 -178 q 96 -100 156 -178 q 36 110 36 -22 q 96 319 36 242 q 257 397 156 397 q 418 319 360 397 q 476 110 476 242 q 418 -100 476 -22 q 257 -178 360 -178 m 257 281 q 201 258 222 281 q 169 198 179 236 q 160 110 160 160 q 183 -10 160 42 q 257 -62 206 -62 q 331 -10 308 -62 q 353 110 353 42 q 343 198 353 160 q 313 258 333 236 q 257 281 292 281 z "},"₁":{"ha":322,"x_min":13,"x_max":269,"o":"m 144 275 l 188 263 q 129 205 175 226 q 13 183 83 183 l 13 303 q 99 313 63 303 q 158 342 136 324 q 189 386 181 361 l 269 386 l 269 -167 l 144 -167 l 144 275 z "},"₂":{"ha":474,"x_min":36,"x_max":432,"o":"m 425 228 q 399 144 425 188 q 321 43 374 100 l 210 -75 l 194 -49 l 432 -49 l 432 -167 l 40 -167 l 40 -93 l 201 71 q 276 156 249 119 q 304 224 304 193 q 283 269 304 254 q 238 285 263 285 q 185 272 211 285 q 131 219 160 258 l 36 283 q 119 367 72 336 q 238 397 165 397 q 331 376 289 397 q 399 317 374 354 q 425 228 425 279 z "},"₃":{"ha":451,"x_min":18,"x_max":428,"o":"m 217 -179 q 106 -153 156 -179 q 26 -81 56 -128 l 103 -3 q 140 -42 124 -28 q 175 -62 157 -56 q 219 -68 193 -68 q 276 -52 251 -68 q 300 -7 300 -36 q 279 40 300 17 q 193 64 258 64 q 162 63 179 64 q 133 61 144 63 l 133 156 q 165 153 157 154 q 188 153 172 153 q 252 174 228 153 q 276 229 276 194 q 256 272 276 256 q 201 288 235 288 q 145 270 174 288 q 93 221 117 253 l 18 299 q 108 374 63 351 q 214 397 153 397 q 344 356 293 397 q 394 251 394 315 q 346 138 394 178 q 203 97 297 97 l 232 149 q 331 130 286 149 q 401 78 375 111 q 428 6 428 46 q 400 -90 428 -47 q 324 -156 372 -132 q 217 -179 276 -179 z "},"₄":{"ha":496,"x_min":13,"x_max":472,"o":"m 399 214 l 399 -167 l 275 -167 l 275 25 l 276 63 l 308 214 l 399 214 m 13 -47 l 13 4 l 140 386 l 263 386 l 131 -10 l 117 71 l 472 71 l 472 -47 l 13 -47 z "},"₅":{"ha":463,"x_min":53,"x_max":433,"o":"m 136 33 l 53 54 l 53 386 l 404 386 l 404 268 l 110 268 l 163 292 l 163 79 l 115 92 q 133 135 115 113 q 183 173 151 157 q 251 189 214 189 q 383 140 333 189 q 433 13 433 92 q 406 -86 433 -43 q 333 -153 379 -129 q 228 -178 286 -178 q 156 -167 189 -178 q 97 -135 122 -156 q 54 -87 71 -115 l 131 -18 q 172 -56 146 -40 q 232 -72 197 -72 q 292 -51 265 -72 q 318 8 318 -29 q 295 63 318 40 q 236 85 272 85 q 178 70 204 85 q 136 33 153 56 z "},"₆":{"ha":476,"x_min":24,"x_max":458,"o":"m 24 75 q 90 313 24 228 q 276 397 157 397 q 377 377 329 397 q 458 319 425 357 l 390 239 q 335 278 364 267 q 268 289 307 289 q 178 245 219 289 q 133 107 138 201 l 113 107 q 183 160 144 140 q 267 179 221 179 q 363 158 321 179 q 429 99 406 136 q 453 13 453 61 q 396 -125 453 -72 q 240 -178 339 -178 q 129 -145 178 -178 q 52 -56 81 -112 q 24 75 24 1 m 157 4 q 183 -55 157 -32 q 249 -78 208 -78 q 315 -55 290 -78 q 340 4 340 -32 q 315 63 340 40 q 249 85 290 85 q 183 63 208 85 q 157 4 157 40 z "},"₇":{"ha":451,"x_min":29,"x_max":446,"o":"m 71 -167 l 297 283 l 311 268 l 29 268 l 29 386 l 446 386 l 446 317 l 203 -167 l 71 -167 z "},"₈":{"ha":476,"x_min":29,"x_max":447,"o":"m 239 -178 q 124 -155 171 -178 q 53 -93 78 -132 q 29 -7 29 -54 q 53 70 29 32 q 132 125 76 108 l 131 117 q 59 171 79 138 q 39 236 39 204 q 63 316 39 279 q 131 375 86 353 q 239 397 175 397 q 346 374 301 397 q 413 315 390 351 q 436 236 436 279 q 415 169 436 203 q 339 115 393 135 l 339 128 q 422 70 396 110 q 447 -10 447 31 q 423 -93 447 -54 q 352 -155 399 -132 q 239 -178 306 -178 m 239 -78 q 298 -54 276 -78 q 319 -3 319 -31 q 298 49 319 24 q 239 75 276 75 q 176 50 199 75 q 154 -3 154 25 q 177 -55 154 -32 q 239 -78 200 -78 m 239 154 q 290 178 271 154 q 310 228 310 203 q 290 276 310 253 q 239 299 271 299 q 185 276 204 299 q 165 228 165 254 q 185 178 165 203 q 239 154 204 154 z "},"₉":{"ha":476,"x_min":18,"x_max":453,"o":"m 453 144 q 386 -93 453 -8 q 200 -178 319 -178 q 100 -158 149 -178 q 18 -100 51 -137 l 86 -19 q 142 -58 114 -46 q 208 -69 169 -69 q 298 -26 257 -69 q 343 113 339 18 l 364 113 q 294 60 333 79 q 210 40 256 40 q 113 62 156 40 q 47 121 71 83 q 24 207 24 158 q 81 344 24 292 q 236 397 139 397 q 348 365 299 397 q 425 275 397 332 q 453 144 453 218 m 319 215 q 294 274 319 251 q 228 297 268 297 q 161 274 186 297 q 136 215 136 251 q 161 158 136 181 q 228 135 186 135 q 294 158 268 135 q 319 215 319 181 z "},"⁰":{"ha":513,"x_min":36,"x_max":476,"o":"m 257 507 q 96 585 156 507 q 36 794 36 663 q 96 1004 36 926 q 257 1082 156 1082 q 418 1004 360 1082 q 476 794 476 926 q 418 585 476 663 q 257 507 360 507 m 257 965 q 201 943 222 965 q 169 883 179 921 q 160 794 160 844 q 183 674 160 726 q 257 622 206 622 q 331 674 308 622 q 353 794 353 726 q 343 883 353 844 q 313 943 333 921 q 257 965 292 965 z "},"¹":{"ha":322,"x_min":13,"x_max":269,"o":"m 144 960 l 188 947 q 129 890 175 911 q 13 868 83 868 l 13 988 q 99 998 63 988 q 158 1027 136 1008 q 189 1071 181 1046 l 269 1071 l 269 518 l 144 518 l 144 960 z "},"²":{"ha":474,"x_min":36,"x_max":432,"o":"m 425 913 q 399 828 425 872 q 321 728 374 785 l 210 610 l 194 636 l 432 636 l 432 518 l 40 518 l 40 592 l 201 756 q 276 841 249 804 q 304 908 304 878 q 283 954 304 939 q 238 969 263 969 q 185 956 211 969 q 131 904 160 943 l 36 968 q 119 1051 72 1021 q 238 1082 165 1082 q 331 1060 289 1082 q 399 1001 374 1039 q 425 913 425 964 z "},"³":{"ha":451,"x_min":18,"x_max":428,"o":"m 217 506 q 106 531 156 506 q 26 604 56 557 l 103 682 q 140 643 124 657 q 175 623 157 629 q 219 617 193 617 q 276 633 251 617 q 300 678 300 649 q 279 725 300 701 q 193 749 258 749 q 162 748 179 749 q 133 746 144 747 l 133 840 q 165 838 157 839 q 188 838 172 838 q 252 858 228 838 q 276 914 276 879 q 256 956 276 940 q 201 972 235 972 q 145 955 174 972 q 93 906 117 938 l 18 983 q 108 1059 63 1036 q 214 1082 153 1082 q 344 1041 293 1082 q 394 936 394 1000 q 346 822 394 863 q 203 782 297 782 l 232 833 q 331 815 286 833 q 401 763 375 796 q 428 690 428 731 q 400 595 428 638 q 324 529 372 553 q 217 506 276 506 z "},"⁴":{"ha":496,"x_min":13,"x_max":472,"o":"m 399 899 l 399 518 l 275 518 l 275 710 l 276 747 l 308 899 l 399 899 m 13 638 l 13 689 l 140 1071 l 263 1071 l 131 675 l 117 756 l 472 756 l 472 638 l 13 638 z "},"⁵":{"ha":463,"x_min":53,"x_max":433,"o":"m 136 718 l 53 739 l 53 1071 l 404 1071 l 404 953 l 110 953 l 163 976 l 163 764 l 115 776 q 133 819 115 797 q 183 858 151 842 q 251 874 214 874 q 383 825 333 874 q 433 697 433 776 q 406 599 433 642 q 333 531 379 556 q 228 507 286 507 q 156 518 189 507 q 97 549 122 529 q 54 597 71 569 l 131 667 q 172 628 146 644 q 232 613 197 613 q 292 634 265 613 q 318 693 318 656 q 295 747 318 725 q 236 769 272 769 q 178 755 204 769 q 136 718 153 740 z "},"⁶":{"ha":476,"x_min":24,"x_max":458,"o":"m 24 760 q 90 997 24 913 q 276 1082 157 1082 q 377 1062 329 1082 q 458 1004 425 1042 l 390 924 q 335 963 364 951 q 268 974 307 974 q 178 930 219 974 q 133 792 138 886 l 113 792 q 183 844 144 825 q 267 864 221 864 q 363 842 321 864 q 429 783 406 821 q 453 697 453 746 q 396 560 453 613 q 240 507 339 507 q 129 540 178 507 q 52 629 81 572 q 24 760 24 686 m 157 689 q 183 630 157 653 q 249 607 208 607 q 315 630 290 607 q 340 689 340 653 q 315 747 340 725 q 249 769 290 769 q 183 747 208 769 q 157 689 157 725 z "},"⁷":{"ha":451,"x_min":29,"x_max":446,"o":"m 71 518 l 297 968 l 311 953 l 29 953 l 29 1071 l 446 1071 l 446 1001 l 203 518 l 71 518 z "},"⁸":{"ha":476,"x_min":29,"x_max":447,"o":"m 239 507 q 124 530 171 507 q 53 592 78 553 q 29 678 29 631 q 53 755 29 717 q 132 810 76 793 l 131 801 q 59 856 79 822 q 39 921 39 889 q 63 1001 39 964 q 131 1060 86 1038 q 239 1082 175 1082 q 346 1059 301 1082 q 413 1000 390 1036 q 436 921 436 964 q 415 853 436 888 q 339 800 393 819 l 339 813 q 422 755 396 794 q 447 675 447 715 q 423 592 447 631 q 352 530 399 553 q 239 507 306 507 m 239 607 q 298 631 276 607 q 319 682 319 654 q 298 734 319 708 q 239 760 276 760 q 176 735 199 760 q 154 682 154 710 q 177 630 154 653 q 239 607 200 607 m 239 839 q 290 863 271 839 q 310 913 310 888 q 290 960 310 938 q 239 983 271 983 q 185 961 204 983 q 165 913 165 939 q 185 863 165 888 q 239 839 204 839 z "},"⁹":{"ha":476,"x_min":18,"x_max":453,"o":"m 453 829 q 386 592 453 676 q 200 507 319 507 q 100 527 149 507 q 18 585 51 547 l 86 665 q 142 627 114 639 q 208 615 169 615 q 298 659 257 615 q 343 797 339 703 l 364 797 q 294 744 333 764 q 210 725 256 725 q 113 747 156 725 q 47 806 71 768 q 24 892 24 843 q 81 1029 24 976 q 236 1082 139 1082 q 348 1049 299 1082 q 425 960 397 1017 q 453 829 453 903 m 319 900 q 294 959 319 936 q 228 982 268 982 q 161 959 186 982 q 136 900 136 936 q 161 842 136 865 q 228 819 186 819 q 294 842 268 819 q 319 900 319 865 z "},"　":{"ha":1389,"x_min":0,"x_max":0,"o":""}," ":{"ha":308,"x_min":0,"x_max":0,"o":""},"‌":{"ha":0,"x_min":0,"x_max":0,"o":""}," ":{"ha":1389,"x_min":0,"x_max":0,"o":""}," ":{"ha":1389,"x_min":0,"x_max":0,"o":""}," ":{"ha":694,"x_min":0,"x_max":0,"o":""}," ":{"ha":694,"x_min":0,"x_max":0,"o":""}," ":{"ha":750,"x_min":0,"x_max":0,"o":""}," ":{"ha":347,"x_min":0,"x_max":0,"o":""}," ":{"ha":199,"x_min":0,"x_max":0,"o":""}," ":{"ha":289,"x_min":0,"x_max":0,"o":""}," ":{"ha":374,"x_min":0,"x_max":0,"o":""}," ":{"ha":232,"x_min":0,"x_max":0,"o":""}," ":{"ha":361,"x_min":0,"x_max":0,"o":""}," ":{"ha":361,"x_min":0,"x_max":0,"o":""}," ":{"ha":278,"x_min":0,"x_max":0,"o":""}," ":{"ha":463,"x_min":0,"x_max":0,"o":""},"​":{"ha":0,"x_min":0,"x_max":0,"o":""},".":{"ha":374,"x_min":76,"x_max":297,"o":"m 186 -7 q 132 8 157 -7 q 92 49 107 24 q 76 103 76 74 q 92 158 76 133 q 132 197 107 182 q 186 213 157 213 q 242 197 217 213 q 282 158 267 182 q 297 103 297 133 q 282 49 297 74 q 242 8 267 24 q 186 -7 217 -7 z "},",":{"ha":376,"x_min":65,"x_max":300,"o":"m 300 86 q 252 -67 300 13 q 108 -212 204 -147 l 65 -172 q 134 -76 110 -131 q 158 11 158 -22 q 129 111 158 76 q 65 164 100 146 q 97 201 81 188 q 133 220 113 214 q 179 226 154 226 q 239 209 211 226 q 283 160 267 192 q 300 86 300 129 z "},":":{"ha":374,"x_min":76,"x_max":297,"o":"m 186 -7 q 132 8 157 -7 q 92 49 107 24 q 76 103 76 74 q 92 158 76 133 q 132 197 107 182 q 186 213 157 213 q 242 197 217 213 q 282 158 267 182 q 297 103 297 133 q 282 49 297 74 q 242 8 267 24 q 186 -7 217 -7 m 186 458 q 132 474 157 458 q 92 514 107 489 q 76 568 76 539 q 92 623 76 599 q 132 663 107 647 q 186 678 157 678 q 242 663 217 678 q 282 623 267 647 q 297 568 297 599 q 282 514 297 539 q 242 474 267 489 q 186 458 217 458 z "},";":{"ha":376,"x_min":65,"x_max":300,"o":"m 182 458 q 128 474 153 458 q 88 514 103 489 q 72 568 72 539 q 88 623 72 599 q 128 663 103 647 q 182 678 153 678 q 238 663 213 678 q 278 623 263 647 q 293 568 293 599 q 278 514 293 539 q 238 474 263 489 q 182 458 213 458 m 300 86 q 252 -67 300 13 q 108 -212 204 -147 l 65 -172 q 134 -76 110 -131 q 158 11 158 -22 q 129 111 158 76 q 65 164 100 146 q 97 201 81 188 q 133 220 113 214 q 179 226 154 226 q 239 209 211 226 q 283 160 267 192 q 300 86 300 129 z "},"…":{"ha":1051,"x_min":76,"x_max":975,"o":"m 186 -7 q 132 8 157 -7 q 92 49 107 24 q 76 103 76 74 q 92 158 76 133 q 132 197 107 182 q 186 213 157 213 q 242 197 217 213 q 282 158 267 182 q 297 103 297 133 q 282 49 297 74 q 242 8 267 24 q 186 -7 217 -7 m 524 -7 q 469 8 494 -7 q 429 49 444 24 q 414 103 414 74 q 429 158 414 133 q 469 197 444 182 q 524 213 494 213 q 579 197 554 213 q 619 158 604 182 q 635 103 635 133 q 619 49 635 74 q 579 8 604 24 q 524 -7 554 -7 m 864 -7 q 810 8 835 -7 q 769 49 785 24 q 754 103 754 74 q 769 158 754 133 q 810 197 785 182 q 864 213 835 213 q 919 197 894 213 q 960 158 944 182 q 975 103 975 133 q 960 49 975 74 q 919 8 944 24 q 864 -7 894 -7 z "},"!":{"ha":404,"x_min":94,"x_max":310,"o":"m 113 985 l 290 985 l 276 518 l 260 301 l 143 301 l 126 517 l 113 985 m 201 -8 q 126 23 157 -8 q 94 99 94 54 q 126 175 94 143 q 201 207 157 207 q 278 175 246 207 q 310 99 310 143 q 278 23 310 54 q 201 -8 246 -8 z "},"¡":{"ha":404,"x_min":94,"x_max":310,"o":"m 292 -244 l 114 -244 l 128 222 l 144 439 l 261 439 l 278 224 l 292 -244 m 203 749 q 278 717 247 749 q 310 642 310 686 q 278 565 310 597 q 203 533 247 533 q 126 565 158 533 q 94 642 94 597 q 126 717 94 686 q 203 749 158 749 z "},"?":{"ha":747,"x_min":47,"x_max":682,"o":"m 325 272 l 253 392 l 344 449 q 456 528 414 492 q 519 603 499 564 q 539 692 539 642 q 488 815 539 768 q 364 861 436 861 q 255 838 310 861 q 151 763 200 815 l 133 743 l 47 836 l 63 853 q 193 955 118 914 q 374 996 268 996 q 531 956 461 996 q 642 845 601 915 q 682 688 682 775 q 663 578 682 633 q 592 464 644 522 q 439 343 539 406 l 325 272 m 361 -11 q 285 20 317 -11 q 254 96 254 51 q 285 172 254 140 q 361 204 317 204 q 438 172 406 204 q 469 96 469 140 q 438 20 469 51 q 361 -11 406 -11 z "},"¿":{"ha":676,"x_min":65,"x_max":700,"o":"m 422 465 l 494 346 l 403 289 q 292 210 335 247 q 228 135 249 174 q 208 46 208 96 q 260 -77 208 -31 q 383 -124 311 -124 q 456 -114 419 -124 q 528 -82 493 -104 q 596 -25 564 -60 l 614 -6 l 700 -99 l 685 -115 q 554 -217 629 -175 q 374 -258 479 -258 q 217 -217 286 -258 q 106 -107 147 -176 q 65 50 65 -37 q 85 160 65 104 q 156 274 104 215 q 308 394 208 332 l 422 465 m 386 749 q 462 717 431 749 q 493 642 493 686 q 462 565 493 597 q 386 533 431 533 q 310 565 342 533 q 278 642 278 597 q 310 717 278 686 q 386 749 342 749 z "},"·":{"ha":374,"x_min":76,"x_max":297,"o":"m 186 278 q 132 293 157 278 q 92 333 107 308 q 76 388 76 358 q 92 442 76 418 q 132 482 107 467 q 186 497 157 497 q 242 482 217 497 q 282 442 267 467 q 297 388 297 418 q 282 333 297 358 q 242 293 267 308 q 186 278 217 278 z "},"•":{"ha":533,"x_min":94,"x_max":439,"o":"m 267 215 q 181 239 219 215 q 118 302 142 263 q 94 389 94 342 q 118 476 94 436 q 181 539 142 515 q 267 563 219 563 q 353 539 314 563 q 415 476 392 515 q 439 389 439 436 q 415 302 439 342 q 353 239 392 263 q 267 215 314 215 z "},"*":{"ha":632,"x_min":60,"x_max":572,"o":"m 238 519 l 136 579 l 249 733 l 60 713 l 60 831 l 250 810 l 136 964 l 238 1022 l 315 847 l 392 1022 l 494 964 l 381 810 l 572 831 l 572 713 l 381 733 l 494 579 l 392 519 l 315 696 l 238 519 z "},"#":{"ha":910,"x_min":53,"x_max":857,"o":"m 324 958 l 443 958 l 264 -14 l 144 -14 l 324 958 m 857 704 l 857 599 l 122 599 l 122 704 l 857 704 m 788 347 l 788 242 l 53 242 l 53 347 l 788 347 m 622 958 l 742 958 l 563 -14 l 443 -14 l 622 958 z "},"/":{"ha":632,"x_min":6,"x_max":626,"o":"m 115 -97 l 6 -46 l 517 1003 l 626 951 l 115 -97 z "},"\\":{"ha":632,"x_min":6,"x_max":626,"o":"m 517 -97 l 6 951 l 115 1003 l 626 -46 l 517 -97 z "},"-":{"ha":511,"x_min":47,"x_max":464,"o":"m 464 336 l 47 336 l 47 467 l 464 467 l 464 336 z "},"–":{"ha":789,"x_min":29,"x_max":760,"o":"m 760 336 l 29 336 l 29 464 l 760 464 l 760 336 z "},"—":{"ha":1381,"x_min":26,"x_max":1354,"o":"m 1354 336 l 26 336 l 26 464 l 1354 464 l 1354 336 z "},"_":{"ha":756,"x_min":24,"x_max":732,"o":"m 732 -111 l 24 -111 l 24 0 l 732 0 l 732 -111 z "},"(":{"ha":488,"x_min":94,"x_max":475,"o":"m 233 447 q 297 126 233 265 q 475 -129 361 -14 l 376 -217 q 232 -44 296 -142 q 131 175 168 53 q 94 447 94 297 q 131 719 94 597 q 232 940 168 842 q 376 1111 296 1038 l 475 1024 q 297 769 361 908 q 233 447 233 629 z "},")":{"ha":488,"x_min":11,"x_max":392,"o":"m 253 447 q 189 769 253 629 q 11 1024 125 908 l 110 1111 q 254 940 190 1038 q 355 719 318 842 q 392 447 392 597 q 355 175 392 297 q 254 -44 318 53 q 110 -217 190 -142 l 11 -129 q 189 126 125 -14 q 253 447 253 265 z "},"{":{"ha":433,"x_min":69,"x_max":364,"o":"m 158 476 q 246 452 203 476 q 317 388 289 428 q 346 299 346 347 q 325 219 346 258 q 276 143 304 181 q 228 69 249 106 q 207 -1 207 33 q 238 -67 207 -49 q 307 -86 268 -86 l 364 -86 l 364 -203 q 331 -206 350 -206 q 292 -207 311 -207 q 201 -193 242 -207 q 131 -154 160 -179 q 85 -95 101 -129 q 69 -21 69 -61 q 91 62 69 22 q 140 139 113 101 q 190 213 168 176 q 211 286 211 249 q 190 344 211 317 q 125 389 168 371 l 72 411 l 72 494 l 125 517 q 190 562 168 535 q 211 619 211 589 q 190 693 211 657 q 140 767 168 729 q 91 844 113 804 q 69 926 69 883 q 85 1001 69 967 q 131 1060 101 1035 q 201 1099 160 1085 q 292 1113 242 1113 q 331 1112 311 1113 q 364 1108 350 1111 l 364 992 l 307 992 q 238 973 268 992 q 207 907 207 954 q 228 837 207 872 q 276 764 249 801 q 325 687 304 726 q 346 607 346 647 q 317 518 346 558 q 246 453 289 478 q 158 429 203 429 l 158 476 z "},"}":{"ha":433,"x_min":69,"x_max":364,"o":"m 275 476 l 275 429 q 188 453 231 429 q 116 518 144 478 q 88 607 88 558 q 108 687 88 647 q 157 764 129 726 q 206 837 185 801 q 226 907 226 872 q 197 973 226 954 q 126 992 167 992 l 69 992 l 69 1108 q 103 1112 83 1111 q 142 1113 122 1113 q 233 1099 192 1113 q 303 1060 274 1085 q 348 1001 332 1035 q 364 926 364 967 q 342 844 364 883 q 293 767 321 804 q 244 693 265 729 q 222 619 222 657 q 244 562 222 589 q 308 517 265 535 l 361 494 l 361 411 l 308 389 q 244 344 265 371 q 222 286 222 317 q 244 213 222 249 q 293 139 265 176 q 342 62 321 101 q 364 -21 364 22 q 348 -95 364 -61 q 303 -154 332 -129 q 233 -193 274 -179 q 142 -207 192 -207 q 103 -206 122 -207 q 69 -203 83 -206 l 69 -86 l 126 -86 q 197 -67 167 -86 q 226 -1 226 -49 q 206 69 226 33 q 157 143 185 106 q 108 219 129 181 q 88 299 88 258 q 116 388 88 347 q 188 452 144 428 q 275 476 231 476 z "},"[":{"ha":433,"x_min":111,"x_max":406,"o":"m 221 974 l 221 1096 l 406 1096 l 406 974 l 221 974 m 250 -190 l 111 -190 l 111 1096 l 250 1096 l 250 -190 m 219 -190 l 219 -68 l 406 -68 l 406 -190 l 219 -190 z "},"]":{"ha":419,"x_min":14,"x_max":308,"o":"m 199 974 l 14 974 l 14 1096 l 199 1096 l 199 974 m 169 -190 l 169 1096 l 308 1096 l 308 -190 l 169 -190 m 200 -190 l 14 -190 l 14 -68 l 200 -68 l 200 -190 z "},"‚":{"ha":254,"x_min":18,"x_max":231,"o":"m 54 -235 l 18 -197 q 80 -103 57 -153 q 103 -10 103 -53 q 78 66 103 38 q 21 114 53 94 q 63 156 33 144 q 117 168 92 168 q 172 152 146 168 q 215 108 199 136 q 231 40 231 79 q 186 -101 231 -28 q 54 -235 142 -174 z "},"„":{"ha":531,"x_min":18,"x_max":507,"o":"m 54 -233 l 18 -196 q 80 -101 57 -151 q 103 -8 103 -51 q 78 67 103 39 q 21 115 53 96 q 63 158 33 146 q 117 169 92 169 q 172 153 146 169 q 215 109 199 138 q 231 42 231 81 q 186 -99 231 -26 q 54 -233 142 -172 m 331 -233 l 294 -196 q 356 -101 333 -151 q 379 -8 379 -51 q 354 67 379 39 q 297 115 329 96 q 339 158 310 146 q 393 169 368 169 q 449 153 422 169 q 491 109 475 138 q 507 42 507 81 q 463 -99 507 -26 q 331 -233 418 -172 z "},"“":{"ha":531,"x_min":29,"x_max":518,"o":"m 143 576 q 88 592 114 576 q 46 638 63 608 q 29 704 29 667 q 49 798 29 750 q 108 892 69 846 q 206 979 147 939 l 242 942 q 180 848 203 897 q 157 754 157 799 q 182 678 157 707 q 239 631 207 650 q 197 588 226 600 q 143 576 168 576 m 419 576 q 365 592 390 576 q 322 638 339 608 q 306 704 306 667 q 326 798 306 750 q 385 892 346 846 q 482 979 424 939 l 518 942 q 456 848 479 897 q 433 754 433 799 q 458 678 433 707 q 515 631 483 650 q 474 588 503 600 q 419 576 444 576 z "},"”":{"ha":531,"x_min":13,"x_max":501,"o":"m 49 564 l 13 601 q 74 696 51 646 q 97 789 97 746 q 72 865 97 836 q 15 913 47 893 q 57 955 28 943 q 111 967 86 967 q 167 951 140 967 q 209 906 193 935 q 225 839 225 878 q 181 698 225 771 q 49 564 136 625 m 325 564 l 289 601 q 351 696 328 646 q 374 789 374 746 q 349 865 374 836 q 292 913 324 893 q 333 955 304 943 q 388 967 363 967 q 443 951 417 967 q 485 906 469 935 q 501 839 501 878 q 457 698 501 771 q 325 564 413 625 z "},"‘":{"ha":254,"x_min":29,"x_max":242,"o":"m 143 576 q 88 592 114 576 q 46 638 63 608 q 29 704 29 667 q 49 798 29 750 q 108 892 69 846 q 206 979 147 939 l 242 942 q 180 848 203 897 q 157 754 157 799 q 182 678 157 707 q 239 631 207 650 q 197 588 226 600 q 143 576 168 576 z "},"’":{"ha":254,"x_min":13,"x_max":225,"o":"m 49 564 l 13 601 q 74 696 51 646 q 97 789 97 746 q 72 865 97 836 q 15 913 47 893 q 57 955 28 943 q 111 967 86 967 q 167 951 140 967 q 209 906 193 935 q 225 839 225 878 q 181 698 225 771 q 49 564 136 625 z "},"«":{"ha":731,"x_min":60,"x_max":678,"o":"m 256 126 l 60 401 l 257 678 l 399 678 l 204 400 l 399 126 l 256 126 m 535 126 l 339 401 l 536 678 l 678 678 l 483 400 l 678 126 l 535 126 z "},"»":{"ha":731,"x_min":53,"x_max":671,"o":"m 53 126 l 247 400 l 53 678 l 194 678 l 392 401 l 196 126 l 53 126 m 332 126 l 526 400 l 332 678 l 474 678 l 671 401 l 475 126 l 332 126 z "},"‹":{"ha":451,"x_min":60,"x_max":399,"o":"m 256 126 l 60 401 l 257 678 l 399 678 l 204 400 l 399 126 l 256 126 z "},"›":{"ha":451,"x_min":53,"x_max":392,"o":"m 53 126 l 247 400 l 53 678 l 194 678 l 392 401 l 196 126 l 53 126 z "},"\"":{"ha":417,"x_min":42,"x_max":381,"o":"m 81 553 l 42 760 l 42 946 l 175 946 l 175 553 l 81 553 m 286 553 l 247 760 l 247 946 l 381 946 l 381 553 l 286 553 z "},"'":{"ha":211,"x_min":42,"x_max":175,"o":"m 81 553 l 42 760 l 42 946 l 175 946 l 175 553 l 81 553 z "},"@":{"ha":1168,"x_min":71,"x_max":1097,"o":"m 485 214 q 394 240 435 214 q 329 313 353 267 q 306 418 306 358 q 342 581 306 508 q 439 697 378 654 q 574 740 500 740 q 667 710 631 740 q 723 635 704 681 q 742 538 742 589 q 724 419 742 476 q 672 315 706 361 q 590 241 638 268 q 485 214 543 214 m 617 -68 q 399 -30 499 -68 q 225 78 299 8 q 111 245 151 149 q 71 460 71 342 q 113 681 71 581 q 230 855 156 782 q 400 968 304 928 q 604 1008 496 1008 q 801 971 711 1008 q 957 868 890 933 q 1060 719 1024 803 q 1097 544 1097 636 q 1071 383 1097 449 q 1003 278 1044 318 q 917 219 963 238 q 833 201 871 201 q 704 244 753 201 q 656 374 656 288 q 656 389 656 381 q 658 407 657 397 l 692 599 l 756 735 l 840 735 l 789 489 q 781 440 786 474 q 775 382 775 407 q 794 332 775 351 q 842 313 814 313 q 901 335 872 313 q 951 408 931 357 q 971 544 971 458 q 926 710 971 633 q 799 835 881 788 q 606 883 717 883 q 395 828 488 883 q 250 678 303 774 q 197 463 197 583 q 251 255 197 346 q 397 112 304 164 q 608 60 490 60 q 779 86 710 60 q 908 156 849 113 l 975 51 q 815 -35 908 -3 q 617 -68 721 -68 m 515 317 q 597 350 564 317 q 648 434 631 383 q 665 539 665 485 q 646 609 665 581 q 588 638 626 638 q 506 605 540 638 q 455 521 472 572 q 438 415 438 469 q 457 345 438 374 q 515 317 476 317 z "},"&":{"ha":896,"x_min":89,"x_max":867,"o":"m 867 447 l 410 447 q 278 403 325 447 q 231 285 231 360 q 277 167 231 211 q 408 124 324 124 q 546 180 503 124 q 589 350 589 236 l 589 475 l 728 475 l 728 336 q 697 160 728 228 q 618 53 667 92 q 515 1 569 15 q 415 -14 461 -14 q 238 26 311 -14 q 127 135 165 67 q 89 285 89 203 q 133 422 89 360 q 255 520 176 483 q 435 557 333 557 l 408 481 q 213 548 286 481 q 140 722 140 615 q 171 846 140 786 q 261 945 201 906 q 407 985 321 985 q 487 977 444 985 q 573 946 529 969 q 656 876 617 922 l 563 792 q 496 835 532 822 q 422 847 460 847 q 317 808 353 847 q 282 721 282 769 q 327 619 282 660 q 464 578 372 578 l 867 578 l 867 447 z "},"¶":{"ha":944,"x_min":83,"x_max":903,"o":"m 469 908 l 469 268 l 421 268 q 251 315 328 268 q 129 440 175 361 q 83 619 83 519 q 135 819 83 738 q 272 944 186 901 q 458 986 357 986 l 903 986 l 903 908 l 790 853 l 422 853 l 469 908 m 654 119 l 654 925 l 793 925 l 793 138 q 758 -42 793 33 q 655 -157 724 -117 q 483 -197 586 -197 q 376 -178 431 -197 q 273 -115 322 -160 q 185 8 224 -71 l 179 19 l 290 76 q 382 -41 339 -12 q 481 -69 425 -69 q 603 -22 553 -69 q 654 119 654 26 z "},"§":{"ha":706,"x_min":53,"x_max":653,"o":"m 347 631 l 329 556 q 256 526 286 556 q 226 444 226 497 q 240 393 226 419 q 290 343 253 367 q 399 300 328 319 q 585 217 522 269 q 647 74 647 164 q 609 -56 647 1 q 506 -147 571 -114 q 356 -179 440 -179 q 181 -133 260 -179 q 53 26 101 -86 l 163 92 q 254 -19 207 13 q 369 -51 301 -51 q 469 -19 431 -51 q 508 61 508 13 q 493 114 508 89 q 437 161 478 139 q 317 201 396 183 q 137 291 186 232 q 88 422 88 350 q 118 531 88 483 q 207 604 149 578 q 347 631 265 631 m 368 192 l 401 285 q 481 317 450 285 q 513 401 513 350 q 499 453 513 429 q 447 500 486 478 q 329 540 408 522 q 146 635 199 571 q 93 781 93 700 q 126 903 93 849 q 218 989 158 957 q 360 1021 278 1021 q 527 985 460 1021 q 643 876 594 949 l 532 801 q 447 876 489 858 q 357 893 406 893 q 266 865 301 893 q 231 788 231 836 q 267 706 231 744 q 411 639 304 667 q 547 586 493 618 q 626 509 600 554 q 653 403 653 464 q 617 295 653 343 q 517 219 581 247 q 368 192 453 192 z "},"©":{"ha":931,"x_min":76,"x_max":854,"o":"m 465 297 q 314 328 385 297 q 190 413 243 358 q 106 537 136 467 q 76 686 76 607 q 107 839 76 768 q 191 963 138 910 q 315 1047 244 1017 q 465 1078 385 1078 q 615 1047 544 1078 q 740 963 686 1017 q 824 839 793 910 q 854 686 854 768 q 824 537 854 607 q 741 413 794 467 q 617 328 688 358 q 465 297 546 297 m 465 396 q 609 434 544 396 q 712 538 674 472 q 750 686 750 604 q 712 835 750 769 q 609 940 674 901 q 465 978 544 978 q 322 940 386 978 q 218 835 257 901 q 179 686 179 769 q 218 538 179 604 q 322 434 257 472 q 465 396 386 396 m 472 489 q 337 542 392 489 q 282 683 282 596 q 335 823 282 769 q 472 876 388 876 q 572 853 528 876 q 642 782 615 831 l 556 735 q 515 773 538 764 q 472 782 493 782 q 410 755 433 782 q 388 683 388 728 q 410 611 388 638 q 472 585 433 585 q 515 593 493 585 q 556 632 538 601 l 642 585 q 572 512 615 535 q 472 489 528 489 z "},"®":{"ha":931,"x_min":76,"x_max":854,"o":"m 392 606 l 392 693 l 465 693 q 533 746 533 693 q 465 799 533 799 l 386 799 l 418 832 l 418 503 l 325 503 l 325 886 l 460 886 q 583 851 538 886 q 629 746 629 815 q 583 642 629 678 q 460 606 538 606 l 392 606 m 622 503 l 522 503 l 436 656 l 539 656 l 622 503 m 465 1078 q 315 1047 385 1078 q 191 963 244 1017 q 107 839 138 910 q 76 686 76 768 q 106 537 76 607 q 190 413 136 467 q 314 328 243 358 q 465 297 385 297 q 617 328 546 297 q 741 413 688 358 q 824 537 794 467 q 854 686 854 607 q 824 839 854 768 q 740 963 793 910 q 615 1047 686 1017 q 465 1078 544 1078 m 465 396 q 322 434 386 396 q 218 538 257 472 q 179 686 179 604 q 218 835 179 769 q 322 940 257 901 q 465 978 386 978 q 609 940 544 978 q 712 835 674 901 q 750 686 750 769 q 712 538 750 604 q 609 434 674 472 q 465 396 544 396 z "},"™":{"ha":1119,"x_min":36,"x_max":1096,"o":"m 479 835 l 36 835 l 36 946 l 479 946 l 479 835 m 318 849 l 318 432 l 200 432 l 200 849 l 318 849 m 482 432 l 563 946 l 667 946 l 788 639 l 790 639 l 911 946 l 1015 946 l 1096 432 l 982 432 l 949 646 l 939 775 l 947 775 q 944 763 947 775 q 935 735 940 751 q 924 703 929 718 q 917 681 919 688 l 829 440 l 747 440 l 661 681 q 653 703 658 688 q 643 735 649 718 q 634 763 638 751 q 631 775 631 775 l 639 775 l 629 646 l 596 432 l 482 432 z "},"°":{"ha":574,"x_min":42,"x_max":532,"o":"m 286 481 q 164 513 219 481 q 75 600 108 546 q 42 721 42 654 q 75 844 42 789 q 165 931 108 899 q 286 963 221 963 q 408 931 353 963 q 498 844 464 899 q 532 721 532 789 q 499 598 532 653 q 409 512 465 543 q 286 481 353 481 m 286 596 q 372 631 338 596 q 406 721 406 665 q 372 810 406 776 q 286 844 339 844 q 201 810 236 844 q 167 721 167 776 q 201 631 167 665 q 286 596 236 596 z "},"|":{"ha":367,"x_min":118,"x_max":249,"o":"m 249 -167 l 118 -167 l 118 1139 l 249 1139 l 249 -167 z "},"¦":{"ha":367,"x_min":118,"x_max":249,"o":"m 249 575 l 118 575 l 118 1139 l 249 1139 l 249 575 m 249 -167 l 118 -167 l 118 397 l 249 397 l 249 -167 z "},"¢":{"ha":742,"x_min":65,"x_max":718,"o":"m 325 786 l 325 981 l 464 981 l 464 786 l 325 786 m 325 0 l 325 194 l 464 194 l 464 0 l 325 0 m 397 129 q 219 176 294 129 q 105 303 144 224 q 65 482 65 383 q 108 660 65 581 q 226 788 151 740 q 397 835 301 835 q 591 790 510 835 q 718 638 672 744 l 603 581 q 556 652 581 622 q 495 699 531 682 q 403 715 460 715 q 258 652 308 715 q 207 483 207 589 q 259 313 207 378 q 404 249 311 249 q 527 287 485 249 q 603 383 569 325 l 718 326 q 591 176 672 222 q 397 129 510 129 z "},"¤":{"ha":833,"x_min":65,"x_max":768,"o":"m 417 171 q 275 209 340 171 q 170 313 210 247 q 131 458 131 378 q 170 604 131 539 q 275 708 210 669 q 417 746 340 746 q 562 708 497 746 q 665 604 626 669 q 703 458 703 539 q 665 313 703 378 q 562 209 626 247 q 417 171 497 171 m 160 115 l 65 210 l 213 357 l 307 263 l 160 115 m 213 560 l 65 707 l 160 801 l 307 654 l 213 560 m 417 304 q 526 348 483 304 q 569 458 569 392 q 526 569 569 525 q 417 613 483 613 q 307 569 350 613 q 264 458 264 525 q 307 348 264 392 q 417 304 350 304 m 674 115 l 526 263 l 621 357 l 768 210 l 674 115 m 621 560 l 526 654 l 674 801 l 768 707 l 621 560 z "},"$":{"ha":731,"x_min":53,"x_max":678,"o":"m 303 843 l 303 1051 l 414 1051 l 414 843 l 303 843 m 678 258 q 638 122 678 183 q 526 23 597 60 q 363 -14 456 -14 q 189 28 269 -14 q 53 189 108 71 l 168 254 q 264 151 213 182 q 376 119 315 119 q 494 158 450 119 q 539 249 539 196 q 525 310 539 279 q 469 367 511 340 q 344 410 428 393 q 188 467 246 431 q 106 551 131 503 q 82 651 82 599 q 117 783 82 725 q 215 876 151 842 q 365 910 278 910 q 537 871 464 910 q 661 751 610 832 l 544 676 q 453 756 497 738 q 360 775 408 775 q 254 742 290 775 q 218 661 218 708 q 234 604 218 632 q 292 553 250 576 q 411 511 333 531 q 614 417 550 478 q 678 258 678 357 m 303 -157 l 303 51 l 414 51 l 414 -157 l 303 -157 z "},"€":{"ha":857,"x_min":60,"x_max":833,"o":"m 301 465 q 367 213 301 306 q 558 119 433 119 q 665 137 624 119 q 740 185 706 154 l 833 83 q 720 11 782 36 q 556 -14 658 -14 q 403 21 475 -14 q 278 119 332 56 q 193 272 224 183 q 163 465 163 360 q 193 649 163 565 q 278 793 224 732 q 403 888 332 854 q 556 921 475 921 q 710 897 651 921 q 819 824 769 872 l 726 736 q 655 774 694 760 q 558 788 615 788 q 417 748 475 788 q 331 636 360 708 q 301 465 301 564 m 544 304 l 60 304 l 60 424 l 579 424 l 544 304 m 600 510 l 60 510 l 60 629 l 635 629 l 600 510 z "},"£":{"ha":688,"x_min":60,"x_max":651,"o":"m 108 671 q 140 794 108 739 q 233 883 172 850 q 381 917 294 917 q 525 881 458 917 q 646 768 592 846 l 547 685 q 469 762 510 740 q 381 783 428 783 q 285 748 325 783 q 246 651 246 713 q 263 569 246 614 q 301 478 279 525 q 339 385 322 431 q 356 299 356 339 q 333 185 356 238 q 274 99 310 133 q 201 51 239 64 l 200 133 l 651 133 l 651 0 l 94 0 l 65 86 l 121 122 q 197 205 174 153 q 219 304 219 257 q 203 393 219 353 q 164 474 186 433 q 125 561 142 514 q 108 671 108 608 m 538 344 l 60 344 l 60 469 l 538 469 l 538 344 z "},"¥":{"ha":722,"x_min":18,"x_max":704,"o":"m 292 0 l 292 150 l 54 150 l 54 275 l 292 275 l 292 364 l 54 364 l 54 489 l 229 489 l 18 903 l 153 903 l 361 479 l 569 903 l 704 903 l 493 489 l 669 489 l 669 364 l 431 364 l 431 275 l 669 275 l 669 150 l 431 150 l 431 0 l 292 0 z "},"+":{"ha":931,"x_min":139,"x_max":793,"o":"m 394 139 l 394 806 l 519 806 l 519 139 l 394 139 m 139 403 l 139 528 l 793 528 l 793 403 l 139 403 z "},"−":{"ha":931,"x_min":178,"x_max":754,"o":"m 754 410 l 178 410 l 178 535 l 754 535 l 754 410 z "},"×":{"ha":931,"x_min":165,"x_max":767,"o":"m 767 257 l 682 172 l 165 689 l 250 774 l 767 257 m 165 257 l 682 774 l 767 689 l 250 172 l 165 257 z "},"÷":{"ha":931,"x_min":126,"x_max":806,"o":"m 463 118 q 390 149 419 118 q 361 219 361 179 q 390 290 361 260 q 463 319 419 319 q 535 290 506 319 q 564 219 564 260 q 535 149 564 179 q 463 118 506 118 m 463 626 q 390 657 419 626 q 361 728 361 688 q 390 798 361 768 q 463 828 419 828 q 535 798 506 828 q 564 728 564 768 q 535 657 564 688 q 463 626 506 626 m 806 411 l 126 411 l 126 536 l 806 536 l 806 411 z "},"=":{"ha":931,"x_min":171,"x_max":761,"o":"m 171 476 l 171 588 l 761 588 l 761 476 l 171 476 m 171 218 l 171 329 l 761 329 l 761 218 l 171 218 z "},"≠":{"ha":931,"x_min":171,"x_max":761,"o":"m 379 21 l 279 57 l 546 776 l 646 740 l 379 21 m 171 476 l 171 588 l 761 588 l 761 476 l 171 476 m 171 218 l 171 329 l 761 329 l 761 218 l 171 218 z "},">":{"ha":931,"x_min":183,"x_max":749,"o":"m 238 58 l 183 150 l 622 421 l 622 386 l 183 657 l 238 749 l 749 438 l 749 369 l 238 58 z "},"<":{"ha":931,"x_min":183,"x_max":749,"o":"m 685 58 l 183 369 l 183 447 l 685 758 l 749 657 l 310 386 l 310 431 l 749 160 l 685 58 z "},"≥":{"ha":931,"x_min":183,"x_max":747,"o":"m 189 160 l 747 160 l 747 35 l 189 35 l 189 160 m 747 488 l 235 275 l 183 385 l 631 558 l 631 519 l 183 693 l 235 803 l 747 590 l 747 488 z "},"≤":{"ha":931,"x_min":183,"x_max":747,"o":"m 742 160 l 742 35 l 183 35 l 183 160 l 742 160 m 183 488 l 183 590 l 696 803 l 747 693 l 300 519 l 300 558 l 747 385 l 696 275 l 183 488 z "},"±":{"ha":931,"x_min":139,"x_max":793,"o":"m 139 514 l 139 639 l 793 639 l 793 514 l 139 514 m 139 28 l 139 153 l 793 153 l 793 28 l 139 28 m 394 278 l 394 889 l 519 889 l 519 278 l 394 278 z "},"≈":{"ha":931,"x_min":161,"x_max":771,"o":"m 665 631 l 771 579 q 706 484 746 525 q 588 443 665 443 q 501 462 538 443 q 434 499 465 481 q 365 517 403 517 q 308 494 331 517 q 264 439 285 472 l 161 492 q 229 589 189 549 q 343 629 269 629 q 431 610 396 629 q 498 573 467 592 q 565 554 529 554 q 624 577 601 554 q 665 631 646 600 m 771 315 q 706 219 746 261 q 588 178 665 178 q 501 197 538 178 q 434 233 465 215 q 365 251 403 251 q 308 229 331 251 q 264 175 285 207 l 161 228 q 229 325 189 285 q 343 365 269 365 q 431 347 396 365 q 498 309 467 328 q 565 290 529 290 q 624 313 601 290 q 665 367 646 336 l 771 315 z "},"~":{"ha":931,"x_min":92,"x_max":840,"o":"m 193 282 l 92 339 q 150 422 118 385 q 226 482 182 460 q 332 504 271 504 q 415 490 381 504 q 479 458 450 476 q 537 425 508 439 q 600 411 565 411 q 679 441 649 411 q 739 518 710 471 l 840 461 q 747 344 801 393 q 600 296 693 296 q 517 310 553 296 q 453 342 482 324 q 395 375 424 361 q 332 389 367 389 q 253 360 285 389 q 193 282 222 331 z "},"¬":{"ha":931,"x_min":150,"x_max":782,"o":"m 782 125 l 657 125 l 657 486 l 782 486 l 782 125 m 782 361 l 150 361 l 150 486 l 782 486 l 782 361 z "},"^":{"ha":931,"x_min":185,"x_max":746,"o":"m 746 511 l 675 433 l 465 613 l 256 433 l 185 511 l 465 758 l 746 511 z "},"∞":{"ha":1213,"x_min":76,"x_max":1136,"o":"m 878 167 q 756 192 810 167 q 656 258 701 218 q 572 343 611 299 q 496 428 533 388 q 419 494 458 468 q 335 519 381 519 q 250 489 283 519 q 217 410 217 458 q 250 330 217 361 q 335 299 283 299 q 419 324 381 299 q 496 390 458 350 q 572 476 533 431 q 656 561 611 521 q 756 627 701 601 q 878 653 810 653 q 1013 622 954 653 q 1103 536 1071 590 q 1136 410 1136 482 q 1103 284 1136 339 q 1013 198 1071 229 q 878 167 954 167 m 335 167 q 200 198 258 167 q 109 284 142 229 q 76 410 76 339 q 109 536 76 482 q 200 622 142 590 q 335 653 258 653 q 457 627 403 653 q 556 561 511 601 q 641 476 601 521 q 718 390 681 431 q 794 324 756 350 q 878 299 833 299 q 963 330 931 299 q 994 410 994 361 q 963 489 994 458 q 878 519 931 519 q 794 494 833 519 q 717 428 754 468 q 640 343 679 388 q 556 258 601 299 q 457 192 511 218 q 335 167 403 167 z "},"∅":{"ha":1206,"x_min":65,"x_max":1140,"o":"m 146 19 l 65 110 l 1063 949 l 1140 858 l 146 19 m 604 -14 q 414 24 503 -14 q 257 128 325 61 q 151 284 189 196 q 113 472 113 372 q 151 660 113 572 q 257 816 189 749 q 414 921 325 883 q 604 958 503 958 q 794 921 706 958 q 949 816 882 883 q 1054 660 1017 749 q 1092 472 1092 572 q 1054 284 1092 372 q 949 128 1017 196 q 794 24 882 61 q 604 -14 706 -14 m 604 119 q 778 167 700 119 q 903 295 857 215 q 950 472 950 375 q 903 649 950 569 q 778 777 857 729 q 604 825 700 825 q 428 777 508 825 q 301 649 349 729 q 254 472 254 569 q 301 295 254 375 q 428 167 349 215 q 604 119 508 119 z "},"∧":{"ha":901,"x_min":76,"x_max":825,"o":"m 183 -17 l 76 35 l 403 706 l 497 706 l 825 33 l 718 -18 l 425 594 l 475 594 l 183 -17 z "},"∨":{"ha":901,"x_min":76,"x_max":825,"o":"m 403 -14 l 76 657 l 183 708 l 475 97 l 425 97 l 718 710 l 825 658 l 497 -14 l 403 -14 z "},"∩":{"ha":797,"x_min":94,"x_max":703,"o":"m 94 14 l 94 404 q 124 556 94 483 q 221 674 154 628 q 399 719 288 719 q 576 674 510 719 q 673 556 643 628 q 703 404 703 483 l 703 14 l 592 14 l 592 404 q 539 560 592 508 q 399 611 486 611 q 258 560 311 611 q 206 404 206 508 l 206 14 l 94 14 z "},"∪":{"ha":797,"x_min":94,"x_max":703,"o":"m 94 706 l 206 706 l 206 315 q 258 160 206 211 q 399 108 311 108 q 539 160 486 108 q 592 315 592 211 l 592 706 l 703 706 l 703 315 q 673 164 703 236 q 576 46 643 92 q 399 0 510 0 q 221 46 288 0 q 124 164 154 92 q 94 315 94 236 l 94 706 z "},"⟑":{"ha":901,"x_min":76,"x_max":825,"o":"m 450 99 q 390 123 415 99 q 365 182 365 147 q 390 243 365 218 q 450 268 415 268 q 510 243 486 268 q 535 182 535 218 q 510 123 535 147 q 450 99 486 99 m 183 -17 l 76 35 l 403 706 l 497 706 l 825 33 l 718 -18 l 425 594 l 475 594 l 183 -17 z "},"≅":{"ha":776,"x_min":78,"x_max":693,"o":"m 588 807 l 693 756 q 628 660 668 701 q 510 619 588 619 q 424 638 460 619 q 356 675 388 657 q 288 693 325 693 q 230 671 253 693 q 186 615 207 649 l 83 668 q 151 765 111 725 q 265 806 192 806 q 353 787 318 806 q 420 749 389 768 q 488 731 451 731 q 546 753 524 731 q 588 807 568 776 m 78 357 l 78 468 l 668 468 l 668 357 l 78 357 m 78 99 l 78 210 l 668 210 l 668 99 l 78 99 z "},"∀":{"ha":914,"x_min":29,"x_max":885,"o":"m 376 0 l 29 946 l 160 946 l 478 76 l 436 76 l 754 946 l 885 946 l 538 0 l 376 0 m 201 564 l 201 693 l 711 693 l 711 564 l 201 564 z "},"∫":{"ha":533,"x_min":53,"x_max":481,"o":"m 336 -154 q 285 -316 336 -264 q 143 -368 233 -368 q 94 -364 117 -368 q 53 -354 72 -360 l 53 -225 q 83 -230 68 -228 q 117 -232 97 -232 q 172 -212 147 -232 q 197 -143 197 -192 l 197 953 q 249 1115 197 1064 q 390 1167 301 1167 q 440 1163 418 1167 q 481 1153 463 1158 l 481 1024 q 451 1028 465 1026 q 417 1031 436 1031 q 361 1010 386 1031 q 336 942 336 990 l 336 -154 z "},"Ω":{"ha":1110,"x_min":65,"x_max":1044,"o":"m 653 49 l 694 125 l 1039 125 l 1039 0 l 639 0 l 639 151 q 776 217 717 169 q 869 337 836 265 q 903 494 903 408 q 858 663 903 589 q 735 781 813 738 q 557 825 657 825 q 378 781 457 825 q 253 663 299 738 q 207 494 207 589 q 240 337 207 408 q 333 217 274 265 q 471 151 393 169 l 471 0 l 71 0 l 71 125 l 429 125 l 457 49 q 296 101 368 63 q 172 197 224 139 q 93 331 121 256 q 65 494 65 407 q 102 678 65 593 q 206 826 139 763 q 362 924 272 889 q 557 958 451 958 q 750 924 661 958 q 905 826 839 889 q 1008 678 971 763 q 1044 494 1044 593 q 1017 330 1044 406 q 938 195 989 254 q 814 99 886 136 q 653 49 742 61 z "},"∆":{"ha":986,"x_min":13,"x_max":974,"o":"m 13 0 l 493 958 l 974 0 l 13 0 m 213 131 l 771 131 l 492 672 l 213 131 z "},"∏":{"ha":969,"x_min":118,"x_max":851,"o":"m 713 0 l 713 946 l 851 946 l 851 0 l 713 0 m 257 946 l 257 0 l 118 0 l 118 946 l 257 946 m 210 815 l 210 946 l 754 946 l 754 815 l 210 815 z "},"∑":{"ha":814,"x_min":89,"x_max":761,"o":"m 444 421 l 89 817 l 89 946 l 761 946 l 761 814 l 244 814 l 251 836 l 578 472 l 251 110 l 244 132 l 761 132 l 761 0 l 89 0 l 89 129 l 444 524 l 444 421 z "},"√":{"ha":1085,"x_min":13,"x_max":1203,"o":"m 340 -153 l 13 764 l 154 764 l 454 -56 l 385 -56 l 861 1272 l 1006 1272 l 494 -153 l 340 -153 m 861 1139 l 861 1272 l 1203 1272 l 1203 1139 l 861 1139 z "},"∂":{"ha":854,"x_min":71,"x_max":789,"o":"m 656 318 q 624 407 656 365 q 539 474 593 449 q 415 500 485 500 q 278 449 335 500 q 222 311 222 399 q 251 213 222 254 q 323 151 279 172 q 410 129 367 129 q 549 170 496 129 q 628 282 603 211 q 653 442 653 353 q 614 665 653 581 q 513 790 575 750 q 382 829 451 829 q 253 812 306 829 q 143 758 200 794 l 93 875 q 190 922 147 904 q 278 949 232 940 q 386 957 324 957 q 530 928 458 957 q 660 840 601 900 q 753 684 718 779 q 789 457 789 589 q 778 345 789 407 q 740 221 767 283 q 667 105 713 158 q 552 19 621 51 q 388 -12 483 -12 q 278 10 333 -12 q 175 74 222 32 q 99 176 128 115 q 71 311 71 236 q 115 481 71 408 q 232 593 158 553 q 394 633 306 633 q 531 608 474 633 q 626 544 588 583 q 689 460 665 506 q 725 374 713 415 l 656 318 z "},"µ":{"ha":765,"x_min":83,"x_max":676,"o":"m 83 678 l 222 678 l 222 244 q 255 147 222 172 q 332 122 288 122 q 423 140 378 122 q 505 190 468 158 q 560 257 542 221 l 560 179 l 538 179 l 538 678 l 676 678 l 676 0 l 571 0 l 542 119 l 576 124 q 496 49 540 81 q 403 2 451 18 q 303 -14 354 -14 q 182 10 226 -14 q 117 76 138 35 q 90 168 96 117 q 83 274 83 219 l 83 678 m 83 315 l 222 344 l 222 -264 l 83 -264 l 83 315 z "},"π":{"ha":881,"x_min":36,"x_max":839,"o":"m 839 131 l 839 1 q 799 -8 821 -4 q 749 -12 776 -12 q 608 40 660 -12 q 556 201 556 92 l 556 657 l 694 622 l 694 199 q 715 140 694 160 q 765 121 735 121 q 807 124 789 121 q 839 131 825 126 m 306 0 l 167 0 l 167 657 l 306 622 l 306 0 m 36 550 l 36 678 l 826 678 l 826 550 l 36 550 z "},"%":{"ha":1000,"x_min":36,"x_max":964,"o":"m 165 -14 l 78 53 l 835 922 l 922 856 l 165 -14 m 249 504 q 143 532 192 504 q 65 607 94 560 q 36 713 36 654 q 65 819 36 772 q 143 894 94 867 q 249 922 192 922 q 356 894 307 922 q 433 818 404 865 q 461 713 461 771 q 432 607 461 654 q 354 532 403 560 q 249 504 306 504 m 249 614 q 317 642 289 614 q 344 713 344 669 q 317 785 344 757 q 249 814 289 814 q 181 785 207 814 q 154 713 154 757 q 181 642 154 669 q 249 614 207 614 m 751 -14 q 646 14 694 -14 q 568 89 597 42 q 539 194 539 136 q 568 301 539 254 q 646 376 597 349 q 751 404 694 404 q 858 376 810 404 q 935 301 907 349 q 964 194 964 253 q 935 89 964 136 q 857 14 906 42 q 751 -14 808 -14 m 751 96 q 819 124 792 96 q 847 194 847 151 q 819 267 847 239 q 751 296 792 296 q 683 267 710 296 q 657 194 657 239 q 683 124 657 151 q 751 96 710 96 z "},"‰":{"ha":1407,"x_min":36,"x_max":1394,"o":"m 165 -14 l 78 53 l 835 922 l 922 856 l 165 -14 m 249 504 q 143 532 192 504 q 65 607 94 560 q 36 713 36 654 q 65 819 36 772 q 143 894 94 867 q 249 922 192 922 q 356 894 307 922 q 433 818 404 865 q 461 713 461 771 q 432 607 461 654 q 354 532 403 560 q 249 504 306 504 m 249 614 q 317 642 289 614 q 344 713 344 669 q 317 785 344 757 q 249 814 289 814 q 181 785 207 814 q 154 713 154 757 q 181 642 154 669 q 249 614 207 614 m 724 -14 q 618 14 667 -14 q 540 89 569 42 q 511 194 511 136 q 540 301 511 254 q 618 376 569 349 q 724 404 667 404 q 831 376 782 404 q 908 301 879 349 q 936 194 936 253 q 907 89 936 136 q 829 14 878 42 q 724 -14 781 -14 m 724 96 q 792 124 764 96 q 819 194 819 151 q 792 267 819 239 q 724 296 764 296 q 656 267 682 296 q 629 194 629 239 q 656 124 629 151 q 724 96 682 96 m 1182 -14 q 1076 14 1125 -14 q 999 89 1028 42 q 969 194 969 136 q 999 301 969 254 q 1076 376 1028 349 q 1182 404 1125 404 q 1289 376 1240 404 q 1366 301 1338 349 q 1394 194 1394 253 q 1365 89 1394 136 q 1288 14 1336 42 q 1182 -14 1239 -14 m 1182 96 q 1250 124 1222 96 q 1278 194 1278 151 q 1250 267 1278 239 q 1182 296 1222 296 q 1114 267 1140 296 q 1088 194 1088 239 q 1114 124 1088 151 q 1182 96 1140 96 z "},"∄":{"ha":797,"x_min":107,"x_max":696,"o":"m 107 0 l 107 132 l 596 132 l 557 110 l 557 860 l 589 815 l 107 815 l 107 946 l 696 946 l 696 0 l 107 0 m 107 410 l 107 540 l 585 540 l 585 410 l 107 410 m 297 -181 l 196 -164 l 411 1126 l 513 1110 l 297 -181 z "},"∃":{"ha":797,"x_min":107,"x_max":696,"o":"m 107 0 l 107 132 l 596 132 l 557 110 l 557 860 l 589 815 l 107 815 l 107 946 l 696 946 l 696 0 l 107 0 m 107 410 l 107 540 l 585 540 l 585 410 l 107 410 z "},"∈":{"ha":931,"x_min":71,"x_max":860,"o":"m 428 14 q 243 50 324 14 q 117 161 163 86 q 71 353 71 236 q 117 545 71 471 q 243 656 163 619 q 428 692 324 692 l 860 692 l 860 581 l 428 581 q 247 518 307 581 q 186 353 186 456 q 247 188 186 250 q 428 125 307 125 l 860 125 l 860 14 l 428 14 m 139 303 l 139 414 l 860 414 l 860 303 l 139 303 z "},"∉":{"ha":931,"x_min":71,"x_max":860,"o":"m 343 -167 l 249 -131 l 685 881 l 779 844 l 343 -167 m 428 14 q 243 50 324 14 q 117 161 163 86 q 71 353 71 236 q 117 545 71 471 q 243 656 163 619 q 428 692 324 692 l 860 692 l 860 581 l 428 581 q 247 518 307 581 q 186 353 186 456 q 247 188 186 250 q 428 125 307 125 l 860 125 l 860 14 l 428 14 m 139 303 l 139 414 l 860 414 l 860 303 l 139 303 z "},"⊂":{"ha":931,"x_min":71,"x_max":860,"o":"m 71 353 q 117 545 71 471 q 243 656 163 619 q 428 692 324 692 l 860 692 l 860 581 l 428 581 q 247 518 307 581 q 186 353 186 456 q 247 188 186 250 q 428 125 307 125 l 860 125 l 860 14 l 428 14 q 243 50 324 14 q 117 161 163 86 q 71 353 71 236 z "},"⊃":{"ha":931,"x_min":71,"x_max":860,"o":"m 71 14 l 71 125 l 503 125 q 684 188 624 125 q 744 353 744 250 q 684 518 744 456 q 503 581 624 581 l 71 581 l 71 692 l 503 692 q 688 656 607 692 q 814 545 768 619 q 860 353 860 471 q 814 161 860 236 q 688 50 768 86 q 503 14 607 14 l 71 14 z "},"⊄":{"ha":931,"x_min":71,"x_max":860,"o":"m 343 -167 l 249 -131 l 685 881 l 779 844 l 343 -167 m 71 353 q 117 545 71 471 q 243 656 163 619 q 428 692 324 692 l 860 692 l 860 581 l 428 581 q 247 518 307 581 q 186 353 186 456 q 247 188 186 250 q 428 125 307 125 l 860 125 l 860 14 l 428 14 q 243 50 324 14 q 117 161 163 86 q 71 353 71 236 z "},"⊅":{"ha":931,"x_min":71,"x_max":860,"o":"m 71 14 l 71 125 l 503 125 q 684 188 624 125 q 744 353 744 250 q 684 518 744 456 q 503 581 624 581 l 71 581 l 71 692 l 503 692 q 688 656 607 692 q 814 545 768 619 q 860 353 860 471 q 814 161 860 236 q 688 50 768 86 q 503 14 607 14 l 71 14 m 246 -175 l 151 -139 l 588 872 l 682 836 l 246 -175 z "},"⊆":{"ha":943,"x_min":71,"x_max":872,"o":"m 97 -83 l 97 14 l 872 14 l 872 -83 l 97 -83 m 71 519 q 117 712 71 638 q 243 822 163 786 q 428 858 324 858 l 860 858 l 860 747 l 428 747 q 247 685 307 747 q 186 519 186 622 q 247 354 186 417 q 428 292 307 292 l 860 292 l 860 181 l 428 181 q 243 217 324 181 q 117 328 163 253 q 71 519 71 403 z "},"⊇":{"ha":943,"x_min":71,"x_max":872,"o":"m 83 181 l 83 292 l 515 292 q 697 354 636 292 q 757 519 757 417 q 697 685 757 622 q 515 747 636 747 l 83 747 l 83 858 l 515 858 q 700 822 619 858 q 826 712 781 786 q 872 519 872 638 q 826 328 872 403 q 700 217 781 253 q 515 181 619 181 l 83 181 m 71 -83 l 71 14 l 846 14 l 846 -83 l 71 -83 z "},"⊈":{"ha":943,"x_min":71,"x_max":872,"o":"m 386 -222 l 282 -194 l 615 1033 l 719 1006 l 386 -222 m 97 -83 l 97 14 l 872 14 l 872 -83 l 97 -83 m 71 519 q 117 712 71 638 q 243 822 163 786 q 428 858 324 858 l 860 858 l 860 747 l 428 747 q 247 685 307 747 q 186 519 186 622 q 247 354 186 417 q 428 292 307 292 l 860 292 l 860 181 l 428 181 q 243 217 324 181 q 117 328 163 253 q 71 519 71 403 z "},"⊉":{"ha":943,"x_min":71,"x_max":872,"o":"m 317 -222 l 213 -194 l 546 1033 l 650 1006 l 317 -222 m 846 -83 l 71 -83 l 71 14 l 846 14 l 846 -83 m 872 519 q 826 328 872 403 q 700 217 781 253 q 515 181 619 181 l 83 181 l 83 292 l 515 292 q 697 354 636 292 q 757 519 757 417 q 697 685 757 622 q 515 747 636 747 l 83 747 l 83 858 l 515 858 q 700 822 619 858 q 826 712 781 786 q 872 519 872 638 z "},"⊊":{"ha":943,"x_min":71,"x_max":872,"o":"m 456 -222 l 375 -187 l 517 146 l 597 111 l 456 -222 m 97 -83 l 97 14 l 872 14 l 872 -83 l 97 -83 m 71 519 q 117 712 71 638 q 243 822 163 786 q 428 858 324 858 l 860 858 l 860 747 l 428 747 q 247 685 307 747 q 186 519 186 622 q 247 354 186 417 q 428 292 307 292 l 860 292 l 860 181 l 428 181 q 243 217 324 181 q 117 328 163 253 q 71 519 71 403 z "},"⊋":{"ha":908,"x_min":71,"x_max":872,"o":"m 442 -222 l 361 -187 l 503 146 l 583 111 l 442 -222 m 846 -83 l 71 -83 l 71 14 l 846 14 l 846 -83 m 872 519 q 826 328 872 403 q 700 217 781 253 q 515 181 619 181 l 83 181 l 83 292 l 515 292 q 697 354 636 292 q 757 519 757 417 q 697 685 757 622 q 515 747 636 747 l 83 747 l 83 858 l 515 858 q 700 822 619 858 q 826 712 781 786 q 872 519 872 638 z "},"⁺":{"ha":436,"x_min":58,"x_max":378,"o":"m 169 654 l 169 988 l 267 988 l 267 654 l 169 654 m 58 772 l 58 869 l 378 869 l 378 772 l 58 772 z "},"⁻":{"ha":436,"x_min":58,"x_max":378,"o":"m 58 772 l 58 869 l 378 869 l 378 772 l 58 772 z "},"₊":{"ha":436,"x_min":58,"x_max":378,"o":"m 169 -58 l 169 275 l 267 275 l 267 -58 l 169 -58 m 58 60 l 58 157 l 378 157 l 378 60 l 58 60 z "},"₋":{"ha":436,"x_min":58,"x_max":378,"o":"m 58 60 l 58 157 l 378 157 l 378 60 l 58 60 z "},"￣":{"ha":401,"x_min":13,"x_max":389,"o":"m 389 1139 l 13 1139 l 13 1272 l 389 1272 l 389 1139 z "},"↑":{"ha":689,"x_min":94,"x_max":594,"o":"m 594 774 l 94 774 l 344 1207 l 594 774 m 275 935 l 414 935 l 414 -111 l 275 -111 l 275 935 z "},"↗":{"ha":1076,"x_min":44,"x_max":1025,"o":"m 896 400 l 542 753 l 1025 883 l 896 400 m 783 739 l 882 642 l 142 -99 l 44 0 l 783 739 z "},"→":{"ha":1442,"x_min":53,"x_max":1371,"o":"m 938 181 l 938 681 l 1371 431 l 938 181 m 1099 500 l 1099 361 l 53 361 l 53 500 l 1099 500 z "},"↘":{"ha":1078,"x_min":51,"x_max":1032,"o":"m 181 389 l 535 36 l 51 -94 l 181 389 m 293 50 l 194 147 l 935 888 l 1032 789 l 293 50 z "},"↓":{"ha":689,"x_min":94,"x_max":594,"o":"m 94 33 l 594 33 l 344 -400 l 94 33 m 414 -128 l 275 -128 l 275 918 l 414 918 l 414 -128 z "},"↙":{"ha":1076,"x_min":44,"x_max":1026,"o":"m 543 36 l 896 390 l 1026 -93 l 543 36 m 882 149 l 785 50 l 44 790 l 143 888 l 882 149 z "},"←":{"ha":1442,"x_min":71,"x_max":1389,"o":"m 504 681 l 504 181 l 71 431 l 504 681 m 343 361 l 343 500 l 1389 500 l 1389 361 l 343 361 z "},"↖":{"ha":1076,"x_min":58,"x_max":1040,"o":"m 542 751 l 189 397 l 58 881 l 542 751 m 203 639 l 300 738 l 1040 -3 l 942 -100 l 203 639 z "},"↔":{"ha":1725,"x_min":71,"x_max":1654,"o":"m 1221 181 l 1221 681 l 1654 431 l 1221 181 m 504 181 l 71 431 l 504 681 l 504 181 m 343 361 l 343 500 l 1382 500 l 1382 361 l 343 361 z "},"↕":{"ha":689,"x_min":94,"x_max":594,"o":"m 594 761 l 94 761 l 344 1194 l 594 761 m 275 922 l 414 922 l 414 -164 l 275 -164 l 275 922 m 94 44 l 594 44 l 344 -389 l 94 44 z "},"⇄":{"ha":1725,"x_min":72,"x_max":1656,"o":"m 1222 493 l 1222 993 l 1656 743 l 1222 493 m 1383 813 l 1383 674 l 199 674 l 199 813 l 1383 813 m 506 424 l 506 -76 l 72 174 l 506 424 m 344 104 l 344 243 l 1529 243 l 1529 104 l 344 104 z "},"⇅":{"ha":1258,"x_min":94,"x_max":1164,"o":"m 594 761 l 94 761 l 344 1194 l 594 761 m 275 922 l 414 922 l 414 -262 l 275 -262 l 275 922 m 664 44 l 1164 44 l 914 -389 l 664 44 m 983 -117 l 844 -117 l 844 1068 l 983 1068 l 983 -117 z "},"⇔":{"ha":1206,"x_min":36,"x_max":1169,"o":"m 865 0 l 788 74 l 1057 374 l 1057 304 l 788 604 l 865 678 l 1169 339 l 865 0 m 340 0 l 36 339 l 340 678 l 418 604 l 149 304 l 149 374 l 418 74 l 340 0 m 260 185 l 204 282 l 1001 282 l 946 185 l 260 185 m 204 396 l 260 493 l 946 493 l 1001 396 l 204 396 z "},"●":{"ha":996,"x_min":71,"x_max":925,"o":"m 499 32 q 331 66 408 32 q 194 160 253 100 q 103 301 136 221 q 71 474 71 381 q 103 647 71 567 q 194 788 136 728 q 331 883 253 849 q 499 917 408 917 q 667 883 589 917 q 802 788 744 849 q 892 647 860 728 q 925 474 925 567 q 892 301 925 381 q 802 160 860 221 q 667 66 744 100 q 499 32 589 32 z "},"○":{"ha":1082,"x_min":53,"x_max":1029,"o":"m 542 -29 q 350 9 439 -29 q 194 116 261 47 q 90 276 128 185 q 53 474 53 368 q 90 671 53 579 q 194 831 128 763 q 350 939 261 900 q 542 978 439 978 q 733 939 644 978 q 888 831 821 900 q 992 671 954 763 q 1029 474 1029 579 q 992 276 1029 368 q 888 116 954 185 q 733 9 821 47 q 542 -29 644 -29 m 542 74 q 738 127 651 74 q 876 272 825 181 q 926 474 926 363 q 897 630 926 557 q 816 758 868 703 q 694 844 764 813 q 542 875 624 875 q 344 821 432 875 q 206 676 257 767 q 156 474 156 585 q 206 272 156 363 q 344 127 257 181 q 542 74 432 74 z "},"◌":{"ha":1061,"x_min":46,"x_max":1015,"o":"m 531 -12 q 497 2 511 -12 q 482 36 482 17 q 497 70 482 56 q 531 85 511 85 q 565 70 550 85 q 579 36 579 56 q 565 2 579 17 q 531 -12 550 -12 m 697 21 q 663 35 678 21 q 649 69 649 50 q 663 103 649 89 q 697 118 678 118 q 731 103 717 118 q 746 69 746 89 q 731 35 746 50 q 697 21 717 21 m 839 115 q 805 130 819 115 q 790 164 790 144 q 805 198 790 183 q 839 213 819 213 q 873 198 858 213 q 888 164 888 183 q 873 130 888 144 q 839 115 858 115 m 933 257 q 899 272 914 257 q 885 306 885 286 q 899 340 885 325 q 933 354 914 354 q 967 340 953 354 q 982 306 982 325 q 967 272 982 286 q 933 257 953 257 m 967 424 q 933 438 947 424 q 918 472 918 453 q 933 506 918 492 q 967 521 947 521 q 1001 506 986 521 q 1015 472 1015 492 q 1001 438 1015 453 q 967 424 986 424 m 933 590 q 899 605 914 590 q 885 639 885 619 q 899 673 885 658 q 933 688 914 688 q 967 673 953 688 q 982 639 982 658 q 967 605 982 619 q 933 590 953 590 m 839 732 q 805 747 819 732 q 790 781 790 761 q 805 815 790 800 q 839 829 819 829 q 873 815 858 829 q 888 781 888 800 q 873 747 888 761 q 839 732 858 732 m 697 826 q 663 841 678 826 q 649 875 649 856 q 663 909 649 894 q 697 924 678 924 q 731 909 717 924 q 746 875 746 894 q 731 841 746 856 q 697 826 717 826 m 531 860 q 497 874 511 860 q 482 908 482 889 q 497 942 482 928 q 531 957 511 957 q 565 942 550 957 q 579 908 579 928 q 565 874 579 889 q 531 860 550 860 m 364 826 q 330 841 344 826 q 315 875 315 856 q 330 909 315 894 q 364 924 344 924 q 398 909 383 924 q 413 875 413 894 q 398 841 413 856 q 364 826 383 826 m 222 732 q 188 747 203 732 q 174 781 174 761 q 188 815 174 800 q 222 829 203 829 q 256 815 242 829 q 271 781 271 800 q 256 747 271 761 q 222 732 242 732 m 128 590 q 94 605 108 590 q 79 639 79 619 q 94 673 79 658 q 128 688 108 688 q 162 673 147 688 q 176 639 176 658 q 162 605 176 619 q 128 590 147 590 m 94 424 q 60 438 75 424 q 46 472 46 453 q 60 506 46 492 q 94 521 75 521 q 128 506 114 521 q 143 472 143 492 q 128 438 143 453 q 94 424 114 424 m 128 257 q 94 272 108 257 q 79 306 79 286 q 94 340 79 325 q 128 354 108 354 q 162 340 147 354 q 176 306 176 325 q 162 272 176 286 q 128 257 147 257 m 222 115 q 188 130 203 115 q 174 164 174 144 q 188 198 174 183 q 222 213 203 213 q 256 198 242 213 q 271 164 271 183 q 256 130 271 144 q 222 115 242 115 m 364 21 q 330 35 344 21 q 315 69 315 50 q 330 103 315 89 q 364 118 344 118 q 398 103 383 118 q 413 69 413 89 q 398 35 413 50 q 364 21 383 21 z "},"◊":{"ha":826,"x_min":65,"x_max":761,"o":"m 333 0 l 65 465 l 65 481 l 333 946 l 493 946 l 761 481 l 761 465 l 493 0 l 333 0 m 414 138 l 607 474 l 414 808 l 219 474 l 414 138 z "},"̈":{"ha":0,"x_min":153,"x_max":597,"o":"m 153 876 q 177 942 153 917 q 243 968 201 968 q 308 942 283 968 q 333 876 333 917 q 308 812 333 838 q 243 786 283 786 q 177 812 201 786 q 153 876 153 838 m 417 876 q 441 942 417 917 q 507 968 465 968 q 572 942 547 968 q 597 876 597 917 q 572 812 597 838 q 507 786 547 786 q 441 812 465 786 q 417 876 417 838 z "},"̇":{"ha":0,"x_min":285,"x_max":465,"o":"m 285 886 q 309 952 285 926 q 375 978 333 978 q 440 952 415 978 q 465 886 465 926 q 440 822 465 847 q 375 796 415 796 q 309 822 333 796 q 285 886 285 847 z "},"̀":{"ha":0,"x_min":224,"x_max":506,"o":"m 436 774 l 224 969 l 294 1040 l 506 846 l 436 774 z "},"́":{"ha":0,"x_min":244,"x_max":526,"o":"m 314 774 l 244 846 l 456 1040 l 526 969 l 314 774 z "},"̋":{"ha":0,"x_min":210,"x_max":608,"o":"m 300 765 l 210 804 l 322 1051 l 415 1015 l 300 765 m 493 765 l 403 804 l 515 1051 l 608 1015 l 493 765 z "},"̂":{"ha":0,"x_min":178,"x_max":574,"o":"m 249 775 l 178 846 l 375 1040 l 574 846 l 503 775 l 332 949 l 421 947 l 249 775 z "},"̌":{"ha":0,"x_min":176,"x_max":572,"o":"m 375 775 l 176 969 l 247 1040 l 418 867 l 329 868 l 501 1040 l 572 969 l 375 775 z "},"̆":{"ha":0,"x_min":188,"x_max":561,"o":"m 374 806 q 244 853 293 806 q 188 983 194 900 l 283 983 q 306 915 286 944 q 374 886 326 886 q 442 915 421 886 q 465 983 463 944 l 561 983 q 506 853 556 900 q 374 806 456 806 z "},"̊":{"ha":0,"x_min":226,"x_max":524,"o":"m 375 776 q 301 795 335 776 q 247 847 267 814 q 226 919 226 879 q 247 994 226 961 q 301 1047 267 1028 q 375 1065 335 1065 q 450 1047 417 1065 q 503 994 483 1028 q 524 919 524 961 q 503 847 524 879 q 450 795 483 814 q 375 776 417 776 m 374 867 q 413 882 397 867 q 428 919 428 897 q 413 958 428 943 q 374 974 397 974 q 336 958 351 974 q 321 919 321 943 q 336 882 321 897 q 374 867 351 867 z "},"̃":{"ha":0,"x_min":125,"x_max":625,"o":"m 465 799 q 358 838 414 799 q 319 862 335 854 q 288 869 304 869 q 218 807 246 869 l 125 853 q 190 943 153 911 q 282 975 228 975 q 345 965 315 975 q 407 931 375 954 q 438 912 424 919 q 467 904 453 904 q 503 919 490 904 q 532 975 515 935 l 625 929 q 565 834 603 869 q 465 799 528 799 z "},"̄":{"ha":0,"x_min":186,"x_max":563,"o":"m 563 811 l 186 811 l 186 908 l 563 908 l 563 811 z "},"̅":{"ha":0,"x_min":-12,"x_max":799,"o":"m 799 1139 l -12 1139 l -12 1272 l 799 1272 l 799 1139 z "},"̒":{"ha":0,"x_min":275,"x_max":479,"o":"m 388 760 q 311 793 347 760 q 275 889 275 826 q 303 990 275 944 q 374 1063 331 1035 q 465 1099 418 1092 l 474 1063 q 406 1017 425 1047 q 386 950 386 986 q 418 863 386 896 q 479 813 450 829 q 440 772 461 785 q 388 760 419 760 z "},"̣":{"ha":0,"x_min":278,"x_max":472,"o":"m 278 -194 q 307 -125 278 -154 q 375 -96 336 -96 q 444 -125 415 -96 q 472 -194 472 -154 q 444 -262 472 -233 q 375 -290 415 -290 q 307 -262 336 -290 q 278 -194 278 -233 z "},"̦":{"ha":0,"x_min":271,"x_max":475,"o":"m 285 -406 l 276 -369 q 344 -324 325 -354 q 364 -257 364 -293 q 332 -169 364 -203 q 271 -119 300 -136 q 310 -79 290 -92 q 363 -67 331 -67 q 439 -100 403 -67 q 475 -196 475 -133 q 447 -297 475 -251 q 376 -370 419 -342 q 285 -406 332 -399 z "},"̧":{"ha":0,"x_min":224,"x_max":514,"o":"m 369 -282 q 288 -271 324 -282 q 224 -242 251 -260 l 261 -175 q 304 -195 279 -186 q 358 -204 329 -204 q 411 -192 394 -204 q 428 -160 428 -179 q 412 -133 428 -143 q 353 -122 396 -122 l 286 -122 l 313 0 l 399 0 l 381 -96 l 354 -53 q 476 -81 438 -53 q 514 -158 514 -108 q 476 -249 514 -217 q 369 -282 439 -282 z "},"̨":{"ha":0,"x_min":236,"x_max":464,"o":"m 376 -315 q 276 -287 317 -315 q 236 -190 236 -258 q 270 -83 236 -137 q 357 7 304 -28 l 453 0 q 367 -78 399 -35 q 335 -164 335 -122 q 396 -221 335 -221 q 426 -217 410 -221 q 451 -208 442 -212 l 464 -296 q 428 -309 451 -303 q 376 -315 404 -315 z "},"̵":{"ha":0,"x_min":172,"x_max":578,"o":"m 578 750 l 172 750 l 172 858 l 578 858 l 578 750 z "},"̶":{"ha":0,"x_min":28,"x_max":983,"o":"m 983 699 l 28 699 l 28 807 l 983 807 l 983 699 z "},"̷":{"ha":0,"x_min":6,"x_max":360,"o":"m 54 364 l 6 449 l 311 632 l 360 547 l 54 364 z "},"¨":{"ha":750,"x_min":153,"x_max":597,"o":"m 153 876 q 177 942 153 917 q 243 968 201 968 q 308 942 283 968 q 333 876 333 917 q 308 812 333 838 q 243 786 283 786 q 177 812 201 786 q 153 876 153 838 m 417 876 q 441 942 417 917 q 507 968 465 968 q 572 942 547 968 q 597 876 597 917 q 572 812 597 838 q 507 786 547 786 q 441 812 465 786 q 417 876 417 838 z "},"˙":{"ha":750,"x_min":285,"x_max":465,"o":"m 285 886 q 309 952 285 926 q 375 978 333 978 q 440 952 415 978 q 465 886 465 926 q 440 822 465 847 q 375 796 415 796 q 309 822 333 796 q 285 886 285 847 z "},"`":{"ha":750,"x_min":224,"x_max":506,"o":"m 436 774 l 224 969 l 294 1040 l 506 846 l 436 774 z "},"´":{"ha":750,"x_min":244,"x_max":526,"o":"m 314 774 l 244 846 l 456 1040 l 526 969 l 314 774 z "},"˝":{"ha":750,"x_min":210,"x_max":608,"o":"m 300 765 l 210 804 l 322 1051 l 415 1015 l 300 765 m 493 765 l 403 804 l 515 1051 l 608 1015 l 493 765 z "},"ˆ":{"ha":750,"x_min":178,"x_max":574,"o":"m 249 775 l 178 846 l 375 1040 l 574 846 l 503 775 l 332 949 l 421 947 l 249 775 z "},"ˇ":{"ha":750,"x_min":176,"x_max":572,"o":"m 375 775 l 176 969 l 247 1040 l 418 867 l 329 868 l 501 1040 l 572 969 l 375 775 z "},"˘":{"ha":750,"x_min":188,"x_max":561,"o":"m 374 806 q 244 853 293 806 q 188 983 194 900 l 283 983 q 306 915 286 944 q 374 886 326 886 q 442 915 421 886 q 465 983 463 944 l 561 983 q 506 853 556 900 q 374 806 456 806 z "},"˚":{"ha":750,"x_min":226,"x_max":524,"o":"m 375 776 q 301 795 335 776 q 247 847 267 814 q 226 919 226 879 q 247 994 226 961 q 301 1047 267 1028 q 375 1065 335 1065 q 450 1047 417 1065 q 503 994 483 1028 q 524 919 524 961 q 503 847 524 879 q 450 795 483 814 q 375 776 417 776 m 374 867 q 413 882 397 867 q 428 919 428 897 q 413 958 428 943 q 374 974 397 974 q 336 958 351 974 q 321 919 321 943 q 336 882 321 897 q 374 867 351 867 z "},"˜":{"ha":750,"x_min":125,"x_max":625,"o":"m 465 799 q 358 838 414 799 q 319 862 335 854 q 288 869 304 869 q 218 807 246 869 l 125 853 q 190 943 153 911 q 282 975 228 975 q 345 965 315 975 q 407 931 375 954 q 438 912 424 919 q 467 904 453 904 q 503 919 490 904 q 532 975 515 935 l 625 929 q 565 834 603 869 q 465 799 528 799 z "},"¯":{"ha":750,"x_min":186,"x_max":563,"o":"m 563 811 l 186 811 l 186 908 l 563 908 l 563 811 z "},"¸":{"ha":750,"x_min":224,"x_max":514,"o":"m 369 -282 q 288 -271 324 -282 q 224 -242 251 -260 l 261 -175 q 304 -195 279 -186 q 358 -204 329 -204 q 411 -192 394 -204 q 428 -160 428 -179 q 412 -133 428 -143 q 353 -122 396 -122 l 286 -122 l 313 0 l 399 0 l 381 -96 l 354 -53 q 476 -81 438 -53 q 514 -158 514 -108 q 476 -249 514 -217 q 369 -282 439 -282 z "},"˛":{"ha":750,"x_min":236,"x_max":464,"o":"m 376 -315 q 276 -287 317 -315 q 236 -190 236 -258 q 270 -83 236 -137 q 357 7 304 -28 l 453 0 q 367 -78 399 -35 q 335 -164 335 -122 q 396 -221 335 -221 q 426 -217 410 -221 q 451 -208 442 -212 l 464 -296 q 428 -309 451 -303 q 376 -315 404 -315 z "}}}
